<?xml version="1.0" encoding="UTF-8" standalone="no"?>
<svg width="73px" height="73px" viewBox="0 0 73 73" version="1.1" xmlns="http://www.w3.org/2000/svg" xmlns:xlink="http://www.w3.org/1999/xlink" xmlns:sketch="http://www.bohemiancoding.com/sketch/ns">
    <!-- Generator: Sketch 3.1.1 (8761) - http://www.bohemiancoding.com/sketch -->
    <title>Slice 2</title>
    <desc>Created with Sketch.</desc>
    <defs>
        <path id="path-1" d="M0.0675,0.017 L67.4619,0.017 L67.4619,69.983 L0.0675,69.983 L0.0675,0.017"></path>
    </defs>
    <g id="Page-1" stroke="none" stroke-width="1" fill="none" fill-rule="evenodd" sketch:type="MSPage">
        <g id="Group-244" sketch:type="MSLayerGroup" transform="translate(3.000000, 1.000000)">
            <mask id="mask-2" sketch:name="Clip 187" fill="white">
                <use xlink:href="#path-1"></use>
            </mask>
            <g id="Clip-187"></g>
            <path d="M12.9978,10.406 C13.0047,10.403 13.0115,10.4 13.0184,10.397 C13.0258,10.391 13.0334,10.384 13.0408,10.378 C13.0273,10.388 13.0105,10.395 12.9978,10.406" id="Fill-186" fill="#F9CF5E" sketch:type="MSShapeGroup" mask="url(#mask-2)"></path>
            <path d="M47.6068,5.947 C47.6015,5.945 47.5963,5.943 47.5907,5.942 C47.5936,5.943 47.5969,5.944 47.6,5.946 C47.6025,5.946 47.6043,5.947 47.6068,5.947" id="Fill-188" fill="#F9CF5E" sketch:type="MSShapeGroup" mask="url(#mask-2)"></path>
            <path d="M63.5236,45.026 C63.4655,45.139 63.46,45.377 63.4039,45.462 C63.2446,45.736 62.9012,46.338 62.6833,46.594 C62.4013,46.905 62.1112,46.965 61.9619,47.664 C61.9322,47.897 61.9708,48.182 61.9363,48.331 C61.9225,48.357 61.626,49.007 61.6257,49.007 C61.5985,49.017 61.402,49.288 61.3872,49.343 C61.3328,49.547 61.2852,49.76 61.3605,49.833 C61.3378,49.932 61.3129,50.005 61.2587,50.168 C61.17,50.522 61.2543,50.791 61.456,50.696 C61.9586,50.441 62.241,49.603 62.5309,48.94 C62.8888,48.121 63.1981,47.408 63.4185,46.409 C63.4462,46.41 63.4508,46.396 63.5233,46.424 C63.5259,46.353 63.5584,46.292 63.5656,46.222 C63.576,45.887 63.7736,45.011 63.5236,45.026" id="Fill-189" fill="#F9CF5E" sketch:type="MSShapeGroup" mask="url(#mask-2)"></path>
            <path d="M61.2415,20.957 C61.2524,20.957 61.2485,20.953 61.2592,20.956 C61.2704,20.955 61.2524,20.957 61.2415,20.957 M65.7397,31.565 C65.7443,31.566 65.7467,31.565 65.7507,31.565 C65.6451,30.572 65.4946,29.592 65.301,28.628 C65.2086,28.93 65.2001,29.323 64.8189,29.235 C64.6012,29.192 64.5197,29.065 64.506,28.866 C64.4745,28.7 64.5231,28.592 64.5037,28.422 C64.493,28.372 64.4717,28.316 64.478,28.264 C64.3289,28.252 64.5437,28.443 64.3662,28.483 C64.34,28.36 64.2978,28.297 64.2779,28.141 C64.0783,28.014 63.8088,27.355 63.7136,26.997 C63.6845,26.885 63.6645,26.819 63.6528,26.663 C63.6197,26.457 63.6425,26.227 63.7413,26.255 C63.9648,26.344 64.1707,26.81 64.2978,27.139 C64.3123,27.201 64.3169,27.312 64.3675,27.403 C64.4594,27.597 64.5576,27.528 64.6633,27.723 C64.742,27.879 64.8208,28.073 64.9306,28.181 C65.1541,28.283 65.1428,28.24 65.2246,28.282 C65.2259,28.28 65.2259,28.277 65.2269,28.275 C64.916,26.811 64.506,25.382 64.0025,23.999 C63.9814,23.988 63.9577,23.975 63.9149,23.958 C63.7446,23.878 63.6864,23.866 63.5912,23.736 C63.5496,23.622 63.5263,23.529 63.4211,23.445 C63.2832,23.358 63.2172,23.257 63.1595,23.113 C63.0861,22.982 63.1251,22.919 63.0492,22.764 C62.9876,22.668 62.9431,22.657 62.9115,22.546 C62.9635,22.59 62.9569,22.587 63.0209,22.612 C63.1137,22.385 62.8654,22.282 63.1057,22.217 C62.8866,21.967 62.4189,21.227 62.3248,20.88 C62.3153,20.77 62.0944,20.551 62.0471,20.4 C62.0489,20.345 62.0707,20.117 62.0995,20.022 C62.1347,20.055 62.1958,20.051 62.25,20.042 C60.0657,15.89 57.0009,12.274 53.3029,9.441 C53.1985,9.432 53.1332,9.448 52.9186,9.38 C52.9598,9.264 53.1545,9.438 53.1311,9.337 C53.0736,9.259 52.6549,9.195 52.4365,9.123 C52.3028,9.055 52.2023,9.014 52.1122,8.948 C52.0465,8.959 51.8444,8.88 51.8464,8.917 C51.8711,8.963 51.9553,8.99 52.0841,9.048 C51.8377,9.002 51.5927,8.897 51.4509,8.956 C51.444,8.915 51.4241,8.914 51.4172,8.873 C51.1187,8.798 51.111,8.875 50.9221,8.837 C50.9169,8.808 50.9048,8.806 50.8995,8.777 C50.6673,8.724 50.3998,8.646 50.271,8.648 C50.3121,8.675 50.3611,8.707 50.4077,8.722 C50.2874,8.722 49.9957,8.645 49.9104,8.608 C49.7686,8.57 49.7148,8.576 49.6232,8.617 C49.7531,8.644 49.7498,8.641 49.8497,8.687 C49.8231,8.671 49.6989,8.725 49.626,8.711 C49.4379,8.671 49.5662,8.678 49.3313,8.621 C49.3682,8.557 49.3127,8.624 49.2197,8.569 C49.1648,8.586 49.1712,8.598 49.1162,8.614 C49.0717,8.613 49.0414,8.578 48.9975,8.569 C48.8804,8.548 48.8311,8.527 48.8113,8.614 C48.8113,8.614 48.7293,8.636 48.7998,8.663 C48.7384,8.652 48.6442,8.672 48.5537,8.7 C48.9011,8.802 49.3285,8.846 49.6775,8.912 C49.6535,9.102 49.3193,9.121 49.0235,9.112 C48.7404,9.092 48.562,9.133 48.405,9.226 C48.4119,9.231 48.2953,9.344 48.2953,9.344 C48.1789,9.326 48.2443,9.537 48.0904,9.551 C47.6737,9.636 47.4436,9.725 46.7481,9.689 C46.8889,9.739 46.9673,9.743 47.1351,9.801 C46.5713,9.669 46.5926,9.83 46.3032,9.832 C45.9685,9.807 45.8,9.879 45.6236,9.97 C45.5248,10.033 45.3906,10.054 45.4069,10.16 C45.438,10.39 45.6869,10.713 45.9537,10.888 C45.8829,10.95 45.7116,10.99 45.7218,11.048 C45.8504,11.065 45.9969,11.072 46.1443,11.068 C46.1525,11.109 46.1545,11.14 46.1627,11.182 C46.1024,11.194 45.8985,11.19 45.901,11.258 C45.9211,11.285 46.5781,11.548 46.6766,11.575 C47.3873,11.652 47.9183,11.526 48.2179,11.358 C48.3243,11.425 48.3854,11.507 48.5643,11.589 C48.5225,11.603 48.505,11.642 48.5089,11.682 C48.529,11.823 48.7702,11.893 48.8777,12.016 C49.0087,12.211 49.0077,12.309 49.2992,12.482 C49.3018,12.512 49.2817,12.525 49.2841,12.554 C49.276,12.595 49.5095,13.019 49.6369,13.048 C50.0244,13.116 50.0084,12.757 50.2725,12.807 C50.3897,12.82 50.6206,12.893 50.8346,12.934 C50.8479,12.769 51.2047,12.836 51.2002,12.662 C51.1197,12.623 50.9753,12.58 50.9507,12.487 C50.9137,12.322 50.8003,12.014 51.0929,12.089 C51.246,12.099 51.6085,12.036 51.5975,11.932 C51.5601,11.792 51.4577,11.597 51.1825,11.512 C51.1773,11.453 51.108,11.398 51.036,11.359 C50.9578,11.278 50.859,11.184 50.7554,11.108 C50.9718,11.103 50.7811,10.959 50.8682,10.877 C50.9748,10.794 51.1732,10.792 51.3962,10.796 C51.667,10.786 52.2269,10.758 52.1901,10.614 C52.2488,10.582 52.176,10.563 52.1415,10.468 C52.0941,10.265 52.3603,10.248 52.7898,10.384 C53.1217,10.484 53.5219,10.665 53.5858,10.81 C53.6249,10.947 53.1723,10.977 53.0094,10.971 C52.7002,10.971 52.8728,11.209 52.3067,11.042 C52.3232,11.105 52.3514,11.307 52.3664,11.364 C52.4014,11.45 52.4434,11.545 52.5925,11.614 C52.5332,11.622 52.4332,11.629 52.4479,11.712 C52.4886,11.884 52.8167,12.038 53.0981,12.112 C53.1303,12.199 53.1805,12.231 53.3559,12.271 C53.5885,12.334 53.7441,12.421 53.9974,12.459 C54.2445,12.569 54.4785,12.568 54.5573,12.464 C54.7021,12.569 55.1884,12.735 55.3357,12.893 C55.1466,12.88 55.1392,13.031 54.9732,12.992 C54.7735,12.912 54.2951,12.665 53.9971,12.582 C53.7257,12.506 53.0029,12.606 53.2268,12.782 C53.5165,12.953 53.6147,12.782 53.9162,13.082 C54.1429,13.302 53.9301,13.412 53.8263,13.375 C53.541,13.31 53.4775,13.114 53.2375,13.049 C53.0097,12.991 52.8829,13.4 52.9232,13.595 C52.9855,13.893 52.4793,13.678 52.4968,13.938 C52.3446,13.916 52.1547,13.885 51.979,13.844 C52.0024,13.817 51.9961,13.8 52.0193,13.771 C51.9208,13.73 51.7057,13.67 51.5119,13.636 C51.3333,13.598 51.1154,13.689 50.9881,13.677 C50.7554,13.707 50.6253,13.581 50.3606,13.61 C50.2845,13.628 50.2776,13.68 50.1114,13.643 C50.1109,13.643 49.8273,13.492 49.824,13.474 C49.8142,13.448 49.9009,13.442 49.8996,13.393 C49.5438,13.313 49.2776,13.468 48.8412,13.39 C48.7967,13.384 48.3372,12.942 48.3021,12.903 C48.1698,12.885 48.4966,13.199 48.3181,13.172 C48.3045,13.14 48.3049,13.108 48.3017,13.074 C48.213,13.062 48.1249,12.976 48.0982,12.889 C48.0832,12.721 48.2492,12.678 48.3971,12.62 C48.4475,12.605 48.5687,12.611 48.5742,12.565 C48.5537,12.551 48.5717,12.518 48.5613,12.496 C48.4432,12.491 48.2537,12.447 48.2413,12.353 C48.2184,12.264 48.2209,12.238 48.2966,12.147 C48.2925,12.11 48.283,12.082 48.2785,12.045 C47.8934,12.127 47.2967,12.052 47.3384,12.427 C47.3687,12.649 47.6406,12.733 47.7498,12.993 C47.7589,12.993 47.8934,13.186 47.8987,13.232 C47.9025,13.306 47.6569,13.345 47.5604,13.334 C47.4138,13.316 47.2641,13.272 47.1612,13.31 C47.1271,13.31 47.0681,13.362 47.023,13.334 C46.9164,13.345 47.0063,13.335 46.7886,13.304 C46.4042,13.248 45.8415,13.569 45.6141,13.702 C45.5971,13.709 45.4594,13.761 45.456,13.805 C45.4726,13.935 45.5454,14.078 45.4093,14.152 C45.3482,14.194 44.6604,14.308 44.5596,14.317 C44.4845,14.319 44.4038,14.324 44.3145,14.317 C44.2427,14.598 44.4053,14.696 43.8664,14.654 C43.8372,14.741 43.7246,14.811 43.5765,14.803 C43.3663,14.77 43.1787,14.714 43.0229,14.61 C42.9745,14.62 42.8912,14.606 42.8421,14.597 C42.8393,14.626 42.8445,14.661 42.8497,14.69 C42.866,14.722 42.8332,14.902 42.959,14.931 C42.9564,14.956 42.9625,14.988 42.9659,15.012 C42.9103,15.038 42.6976,15.06 42.5512,15.042 C42.432,15.043 42.1017,14.952 42.0487,14.892 C41.8631,14.906 41.3699,14.952 41.3633,15.061 C41.3658,15.077 41.3825,15.095 41.3854,15.11 C41.4144,15.281 42.2075,15.436 42.5123,15.512 C42.586,15.526 42.625,15.589 42.7381,15.611 C42.7645,15.788 43.0116,16.273 43.3925,16.298 C43.4008,16.386 43.5133,16.371 43.5165,16.489 C43.519,16.532 43.4811,16.62 43.4566,16.667 C43.4678,16.667 43.4811,16.657 43.4907,16.651 C43.4958,16.716 43.5314,16.947 43.5337,16.992 C43.5557,17.23 43.2301,17.19 43.239,17.449 C43.1944,17.445 42.9096,17.487 42.7787,17.484 C42.6018,17.464 42.474,17.382 42.2539,17.403 C41.9484,17.397 41.6666,17.367 41.3533,17.356 C41.2798,17.344 41.0936,17.304 41.0292,17.265 C40.7366,17.26 40.469,17.242 40.1778,17.228 C40.0877,17.249 39.95,17.175 39.8909,17.166 C39.8009,17.171 39.15,17.415 39.14,17.48 C39.1387,17.579 39.3566,17.771 39.3674,17.973 C39.3833,18.3 39.221,18.642 39.2281,18.968 C39.2293,19.045 39.0336,19.08 39.0252,19.264 C39.0313,19.352 39.1795,19.462 39.3401,19.459 C39.3376,19.758 39.359,19.986 39.3641,20.269 C39.3673,20.31 39.3949,20.42 39.5242,20.41 C39.8112,20.431 40.0208,20.31 40.3549,20.317 C40.7986,20.357 40.8383,20.947 41.1303,20.979 C41.5671,20.963 41.7773,20.67 42.2505,20.679 C42.3239,20.681 42.6594,20.627 42.8389,20.671 C42.8432,20.671 42.8424,20.654 42.8375,20.654 C43.2239,20.771 43.228,20.371 43.4592,20.262 C43.8479,20.104 43.9329,19.762 44.1624,19.515 C44.0901,19.487 43.9723,19.423 43.9657,19.336 C43.966,19.049 44.447,18.57 44.7764,18.531 C45.1648,18.482 45.5429,18.43 45.6361,18.192 C45.594,18.117 45.5395,17.987 45.5064,17.907 C45.4942,17.711 45.7577,17.621 46.0361,17.643 C46.3856,17.682 46.3057,17.805 46.7013,17.835 C47.0981,17.867 47.2862,17.681 47.6146,17.593 C47.7495,17.562 47.7576,17.4 48.0756,17.436 C48.7275,17.506 49.1508,17.874 49.2142,18.329 C49.2444,18.405 49.5171,18.494 49.6411,18.595 C49.9477,18.84 50.0631,18.95 50.6002,19.106 C50.6099,19.171 50.8661,19.26 50.9252,19.268 C50.9581,19.327 51.7742,20.037 51.8139,20.054 C51.8645,20.144 51.9852,20.243 52.0147,20.422 C52.0216,20.552 51.9786,20.748 51.7777,20.728 C51.7736,20.771 51.8581,20.815 51.9641,20.836 C52.1929,20.85 52.1709,20.593 52.2936,20.493 C52.2936,20.493 52.4168,20.383 52.4196,20.329 C52.4001,20.161 52.2644,20.231 52.2453,20.067 C52.2303,19.959 52.2188,19.768 52.4173,19.783 C52.6067,19.814 52.6982,19.975 52.9407,20.033 C52.9552,19.772 52.4831,19.533 52.1517,19.356 C52.0661,19.314 51.6757,19.195 51.7097,19.058 C51.7161,19.028 51.7227,18.995 51.7289,18.965 C51.4868,18.949 51.344,18.972 51.0831,18.857 C50.9751,18.791 50.775,18.474 50.6869,18.299 C50.6407,18.201 50.4741,17.968 50.2163,17.872 C49.9976,17.807 49.8557,17.71 49.8333,17.53 C49.8193,17.466 49.8421,17.389 49.8739,17.324 C49.8441,17.32 49.7745,17.263 49.7826,17.243 C49.7498,17.127 50.1096,17.161 50.2953,17.101 C50.3734,17.179 50.3329,17.418 50.5469,17.447 C50.7079,17.485 50.8685,17.493 51.0303,17.513 C51.0713,17.795 51.626,18.349 51.9798,18.41 C52.0401,18.445 52.1321,18.424 52.1993,18.442 C52.2234,18.599 52.465,18.671 52.7004,18.772 C52.9208,18.906 53.2778,19.191 53.3205,19.357 C53.3212,19.452 53.3543,19.564 53.3627,19.67 C53.3898,19.921 53.3291,19.937 53.5321,20.117 C53.6815,20.251 53.8097,20.374 53.9006,20.553 C53.9013,20.575 53.9487,20.689 54.0068,20.701 C54.0913,20.704 54.1793,20.724 54.2626,20.738 C54.2295,20.8 54.1093,20.971 54.1142,21.084 C54.1462,21.36 54.5151,21.747 54.7569,21.791 C54.8257,21.785 54.8941,21.813 54.9633,21.82 C54.7954,21.708 54.9259,21.542 54.9185,21.458 C54.9119,21.346 54.819,21.081 54.7763,21.013 C54.7763,20.984 54.7641,20.945 54.7635,20.916 C54.8282,20.982 55.0188,21.281 55.1907,21.345 C55.198,21.345 55.2154,21.347 55.2207,21.348 C55.2558,21.253 55.3558,21.157 55.4304,21.127 C55.4103,21.094 55.3798,21.041 55.3596,21.009 C55.2413,20.995 54.8075,20.622 54.8071,20.59 C54.789,20.562 54.8411,20.521 54.8453,20.454 C54.761,20.364 54.6495,20.241 54.5313,20.145 C54.5367,20.092 54.5994,20.037 54.6745,20.04 C54.8058,20.064 54.8671,20.227 55.0759,20.281 C55.1026,20.193 55.0847,20.114 55.0385,20.019 C55.2103,20.003 55.2568,19.92 55.4852,19.947 C55.7344,20.01 55.7753,20.118 55.98,20.169 C56.1729,20.189 56.2617,20.236 56.4264,20.2 C56.5657,20.185 56.7918,20.233 56.9007,20.221 C56.9745,20.231 57.0009,20.25 57.0641,20.21 C56.9593,20.085 56.5865,19.866 56.5446,19.626 C56.5206,19.467 56.719,19.279 56.8245,19.206 C56.81,19.113 56.7843,19.012 56.7706,18.915 C56.791,18.838 56.81,18.941 56.8221,18.778 C56.7979,18.671 56.9272,18.65 57.0514,18.654 C57.0193,18.607 57.0371,18.533 57.0053,18.486 C57.2837,18.471 57.2153,18.085 57.4948,18.153 C57.5979,18.167 57.9048,18.431 58.2399,18.553 C58.2991,18.564 58.0168,18.629 58.0579,18.676 C58.2724,18.928 58.4931,19.181 58.5942,19.214 C58.7708,19.259 59.245,19.185 59.3033,19.12 C59.2748,19.113 58.987,18.982 58.987,18.981 C58.9282,18.97 58.7782,18.897 58.7607,18.765 C58.7426,18.679 59.4609,18.662 59.7205,18.655 C59.7205,18.655 59.6566,18.762 59.5783,18.763 C59.6169,18.824 59.984,19.193 59.3807,19.154 C59.8208,19.866 60.8957,20.26 61.1256,21.11 C61.1457,21.11 61.1526,21.099 61.162,21.117 C61.0304,21.14 60.9299,21.265 60.7361,21.198 C60.5409,21.141 60.3493,21.092 60.15,21.017 C60.0132,20.981 59.6029,20.79 59.5647,20.643 C59.3112,20.58 59.2827,20.425 58.9793,20.327 C58.7569,20.28 58.4671,20.206 58.3134,20.253 C58.1465,20.318 58.0057,20.395 57.8514,20.36 C57.7127,20.335 57.5956,20.304 57.4592,20.272 C57.3861,20.26 57.1545,20.165 57.16,20.263 C57.1802,20.337 57.2468,20.331 57.2868,20.423 C57.0722,20.469 55.8863,20.055 55.9102,20.418 C55.9125,20.484 56.0693,20.492 56.1543,20.52 C56.1353,20.579 56.1585,20.587 56.1757,20.662 C56.1956,20.902 56.0602,20.838 55.9317,20.933 C56.1585,21.057 56.3094,21.195 56.459,21.421 C56.3583,21.547 56.7749,21.85 56.8665,21.955 C56.8544,21.984 56.8161,22.023 56.7704,22.028 C56.8174,22.055 56.8663,22.044 56.9198,22.054 C57.1448,21.971 57.3426,22.384 57.5964,22.443 C57.8343,22.478 57.7206,22.146 57.9996,22.176 C58.2711,22.24 58.569,22.679 58.8357,22.745 C59.2018,22.813 59.2181,22.634 59.3764,22.499 C59.4291,22.56 59.5041,22.642 59.6271,22.669 C59.7409,22.702 59.7025,22.623 59.8221,22.586 C59.8417,22.628 59.8269,22.69 59.8463,22.733 C59.8193,22.763 59.7696,22.781 59.791,22.862 C59.8038,23.046 59.8954,23.256 59.9441,23.514 C59.9904,23.849 59.7875,23.886 59.746,24.176 C59.7262,24.47 59.6902,24.621 59.6617,24.954 C59.6342,25.005 59.561,24.997 59.5857,25.109 C59.5989,25.144 59.6152,25.188 59.6324,25.232 C59.6291,25.223 59.6238,25.213 59.6208,25.205 C59.468,25.224 59.4408,25.21 59.2581,25.176 C58.9691,25.131 58.7085,24.945 58.4625,24.904 C58.0436,24.845 58.2861,25.028 57.8698,24.973 C57.3798,24.895 56.7545,24.583 56.2781,24.333 C56.0269,24.198 55.7351,24.291 55.5656,24.085 C55.5037,24.003 55.3441,23.911 55.3073,23.683 C55.2001,23.665 55.0853,23.659 54.9801,23.643 C54.9631,23.641 54.9399,23.621 54.9321,23.606 C54.4776,23.707 54.118,23.671 54.1572,24.202 C54.1663,24.295 54.1786,24.424 54.1855,24.536 C54.1806,24.606 54.0447,24.768 53.8943,24.756 C52.7305,24.621 51.9742,23.479 50.8494,23.358 C50.6906,23.352 50.5385,23.334 50.3721,23.319 C50.043,23.289 49.5828,22.888 49.5395,22.461 C49.5112,22.211 49.7156,22.102 49.7148,21.842 C49.7041,21.716 49.4753,21.604 49.4611,21.456 C49.4465,21.232 49.6713,21.308 49.6828,21.048 C49.5952,21.07 49.5232,21.131 49.4341,21.124 C49.1368,21.109 49.2399,20.799 48.8906,20.781 C48.5575,20.74 48.5729,20.99 48.211,20.971 C48.0191,20.955 47.9127,20.831 47.6709,20.813 C47.4049,20.791 47.1416,21.021 46.9381,21.007 C46.8197,20.993 46.5517,20.817 46.293,20.795 C45.4602,20.739 44.317,21.037 43.578,21.331 C43.3581,21.435 42.9785,21.58 42.5695,21.57 C41.9102,21.545 41.6862,21.438 41.1856,21.099 C40.9979,21.243 40.948,21.662 40.7923,21.841 C40.7091,21.889 40.5841,21.955 40.4701,22.01 C39.995,22.545 39.4775,22.583 38.9595,23.167 C38.732,23.44 38.6935,24.009 38.7519,24.267 C38.5322,24.537 38.2028,24.961 37.9228,25.125 C37.5614,25.299 36.8967,25.502 36.5996,25.865 C36.1209,26.467 35.7704,27.142 35.4982,27.902 C35.3921,28.188 34.9388,28.434 34.9314,28.805 C34.9352,29.601 35.373,30.15 35.383,31.011 C35.3783,31.494 35.0263,32.403 34.5989,32.627 C34.7339,32.915 35.0937,33.257 35.0983,33.537 C35.1011,33.663 35.1907,33.859 35.1953,34.153 C35.1877,34.142 35.1511,34.154 35.1363,34.153 C35.2104,34.234 35.2957,34.304 35.39,34.422 C35.4021,34.477 36.4151,35.398 36.5585,35.499 C37.0546,35.893 37.1633,36.336 37.5277,36.899 C37.965,37.523 38.803,37.392 39.5845,38.553 C39.629,38.609 39.9396,38.709 40.1569,38.702 C40.9214,38.698 41.4253,38.328 42.2002,38.306 C42.6102,38.309 43.0903,38.578 43.3779,38.577 C43.6964,38.578 43.7656,38.331 44.0644,38.231 C44.8039,37.985 45.8778,37.501 46.8233,37.476 C47.5925,37.484 46.9362,38.641 47.5087,38.66 C47.6821,38.657 48.3017,38.556 48.6374,38.544 C49.2552,38.536 49.5509,38.883 49.7582,39.288 C49.567,39.443 49.5695,39.979 49.5573,40.206 C49.557,40.262 49.4949,40.324 49.5494,40.478 C49.4549,40.551 49.1215,41.017 49.1149,41.219 C49.1085,42.079 50.0106,42.873 50.4472,43.443 C50.6421,43.725 50.5791,44.13 50.6842,44.478 C50.8241,44.896 50.9547,45.151 51.0205,45.882 C51.0413,46.262 51.204,46.404 51.1686,46.832 C51.0877,47.727 50.141,48.252 50.0157,49.412 C49.918,50.492 50.3426,50.998 50.727,51.685 C50.8377,51.882 51.0115,51.93 50.9874,52.148 C50.9568,52.269 50.9487,52.416 50.9334,52.555 C50.7554,53.877 51.0805,54.303 51.5171,54.687 C51.6267,54.784 51.7757,55.388 51.9781,55.787 C52.036,55.929 51.9961,56.087 51.8502,56.219 C51.9697,56.327 51.8979,56.508 51.8391,56.769 C51.8638,56.748 51.9053,56.719 51.9989,56.675 C52.0537,56.798 52.1641,56.877 52.4001,56.824 C52.9497,56.681 53.1744,56.264 53.7596,56.111 C53.9149,56.081 53.9526,56.165 54.105,56.138 C54.2343,56.102 54.3469,56.005 54.5255,55.944 C54.6166,55.7 55.0344,55.711 55.2818,55.554 C55.8841,55.152 56.1388,54.729 56.5446,54.226 C56.8245,53.919 56.9641,53.855 57.3085,53.499 C57.4742,53.279 57.7832,52.926 57.8746,52.55 C57.8993,52.427 57.8497,52.354 57.7651,52.324 C57.9769,51.94 57.7931,52.053 58.2618,51.711 C58.4188,51.629 58.6165,51.566 58.7625,51.393 C58.9116,51.231 59.0556,50.652 59.1214,50.372 C59.2198,49.853 58.9203,50.037 59.001,49.645 C59.0412,49.444 59.243,49.182 59.4215,49.117 C59.7424,48.129 61.0322,47.964 61.2634,46.821 C61.287,46.712 61.3064,46.651 61.2313,46.555 C61.2909,46.236 61.3226,45.93 61.3792,45.612 C61.398,45.504 61.4352,45.378 61.4614,45.261 C61.4723,45.231 61.5647,45.108 61.5647,45.023 C61.6156,44.729 61.2559,44.472 61.3079,43.944 C61.3618,43.474 61.2139,43.117 61.2667,42.629 C61.3,42.179 61.5953,42.044 61.7058,41.645 C61.8714,41.029 62.1464,41.064 62.4111,40.689 C62.5002,40.548 62.5783,39.958 62.6812,39.828 C62.9685,39.518 63.2137,39.23 63.4735,38.885 C63.8342,38.403 63.9355,37.996 64.2112,37.367 C64.4396,36.836 64.8045,35.59 64.8056,34.731 C64.804,34.648 64.7837,34.606 64.7532,34.508 C64.5009,34.659 64.2756,34.894 63.9467,34.991 C63.726,35.025 63.7299,34.923 63.6,34.99 C63.4723,35.051 63.4721,35.252 63.328,35.253 C63.1786,35.25 63.0485,34.764 62.9205,34.596 C63.0246,34.396 62.9173,34.368 62.9217,34.104 C62.5783,34.072 62.4966,33.452 62.3311,33.242 C62.1454,33.022 62.026,33.008 61.8458,32.742 C61.6304,32.436 61.7526,32.057 61.5342,31.637 C61.3438,31.303 61.0936,30.922 60.9464,30.471 C60.9411,30.173 60.9202,29.906 60.895,29.621 C60.7245,29.411 60.3773,29.045 60.3974,28.71 C59.9733,27.721 59.5185,26.787 59.0524,25.805 C59.044,25.727 59.0399,25.614 59.0241,25.536 C59.2486,25.853 59.5395,26.564 59.8056,26.662 C59.8237,26.505 59.9148,26.148 59.9428,25.918 C59.9409,26.114 59.9306,26.299 59.9334,26.401 C59.9473,26.441 60.1365,26.733 60.1726,26.809 C60.3449,27.085 60.4649,27.264 60.6226,27.571 C60.667,27.662 60.7614,27.816 60.8163,27.97 C60.8369,28.057 60.852,28.293 60.9207,28.405 C60.9553,28.455 61.1071,28.444 61.1501,28.513 C61.1836,28.564 61.2366,28.663 61.3105,28.736 C61.3774,29.032 61.5327,29.131 61.578,29.502 C61.609,30.116 61.7164,30.434 62.1039,30.598 C62.1217,30.982 62.3714,31.498 62.5053,31.689 C62.6346,31.887 62.8393,32.066 62.8166,32.413 C62.8074,32.542 62.7259,32.849 62.8436,32.869 C62.8441,33.18 62.8469,33.503 62.9413,33.749 C63.0125,33.924 62.9252,33.899 62.956,33.926 C62.9889,33.954 63.2141,34.13 63.2544,34.149 C63.2799,34.124 63.2864,34.117 63.3121,34.093 C63.5048,34.085 63.527,33.846 63.6756,33.663 C63.8602,33.683 63.8837,33.703 63.9992,33.725 C64.1002,33.64 64.4098,33.21 64.4895,33.164 C64.6987,33.089 64.8242,32.993 64.9858,32.841 C64.9552,32.814 64.9566,32.749 64.9532,32.707 C64.9585,32.389 65.3022,32.385 65.4679,32.329 C65.456,32.159 65.4758,31.926 65.6074,31.943 C65.8269,31.972 65.5185,31.558 65.7397,31.565" id="Fill-190" fill="#F9CF5E" sketch:type="MSShapeGroup" mask="url(#mask-2)"></path>
            <path d="M55.2208,21.349 L55.2201,21.349 L55.2208,21.349" id="Fill-191" fill="#F9CF5E" sketch:type="MSShapeGroup" mask="url(#mask-2)"></path>
            <path d="M47.87,6.077 C47.7799,6.033 47.6904,5.989 47.6,5.946 C47.5648,5.945 47.5397,5.93 47.5033,5.926 C47.5829,5.964 47.701,6.022 47.87,6.077" id="Fill-192" fill="#F9CF5E" sketch:type="MSShapeGroup" mask="url(#mask-2)"></path>
            <path d="M49.3361,6.868 C49.3497,6.867 49.3603,6.864 49.371,6.861 C49.0956,6.708 48.8181,6.558 48.5377,6.413 C48.435,6.381 48.3009,6.341 48.2032,6.316 C48.2795,6.45 48.9841,6.703 49.3361,6.868" id="Fill-193" fill="#F9CF5E" sketch:type="MSShapeGroup" mask="url(#mask-2)"></path>
            <path d="M47.5907,5.941 C47.4516,5.875 47.3119,5.81 47.1717,5.746 C47.1623,5.84 47.3638,5.862 47.5907,5.941" id="Fill-194" fill="#F9CF5E" sketch:type="MSShapeGroup" mask="url(#mask-2)"></path>
            <path d="M48.4131,6.347 C48.2838,6.281 48.1526,6.217 48.0218,6.153 C47.9979,6.151 47.9834,6.155 47.9874,6.17 C48.0327,6.308 48.2465,6.324 48.4131,6.347" id="Fill-195" fill="#F9CF5E" sketch:type="MSShapeGroup" mask="url(#mask-2)"></path>
            <path d="M47.2761,5.919 C47.1338,5.829 46.9694,5.756 46.7586,5.644 C46.5862,5.616 46.9959,5.831 47.2761,5.919" id="Fill-196" fill="#F9CF5E" sketch:type="MSShapeGroup" mask="url(#mask-2)"></path>
            <path d="M46.7841,5.647 C46.7793,5.647 46.7663,5.647 46.7602,5.644 C46.7698,5.649 46.78,5.654 46.7892,5.658 C46.7966,5.658 46.7915,5.647 46.7841,5.647" id="Fill-197" fill="#F9CF5E" sketch:type="MSShapeGroup" mask="url(#mask-2)"></path>
            <path d="M46.7841,5.647 L46.7841,5.647 L46.7841,5.647" id="Fill-198" fill="#F9CF5E" sketch:type="MSShapeGroup" mask="url(#mask-2)"></path>
            <path d="M46.7447,5.637 C46.7496,5.637 46.7638,5.644 46.7587,5.644 L46.7602,5.644 C46.7656,5.644 46.75,5.637 46.7447,5.637" id="Fill-199" fill="#F9CF5E" sketch:type="MSShapeGroup" mask="url(#mask-2)"></path>
            <path d="M38.8341,13.562 C38.9241,13.55 39.1112,13.55 39.1917,13.533 C39.3508,13.483 39.5463,13.311 39.858,13.321 C40.0516,13.331 40.2289,13.361 40.3422,13.291 C40.4865,13.22 40.3512,13.07 40.341,12.986 C40.3359,12.865 40.3232,12.741 40.3165,12.617 C40.3134,12.532 40.635,12.562 40.6395,12.476 C40.6146,12.287 40.4124,12.036 39.979,12.003 C39.8932,11.998 39.7504,11.996 39.6649,11.986 C39.477,11.983 39.1176,12.084 39.1179,12.159 C39.1239,12.212 39.1687,12.247 39.237,12.302 C39.1412,12.358 38.8131,12.391 38.7014,12.396 C38.6571,12.386 38.4886,12.366 38.5003,12.505 C38.492,12.612 38.6828,12.675 38.8696,12.748 C38.8094,13.003 38.3389,13.013 38.3481,13.287 C38.3473,13.415 38.6054,13.536 38.8341,13.562" id="Fill-200" fill="#F9CF5E" sketch:type="MSShapeGroup" mask="url(#mask-2)"></path>
            <path d="M39.8848,10.932 C40.0777,10.958 40.2246,10.848 40.2139,10.724 C40.0923,10.727 39.7748,10.742 39.7659,10.806 C39.7713,10.848 39.8387,10.931 39.8848,10.932" id="Fill-201" fill="#F9CF5E" sketch:type="MSShapeGroup" mask="url(#mask-2)"></path>
            <path d="M40.492,11.262 C40.4846,11.289 40.4885,11.317 40.4987,11.344 C40.4948,11.354 40.3834,11.415 40.3808,11.468 C40.3847,11.511 40.5468,11.549 40.6615,11.569 C40.6531,11.6 40.6707,11.629 40.669,11.662 C40.6438,11.681 40.627,11.71 40.6013,11.73 C40.6051,11.786 40.6107,11.839 40.6142,11.896 C40.654,11.89 40.7207,11.907 40.7614,11.905 C40.7219,11.871 40.6699,11.833 40.7491,11.75 C40.7968,11.764 40.9108,11.819 41.0648,11.822 C41.0203,11.908 41.0759,11.927 41.0806,12.02 C41.0834,12.106 40.9077,12.144 40.9149,12.229 C40.9191,12.315 41.0454,12.323 41.216,12.333 C41.3376,12.336 41.4466,12.307 41.6334,12.31 C41.676,12.326 41.7523,12.329 41.7983,12.333 C41.7648,12.373 41.6775,12.386 41.683,12.472 C41.6919,12.578 41.943,12.626 42.1321,12.621 C42.1315,12.674 42.1415,12.728 42.1461,12.781 C42.0577,12.885 41.6736,12.937 41.3353,12.927 C41.3443,13.045 41.497,13.094 41.5072,13.253 C41.51,13.418 41.0213,13.391 41.0121,13.561 C41.0182,13.582 41.0798,13.613 41.1088,13.623 C41.1844,13.614 41.1785,13.571 41.2911,13.579 C41.5072,13.589 41.5744,13.727 41.8221,13.746 C41.9285,13.748 42.0781,13.725 42.1463,13.659 C42.1519,13.685 42.1749,13.716 42.1903,13.739 C42.187,13.904 41.8378,13.82 41.57,13.84 C41.5239,13.847 40.9818,14.181 40.9433,14.216 C40.9487,14.237 40.9428,14.264 40.9482,14.285 C40.9815,14.296 41.0441,14.291 41.0796,14.292 C41.1445,14.256 41.2083,14.202 41.3359,14.218 C41.4063,14.209 41.528,14.219 41.598,14.234 C41.6014,14.148 41.6891,14.049 41.8824,14.062 C41.9888,14.064 42.0885,14.142 42.2225,14.151 C42.5091,14.176 42.9853,14.115 43.1734,14.122 C43.4255,14.142 43.6591,14.157 43.9035,14.182 C44.1307,14.199 44.2321,14.156 44.3945,14.061 C44.3912,14.036 44.3836,14.008 44.3866,13.984 C44.2955,13.99 44.2056,13.95 44.0205,13.907 C44.1507,13.779 44.5632,13.729 44.552,13.523 C44.5472,13.417 44.364,13.306 44.1534,13.282 C44.0313,13.28 44.0383,13.261 43.9248,13.304 C43.9501,13.291 43.9837,13.283 44.0094,13.269 C43.9467,13.28 43.93,13.32 43.8014,13.325 C43.779,13.314 43.7984,13.274 43.7937,13.249 C43.8408,13.25 43.8815,13.214 43.8757,13.182 C43.8684,13.097 43.6739,13.023 43.6548,12.94 C43.6187,12.661 43.1602,12.564 42.8479,12.375 C42.6154,12.23 42.6579,11.988 42.2993,11.896 C42.1833,11.852 42.0675,11.902 41.8809,11.851 C41.9098,11.816 41.9572,11.782 42.0191,11.78 C41.9971,11.562 42.5348,11.491 42.4424,11.202 C42.0903,11.163 41.7398,11.139 41.3827,11.114 C41.3623,11.089 41.3445,11.052 41.3203,11.03 C41.368,10.885 41.7483,10.934 41.7454,10.807 C41.7375,10.788 41.6171,10.712 41.5573,10.704 C41.387,10.694 41.2126,10.687 41.0357,10.663 C40.9449,10.657 40.7614,10.717 40.7586,10.771 C40.7619,10.824 40.7035,10.85 40.7003,10.936 C40.5949,10.923 40.4452,10.953 40.4564,11.038 C40.4508,11.059 40.5206,11.097 40.5516,11.105 C40.546,11.126 40.5137,11.169 40.4836,11.161 C40.4552,11.17 40.3513,11.126 40.3488,11.061 C40.2683,11.057 40.1383,11.04 40.0565,11.043 C40.0626,11.181 40.2057,11.21 40.492,11.262" id="Fill-202" fill="#F9CF5E" sketch:type="MSShapeGroup" mask="url(#mask-2)"></path>
            <path d="M41.2082,12.481 C41.1165,12.509 41.0883,12.547 41.0896,12.6 C41.1456,12.603 41.2374,12.607 41.2932,12.614 C41.293,12.571 41.297,12.53 41.3006,12.487 C41.2767,12.479 41.2337,12.478 41.2082,12.481" id="Fill-203" fill="#F9CF5E" sketch:type="MSShapeGroup" mask="url(#mask-2)"></path>
            <path d="M36.5104,8.228 C36.5224,8.229 36.5371,8.221 36.5458,8.212 C36.5287,7.991 35.8829,8.027 35.8587,7.789 C35.8613,7.759 35.915,7.728 35.9654,7.72 C35.8063,7.708 35.6986,7.745 35.532,7.75 C35.356,7.739 35.2152,7.759 35.2033,7.641 C35.1374,7.657 35.1359,7.658 35.0042,7.638 C34.9604,7.662 34.9216,7.677 34.9343,7.756 C34.7594,7.686 34.5656,7.777 34.3175,7.774 C34.1587,7.793 34.0097,7.748 33.7364,7.749 C33.7363,7.779 33.7148,7.804 33.7363,7.83 C33.6738,7.812 33.6369,7.802 33.4813,7.774 C33.3589,7.796 33.1865,7.807 33.0453,7.827 C32.9524,7.829 32.8803,7.782 32.8103,7.756 C32.7554,7.782 32.7663,7.797 32.8081,7.861 C32.7345,7.883 32.611,7.922 32.4804,7.914 C32.3727,7.919 32.2042,7.83 32.2126,7.759 C32.2086,7.697 32.1404,7.694 32.1075,7.642 C32.067,7.645 32.0044,7.643 31.9632,7.646 C31.8403,7.637 31.7776,7.727 31.6344,7.741 C31.6368,7.768 31.63,7.778 31.6321,7.805 C31.5389,7.776 31.4363,7.769 31.2711,7.8 C31.3146,7.904 31.9716,7.965 32.1888,7.952 C32.191,7.982 32.2109,8.004 32.2603,8.016 C32.0544,8.05 31.5793,8.1 31.312,8.113 C31.4948,8.18 31.7983,8.104 32.0928,8.125 C32.0408,8.226 31.9988,8.271 31.9947,8.374 C31.948,8.378 31.8762,8.403 31.8285,8.419 C32.2277,8.41 32.3651,8.523 32.6311,8.555 C33.1311,8.618 33.601,8.688 34.2865,8.699 C34.9177,8.686 35.2558,8.564 35.6986,8.506 C35.9395,8.478 36.3707,8.343 36.5104,8.228" id="Fill-204" fill="#F9CF5E" sketch:type="MSShapeGroup" mask="url(#mask-2)"></path>
            <path d="M6.482,30.576 C6.6314,30.581 6.831,30.549 6.9105,30.349 C6.8282,30.281 6.797,30.109 6.6753,30.059 C6.6032,30.067 6.5841,30.073 6.5126,30.059 C6.4935,30.036 6.5144,29.977 6.5195,29.95 C6.2762,29.98 6.0195,29.827 5.895,29.634 C5.8823,29.596 5.8378,29.474 5.7368,29.471 C5.4005,29.521 5.2409,29.17 4.8349,29.224 C4.431,29.287 4.2359,29.553 4.0774,29.983 C4.084,29.941 4.1153,29.996 4.1507,29.972 C4.2609,29.828 4.493,29.582 4.6583,29.544 C4.7285,29.557 4.7318,29.507 4.7799,29.57 C4.7504,29.622 4.713,29.66 4.7848,29.732 C4.9189,29.698 4.9616,29.706 5.0502,29.696 C5.1838,29.681 5.2318,29.894 5.3659,29.879 C5.4728,29.838 5.4698,29.791 5.5693,29.87 C5.6214,29.907 5.5797,30.005 5.6696,29.995 C5.6772,30.213 5.8345,30.19 5.9943,30.281 C5.9822,30.35 5.9542,30.422 5.8834,30.431 C5.8791,30.459 5.8818,30.497 5.8773,30.525 C6.0735,30.518 6.2458,30.6 6.482,30.576" id="Fill-205" fill="#F9CF5E" sketch:type="MSShapeGroup" mask="url(#mask-2)"></path>
            <path d="M4.4095,30.079 C4.4062,30.107 4.5164,30.061 4.5314,30.063 C4.5426,29.99 4.5483,29.91 4.5483,29.839 C4.5332,29.837 4.532,29.842 4.523,29.83 C4.5213,29.839 4.5149,29.832 4.5055,29.832 C4.5002,29.863 4.5022,29.904 4.4971,29.935 C4.5396,29.935 4.4254,29.986 4.4095,30.079" id="Fill-206" fill="#F9CF5E" sketch:type="MSShapeGroup" mask="url(#mask-2)"></path>
            <path d="M5.7233,31.309 C5.73,31.418 5.7605,31.531 5.8759,31.529 C6.0446,31.492 6.0907,31.456 6.2264,31.41 C6.2124,31.354 6.2241,31.304 6.137,31.276 C6.1459,31.286 6.1586,31.292 6.1569,31.306 C6.0747,31.269 5.9608,31.2 5.8297,31.207 C5.7824,31.24 5.7307,31.254 5.7233,31.309" id="Fill-207" fill="#F9CF5E" sketch:type="MSShapeGroup" mask="url(#mask-2)"></path>
            <path d="M9.4028,31.031 C9.3996,31.2 9.5539,31.202 9.7276,31.196 C9.8131,31.189 9.8851,31.186 9.946,31.085 C9.8989,31.004 9.5956,30.923 9.5514,30.923 C9.5091,30.932 9.4042,30.962 9.4028,31.031" id="Fill-208" fill="#F9CF5E" sketch:type="MSShapeGroup" mask="url(#mask-2)"></path>
            <path d="M7.0175,31.37 C7.0223,31.333 7.0295,31.278 7.0345,31.241 C7.0999,31.291 7.0697,31.235 7.1707,31.232 C7.3225,31.217 7.5768,31.159 7.6949,31.245 C7.7496,31.308 7.7261,31.456 7.8297,31.446 C7.9833,31.43 7.958,31.153 8.12,31.139 C8.1915,31.15 8.1536,31.225 8.2398,31.212 C8.3406,31.21 8.3847,31.149 8.4687,31.068 C8.6214,31.057 8.7761,31.05 8.9362,31.041 C8.8532,30.873 8.7334,30.828 8.6094,30.701 C8.629,30.724 8.6486,30.741 8.6692,30.763 C8.4546,30.621 8.3982,30.366 7.9978,30.389 C7.8659,30.402 7.7847,30.469 7.637,30.481 C7.5085,30.5 7.479,30.389 7.3616,30.392 C7.3192,30.384 7.2712,30.47 7.2636,30.51 C7.267,30.592 7.3186,30.683 7.4052,30.673 C7.4062,30.783 7.3975,30.907 7.4703,31.004 C7.3248,31.109 7.216,31.047 6.9528,31.057 C6.9363,31.068 6.9215,31.116 6.8938,31.125 C6.8828,31.206 6.9333,31.342 7.0175,31.37" id="Fill-209" fill="#F9CF5E" sketch:type="MSShapeGroup" mask="url(#mask-2)"></path>
            <path d="M11.5618,35.322 C11.5625,35.366 11.6479,35.323 11.6916,35.322 C11.7764,35.32 11.8423,35.142 11.8649,35.079 C11.8649,35.044 11.865,34.983 11.865,34.948 L11.7342,34.948 C11.6491,34.949 11.5743,35.13 11.5618,35.322" id="Fill-210" fill="#F9CF5E" sketch:type="MSShapeGroup" mask="url(#mask-2)"></path>
            <path d="M16.4985,41.264 C16.5176,41.44 16.934,41.793 17.198,41.811 C17.4019,41.803 17.6402,41.383 17.6277,41.217 C17.6293,41.187 17.5607,41.042 17.5042,41.038 C17.433,41.037 17.2769,41.242 17.2344,40.99 C17.1202,40.988 16.9776,40.881 16.878,40.805 C16.8592,40.801 16.8304,40.805 16.8116,40.802 C16.6105,40.807 16.4917,40.975 16.4985,41.264" id="Fill-211" fill="#F9CF5E" sketch:type="MSShapeGroup" mask="url(#mask-2)"></path>
            <path d="M16.9259,61.965 C16.8408,61.944 16.8226,61.937 16.7013,61.89 C16.6069,61.853 16.6057,61.904 16.5074,61.879 C16.4588,61.847 16.5219,61.948 16.4227,61.918 C16.4311,61.963 16.4532,61.955 16.4616,62 C16.482,61.969 16.5227,62.013 16.5473,62.029 C16.6469,62.049 16.6555,62.099 16.6807,62.007 C16.7904,62.045 16.9816,62.115 16.9547,62.028 C16.9258,62.009 16.9434,61.995 16.9259,61.965" id="Fill-212" fill="#F9CF5E" sketch:type="MSShapeGroup" mask="url(#mask-2)"></path>
            <path d="M16.4259,61.769 C16.2698,61.741 16.1769,61.708 15.9983,61.619 C16.0046,61.652 16.069,61.686 16.1318,61.73 C16.1469,61.823 16.0787,61.696 16.0188,61.785 C16.0459,61.804 16.0708,61.829 16.0985,61.847 C16.2683,61.859 16.3105,61.821 16.4546,61.831 C16.4269,61.812 16.4424,61.799 16.4259,61.769" id="Fill-213" fill="#F9CF5E" sketch:type="MSShapeGroup" mask="url(#mask-2)"></path>
            <path d="M10.5979,57.259 C10.568,57.243 10.5604,57.268 10.5625,57.303 C10.6342,57.378 10.7066,57.451 10.7788,57.526 C10.7773,57.522 10.776,57.519 10.774,57.516 C10.8009,57.49 10.8009,57.509 10.7733,57.446 C10.7355,57.364 10.6969,57.303 10.5979,57.259" id="Fill-214" fill="#F9CF5E" sketch:type="MSShapeGroup" mask="url(#mask-2)"></path>
            <path d="M5.7542,21.169 C5.7562,21.244 5.7674,21.3 5.8415,21.258 C5.9634,21.217 5.953,21.163 5.985,21.094 C6.0965,20.964 6.2118,20.92 6.3307,20.872 C6.4536,20.819 6.4681,20.892 6.5303,20.84 C6.5855,20.778 6.6333,20.747 6.6968,20.692 C6.4847,20.878 6.0262,21.322 5.7974,21.413 C5.6739,21.484 5.7267,21.296 5.7542,21.169 M6.6618,20.426 C6.6631,20.364 6.7682,20.319 6.8009,20.288 C7.0266,20.132 7.499,19.837 7.7442,19.746 C7.6297,20.2 7.0472,20.286 6.7845,20.391 C6.714,20.387 6.7563,20.385 6.6738,20.443 C6.667,20.456 6.6721,20.465 6.6781,20.474 C6.6657,20.461 6.6501,20.449 6.6618,20.426 M6.6931,20.583 C6.7029,20.563 6.6781,20.552 6.6889,20.532 C6.711,20.533 6.7029,20.563 6.6931,20.583 M10.7081,18.1 C10.6944,18.15 10.7028,18.202 10.686,18.251 C10.691,18.199 10.7023,18.152 10.7081,18.1 M10.7394,17.807 C10.7471,17.807 10.7374,17.82 10.7391,17.827 C10.7328,17.823 10.7471,17.807 10.7394,17.807 M2.7335,27.049 C2.8846,26.996 2.7218,27.174 2.8702,27.112 C2.9442,27.067 2.8986,27.02 2.9732,26.974 C3.2527,26.894 3.1573,27.321 3.3869,27.073 C3.2729,26.931 3.369,26.874 3.4208,26.712 C3.4129,26.708 3.3938,26.699 3.3451,26.686 C3.4658,26.565 3.6157,26.539 3.7282,26.454 C3.7363,26.493 3.7201,26.533 3.7618,26.545 C3.8631,26.488 3.8621,26.411 3.9603,26.379 C4.1533,26.327 4.181,26.603 4.3238,26.574 C4.4488,26.534 4.4003,26.379 4.5273,26.346 C4.8894,26.262 4.6799,27.104 4.7709,27.548 C4.8055,27.766 4.8981,27.807 4.9821,28.022 C5.03,28.162 4.9915,28.371 5.1302,28.35 C5.2893,28.324 5.3645,28.04 5.397,27.734 C5.4156,27.472 5.3578,27.362 5.3461,27.179 C5.3515,27.157 5.3481,27.129 5.3537,27.107 C5.4067,26.645 5.1703,26.566 5.2288,26.101 C5.3675,25.06 5.8293,24.905 6.3641,24.416 C6.3493,24.411 6.3477,24.41 6.3411,24.397 C6.417,24.306 6.4111,24.266 6.5389,24.173 C6.6507,24.129 6.6894,24.003 6.821,23.942 C6.89,23.899 6.9301,23.817 6.9673,23.758 C6.9075,23.733 6.9098,23.732 6.8601,23.69 C6.8734,23.657 6.8643,23.611 6.8782,23.578 C7.006,23.551 7.0086,23.561 7.062,23.397 C6.988,23.399 6.9614,23.407 6.9386,23.311 C7.0078,23.287 7.0877,23.216 7.1047,23.107 C7.107,23.063 7.1211,23.013 7.1275,22.969 C7.0953,22.979 7.089,22.987 7.0547,22.987 C6.988,22.89 7.075,22.92 7.0902,22.78 C7.1256,22.645 7.107,22.421 7.1239,22.314 C7.1239,22.314 7.1369,22.201 7.1674,22.135 C7.1551,22.271 7.2142,22.447 7.1989,22.554 C7.1788,22.599 7.1803,22.657 7.1728,22.706 C7.1623,22.73 7.1727,22.786 7.2002,22.778 C7.2404,22.761 7.5268,22.229 7.5411,22.149 C7.5637,22.045 7.5055,22.024 7.4929,21.915 C7.52,21.896 7.5443,21.862 7.5586,21.832 C7.5724,21.869 7.5767,21.947 7.6131,21.921 C7.7101,21.89 7.9761,21.372 8.0231,21.255 C8.0231,21.255 7.9537,21.186 7.9567,21.119 C7.9753,21.084 8.0018,21.033 8.0399,21.007 C8.0825,20.997 8.0926,21.004 8.1355,20.994 C8.2846,20.94 8.3943,20.923 8.5687,20.813 C8.4623,20.754 8.3897,20.852 8.2904,20.887 C8.2433,20.899 8.2293,20.914 8.1805,20.917 C8.4496,20.687 8.7858,20.661 9.0716,20.398 C9.1258,20.455 9.3056,20.34 9.4672,20.26 C9.458,20.231 9.4692,20.192 9.4851,20.164 C9.4848,20.165 9.3649,20.286 9.3363,20.293 C9.2504,20.308 9.2551,20.143 9.2663,20.077 C9.2206,20.085 9.2356,20.007 9.2427,19.968 C9.3547,19.443 9.7462,19.48 9.9896,19.214 C10.1262,19.12 10.1412,19.09 10.2876,19.05 C10.449,18.998 10.6147,18.891 10.7283,18.724 C10.719,18.687 10.7013,18.679 10.6921,18.642 C10.7053,18.642 10.7033,18.613 10.6924,18.605 C10.6997,18.594 10.6936,18.576 10.7012,18.565 C10.727,18.584 10.782,18.54 10.826,18.535 C10.9094,18.508 11.1994,18.481 11.3396,18.387 C11.4535,18.262 11.4946,18.11 11.7016,18.046 C11.6596,18.249 11.6411,18.256 11.86,18.204 C11.5456,18.31 11.0652,18.617 10.9924,18.92 C10.9846,19.039 11.0999,19.223 11.1867,19.206 C11.2994,19.178 11.584,18.768 11.8787,18.621 C11.9371,18.575 12.9283,18.047 12.9619,17.932 C12.997,17.776 12.6351,17.827 12.5533,17.859 C12.1623,17.923 11.6868,17.727 11.7029,17.406 C11.7083,17.422 11.72,17.425 11.7459,17.372 C11.7334,17.373 11.7174,17.374 11.7016,17.375 L11.7016,17.375 L11.6991,17.375 C11.625,17.38 11.5245,17.391 11.4349,17.412 C11.5552,17.293 12.0083,17.119 12.0649,16.848 C12.1204,16.6 11.709,16.742 11.4455,16.825 C10.8786,16.96 10.5615,17.425 10.2036,17.587 C10.4324,17.193 10.6437,17.244 10.9922,16.888 C11.1971,16.651 11.0917,16.59 11.3882,16.425 C11.893,16.138 12.1323,16.149 12.6508,16.034 C13.3086,15.865 13.7988,16.009 14.3319,15.425 C14.6012,15.156 15.6682,14.942 15.7514,14.621 C15.8095,14.389 15.6954,14.331 15.5997,14.203 C15.4902,14.244 15.6575,14.095 15.5152,14.083 C15.5025,14.045 15.5325,14.009 15.5394,13.969 C15.1866,14.173 14.4848,14.474 14.1462,14.554 C14.1037,14.565 14.0365,14.565 14.0187,14.548 C14.3148,14.372 15.0889,14.126 15.2301,13.931 C15.2528,13.883 15.1357,13.904 15.1336,13.85 C14.7905,13.963 14.1272,14.026 14.1962,13.709 C14.1895,13.701 14.1957,13.689 14.2033,13.681 C13.9073,13.756 13.7691,13.673 13.6247,13.633 C13.6922,13.591 13.826,13.533 13.8637,13.418 C13.8928,13.32 13.795,13.301 13.84,13.196 C13.7075,13.219 13.3818,13.158 13.5213,12.954 C13.7051,12.71 13.1945,12.844 13.2273,12.626 C13.1955,12.656 13.124,12.605 13.0545,12.587 C12.9595,12.651 12.7017,12.809 12.7014,12.91 C12.688,13.074 12.4747,13.18 12.2265,13.354 C12.071,13.455 11.8908,13.653 11.776,13.694 C11.5751,13.782 11.5227,13.557 11.386,13.596 C11.1963,13.671 11.4356,13.237 11.4705,13.078 C11.5025,12.879 10.8842,13.282 10.9863,12.987 C10.7059,13.099 10.8123,12.94 10.5235,13.062 C10.4518,13.141 10.4042,13.122 10.308,13.169 C10.1875,13.224 10.0998,13.251 10.0209,13.273 C9.7388,13.581 9.4636,13.895 9.1938,14.214 C9.216,14.239 9.2351,14.265 9.2211,14.301 C9.1638,14.507 8.8769,14.71 8.7483,14.806 C8.8507,15.072 9.0202,14.816 9.0732,14.912 C9.1571,15.098 8.9596,15.245 8.8746,15.501 C8.8161,15.641 8.1291,16.29 7.944,16.415 C8.2049,16.42 7.9236,16.932 8.0007,17.022 C7.9537,17.093 7.804,17.311 7.7544,17.412 C7.5968,17.487 7.6113,17.597 7.466,17.539 C7.3008,17.48 7.1117,17.327 7.1901,17.089 C7.2476,16.921 7.3036,16.781 7.2832,16.705 C6.7525,17.471 6.253,18.262 5.7891,19.075 C5.8588,19.114 5.9347,19.216 5.9357,19.257 C5.928,19.428 5.8111,19.422 5.8957,19.546 C5.9879,19.694 6.2426,19.525 6.406,19.616 C6.5155,19.559 6.5269,19.596 6.6231,19.519 C6.7937,19.616 6.8024,19.613 6.7565,19.795 C6.7148,19.87 6.7095,19.928 6.6336,19.968 C6.4681,20.013 6.4962,19.93 6.4447,19.875 C6.3574,20.085 6.149,20.648 6.0303,20.701 C5.9089,20.579 5.9759,20.557 6.0079,20.397 C5.8974,20.495 5.924,20.517 5.8279,20.549 C5.884,20.387 5.9797,20.244 6.027,20.092 C6.0435,19.96 5.8792,19.884 5.7748,19.93 C5.6399,20.006 5.7035,20.189 5.4265,20.359 C5.2909,20.44 5.2491,20.738 5.2143,20.878 C5.1779,21.005 5.1578,21.111 5.1173,21.234 C5.0742,21.377 4.9371,21.732 4.851,21.789 C4.7051,21.844 4.7149,21.77 4.7527,21.645 C4.8348,21.355 5.0485,20.774 5.2268,20.464 C5.1041,20.536 5.1079,20.59 5.0203,20.708 C5.0961,20.458 5.4467,20.028 5.617,19.94 C5.6992,19.861 5.8282,19.876 5.9514,19.766 C5.9527,19.716 5.9781,19.683 5.9899,19.634 C5.826,19.714 5.7888,19.633 5.6132,19.718 C5.4874,19.811 5.4637,19.879 5.3864,19.936 C5.3397,19.971 5.3164,19.972 5.3079,19.951 C4.0555,22.315 3.0885,24.852 2.4532,27.519 C2.5528,27.343 2.6024,27.111 2.7335,27.049" id="Fill-215" fill="#F9CF5E" sketch:type="MSShapeGroup" mask="url(#mask-2)"></path>
            <path d="M11.6991,17.375 L11.7017,17.375 C11.7017,17.345 11.6991,17.356 11.6991,17.375" id="Fill-216" fill="#F9CF5E" sketch:type="MSShapeGroup" mask="url(#mask-2)"></path>
            <path d="M3.4227,26.706 C3.4278,26.689 3.4332,26.673 3.4369,26.653 C3.4194,26.68 3.4199,26.697 3.4227,26.706" id="Fill-217" fill="#F9CF5E" sketch:type="MSShapeGroup" mask="url(#mask-2)"></path>
            <path d="M24.3657,43.828 C24.0951,43.751 23.9436,43.839 23.6625,43.772 C23.3551,43.661 22.7775,43.163 22.5831,42.901 C22.3847,42.795 22.062,42.669 21.6997,42.592 C21.4819,42.603 21.2484,42.626 21.0015,42.656 C20.6245,42.643 20.568,42.362 20.1717,42.347 C20.0397,42.346 19.9312,42.466 19.7812,42.522 C19.7471,42.523 19.6896,42.517 19.6545,42.517 C19.6504,42.397 19.6632,42.245 19.6036,42.083 C19.5863,41.974 19.4209,41.963 19.2569,41.88 C19.0416,41.71 18.381,41.388 18.0564,41.367 C17.777,41.358 17.5874,41.705 17.4193,41.976 C17.3765,42.043 17.2972,42.167 17.2386,42.172 C17.1951,42.167 17.1488,42.02 17.1449,41.98 C17.0281,41.974 16.8767,41.967 16.7362,41.961 C16.688,41.78 16.616,41.647 16.4312,41.554 C16.3599,41.523 16.2013,41.524 16.1879,41.356 C16.1703,40.83 16.6916,40.229 16.9635,39.883 C16.9601,39.749 16.7494,39.699 16.6452,39.527 C16.5528,39.332 16.3302,38.774 16.3162,38.567 C16.0196,38.477 15.6569,37.923 15.3965,37.906 C15.3697,37.895 15.3264,37.908 15.2974,37.904 C15.2962,37.895 15.2979,37.878 15.2969,37.869 C15.1259,37.869 14.8578,37.731 14.7501,37.668 C14.6232,37.674 14.4869,37.664 14.3276,37.659 C13.8877,37.572 13.241,37.604 13.1137,37.123 C13.0404,37.13 12.9065,37.072 12.879,37.016 C12.6883,36.589 12.5667,36.643 12.2581,36.316 C12.1222,36.309 11.9812,36.312 11.8379,36.31 C11.7621,36.091 11.8147,35.838 11.6256,35.771 C11.3886,35.675 11.1158,35.634 10.9954,35.4 C10.9946,35.365 10.9946,35.303 10.9944,35.267 C11.0414,35.289 11.1532,35.276 11.2123,35.234 C11.2123,35.234 10.9496,35.184 10.8081,35.184 C10.7609,35.206 10.4753,35.229 10.4522,35.266 C10.3886,35.456 10.2216,35.47 10.0204,35.495 C9.9036,35.498 9.7491,35.457 9.7455,35.314 C9.4688,35.301 9.264,35.32 9.0206,35.311 C8.9345,35.289 8.8645,35.177 8.8635,35.019 C8.6722,34.968 8.3881,34.888 8.3313,34.622 C8.246,34.62 8.1962,34.62 8.1104,34.619 C8.1304,34.812 8.289,34.736 8.3491,34.922 C8.2323,34.922 8.1648,34.924 8.0478,34.923 C7.9197,35.025 7.7408,34.986 7.7395,35.225 C7.7423,35.418 7.8817,35.531 7.8891,35.72 C7.8892,35.774 7.8337,35.973 7.7751,35.977 C7.6138,35.981 7.5746,35.671 7.5707,35.495 C7.5692,35.375 7.6339,35.092 7.6789,34.845 C7.7374,34.845 7.8125,34.783 7.8014,34.653 C7.8006,34.64 7.7657,34.467 7.6927,34.463 C7.5214,34.461 7.5005,34.706 7.3426,34.766 C7.0421,34.906 6.8634,34.958 6.5909,35.081 C6.4416,35.155 6.3331,35.187 6.2921,35.438 C6.2756,35.548 6.2698,35.753 6.1962,35.823 C6.1313,35.902 6.0369,35.917 6.0262,36.083 C5.9979,36.084 5.9633,36.13 5.9637,36.158 C5.9645,36.184 5.9638,36.223 5.9648,36.25 C5.8655,36.284 5.9266,36.269 5.8386,36.247 C5.8251,36.254 5.8174,36.264 5.8078,36.274 C5.8159,36.26 5.8245,36.248 5.8296,36.232 C5.6736,36.029 5.6319,35.585 5.3434,35.574 C5.1078,35.56 4.9929,35.869 4.7338,35.865 C4.5834,35.848 4.5584,35.582 4.4724,35.502 C4.3217,35.386 4.1451,35.248 4.1425,34.924 C4.1438,34.604 4.1397,34.335 4.1499,34.026 C4.1947,33.889 4.2207,33.3 4.2286,33.171 C4.2328,33.104 4.2308,33.017 4.2354,32.95 C4.0677,32.897 4.0557,32.662 3.8378,32.67 C3.5571,32.71 3.3331,32.789 3.1016,32.814 C3.0138,32.808 3.0144,32.779 3.0215,32.667 C3.0232,32.645 3.0228,32.619 3.0246,32.597 C3.0866,32.496 3.1498,32.454 3.1656,32.302 C3.1851,32.074 3.1898,31.86 3.2007,31.623 C3.2391,31.628 3.2281,31.64 3.2592,31.616 C3.2559,31.647 3.2424,31.686 3.2537,31.715 C3.2906,31.572 3.3562,31.461 3.3697,31.238 C3.4035,30.97 3.5291,30.704 3.5477,30.498 C3.5535,30.458 3.5519,30.41 3.5578,30.37 C3.472,30.384 3.4367,30.404 3.387,30.37 C3.3241,30.361 3.376,30.35 3.2449,30.355 C3.0469,30.388 2.8286,30.413 2.7829,30.826 C2.7743,31.038 2.6455,31.232 2.6104,31.398 C2.6037,31.453 2.6236,31.612 2.5111,31.631 C2.5131,31.601 2.5043,31.531 2.4009,31.569 C2.1105,31.587 2.1848,31.778 2.0809,31.812 C1.9651,31.8 2.1166,31.743 2.0025,31.668 C1.8813,31.59 1.9035,31.381 1.8305,31.15 C1.8274,31.135 1.8178,31.121 1.8122,31.107 C1.7431,31.679 1.6894,32.256 1.6507,32.837 C1.6566,32.842 1.6615,32.843 1.6675,32.85 C1.709,32.898 1.6383,32.947 1.7541,32.955 C1.997,32.908 1.8523,32.671 1.9537,32.663 C2.0418,32.588 1.9911,32.642 2.0639,32.755 C2.0932,32.757 2.0944,32.781 2.0965,32.751 C2.2321,32.934 2.2561,33.477 2.4465,33.673 C2.5701,33.805 2.6592,33.732 2.785,33.849 C2.9569,33.96 2.9449,34.085 3.0744,34.076 C3.1765,34.079 3.1128,33.998 3.2152,34 C3.2442,34.001 3.2304,33.997 3.2598,33.999 C3.3142,34.331 3.4115,34.461 3.5532,34.696 C3.5841,34.789 3.6266,34.789 3.6558,34.941 C3.6961,35.166 3.6219,35.356 3.7386,35.507 C3.7874,35.507 3.7724,35.509 3.821,35.508 C3.7922,35.481 3.8086,35.426 3.8203,35.377 C3.8187,35.392 4.1002,35.691 4.1466,35.778 C4.1698,35.897 4.1771,36.041 4.3082,36.091 C4.3092,36.117 4.3247,36.182 4.3543,36.181 C4.4556,36.177 4.5637,36.102 4.6269,36.205 C4.7162,36.339 4.797,36.601 4.9552,36.62 C5.0724,36.614 5.0877,36.556 5.0961,36.399 C5.0713,36.378 5.0189,36.315 5.0156,36.261 C5.0156,36.181 5.2538,35.883 5.3562,35.877 C5.516,35.875 5.401,36.227 5.5185,36.315 C5.499,36.373 5.4575,36.41 5.4593,36.464 C5.4621,36.505 5.5448,36.562 5.5768,36.587 C5.5893,36.586 5.601,36.584 5.6003,36.572 C5.6018,36.601 5.5843,36.638 5.5858,36.667 C5.5815,36.937 5.7729,36.901 5.7863,37.223 C5.7966,37.374 5.7454,37.436 5.7457,37.616 C5.756,37.723 5.8078,37.84 5.8207,37.954 C5.8228,37.977 5.8213,38.01 5.8237,38.033 C5.8077,38.069 5.7966,38.112 5.7866,38.151 C5.7914,38.19 5.8337,38.265 5.8976,38.31 C5.8324,38.72 5.5934,38.594 5.4857,38.91 C5.4109,39.153 5.3763,39.534 5.1095,39.511 C5.1846,40.175 5.0734,40.446 5.105,40.777 C5.1042,40.997 5.162,41.271 5.2996,41.297 C5.401,41.306 5.3501,41.233 5.4463,41.334 C5.4051,41.563 5.2688,41.591 5.1963,41.798 C5.1523,41.863 5.1118,42.041 5.1373,42.213 C5.1573,42.474 5.3132,42.781 5.4498,42.962 C5.4896,43.03 5.5488,43.012 5.6064,43.106 C5.653,43.198 5.6935,43.417 5.7701,43.532 C5.8059,43.58 5.8518,43.565 5.9108,43.658 C6.02,43.954 6.1145,44.143 6.2301,44.494 C6.3393,44.829 6.4425,45.148 6.5737,45.506 C6.6561,45.726 6.8181,45.859 6.8491,46.089 C6.8933,46.261 6.8601,46.403 6.9593,46.534 C7.1985,46.837 7.3638,47.057 7.6921,47.263 C7.8528,47.359 7.9304,47.419 8.0921,47.628 C8.2486,47.808 8.3654,47.802 8.5515,47.951 C8.7818,48.132 8.989,48.376 9.1685,48.74 C9.2257,48.895 9.4393,49.726 9.4605,49.869 C9.5094,50.082 9.4604,50.429 9.5043,50.612 C9.5327,50.823 9.5758,51.01 9.6257,51.196 C9.6163,51.34 9.6315,51.531 9.6445,51.631 C9.6666,51.664 9.6618,51.708 9.671,51.747 C9.7832,52.192 9.6534,52.391 9.7749,52.867 C9.8191,53.081 9.7502,53.19 9.8736,53.436 C9.9663,53.743 10.0406,54.041 10.1378,54.33 C10.1582,54.6 10.2083,54.785 10.222,55.009 C10.2325,55.063 10.1805,54.987 10.1516,55.05 C10.1159,55.162 10.1819,55.212 10.1376,55.313 C10.0828,55.532 10.0337,55.606 10.1294,55.857 C10.1388,55.949 10.2714,56.207 10.3172,56.244 C10.3172,56.244 10.3809,56.315 10.4216,56.384 C10.4181,56.424 10.4259,56.461 10.3445,56.399 C10.3768,56.568 10.357,56.616 10.4269,56.804 C10.4786,56.927 10.5734,57.16 10.6515,57.206 C10.7409,57.255 10.6489,57.148 10.7556,57.171 C10.8014,57.173 10.8055,57.199 10.8472,57.214 C10.8651,57.278 10.8814,57.298 10.9086,57.359 C10.9248,57.483 10.9406,57.597 10.9572,57.708 C11.7414,58.495 12.5664,59.241 13.428,59.944 C13.6119,59.913 13.6915,59.999 13.609,59.809 C13.4805,59.561 13.071,59.48 12.9083,59.162 C12.8439,59.044 12.9506,58.978 13.1214,59.015 C13.211,59.065 13.6501,59.388 13.638,59.296 C13.6246,59.084 13.5393,58.929 13.692,58.812 C13.6221,58.777 13.5495,58.734 13.5047,58.616 C13.6391,58.673 13.6903,58.769 13.8509,58.815 C13.8728,58.833 13.9394,58.806 13.926,58.727 C13.9017,58.665 13.8386,58.642 13.7796,58.59 C13.745,58.56 13.7066,58.619 13.6352,58.602 C13.5144,58.55 13.2896,58.253 13.2371,58.108 C13.2361,58.042 13.2196,57.986 13.314,58.025 C13.565,58.113 13.6464,58.268 13.9153,58.354 C14.0158,58.377 14.1746,58.385 14.1619,58.319 C14.1461,58.278 14.149,58.253 14.1275,58.214 C14.1991,58.014 13.955,57.891 14.0697,57.797 C14.2103,57.69 14.6046,57.967 14.8148,57.981 C15.0889,57.99 15.4015,58.105 15.5882,57.978 C15.6993,57.901 15.7795,57.862 15.8593,57.721 C15.9391,57.62 15.885,57.569 15.8523,57.428 C15.8177,57.288 15.6032,57.251 15.523,57.107 C15.4221,56.963 15.3973,56.838 15.2669,56.699 C15.2124,56.674 14.9969,56.54 14.968,56.438 C14.9558,56.399 15.0217,56.399 15.0648,56.402 C15.2741,56.45 15.494,56.622 15.6899,56.681 C15.7915,56.693 16.1387,56.907 16.3706,56.953 C17.0447,57.085 17.0357,56.503 17.2649,56.17 C17.4656,55.887 17.7757,55.697 18.0091,55.383 C18.1041,55.233 18.0689,55.491 18.1611,55.336 C18.1656,55.336 18.1677,55.35 18.1631,55.35 C18.2697,55.102 18.3998,54.883 18.7043,54.792 C18.6327,54.403 18.5566,54.033 18.4895,53.631 C18.4428,53.359 18.4571,53.668 18.6509,53.504 C18.7578,53.426 18.9774,53.431 19.0912,53.261 C19.3458,52.878 19.7728,53.138 20.1549,52.83 C20.1909,52.783 20.2101,52.717 20.3089,52.684 C20.5556,52.606 20.7971,52.65 21.1443,52.676 C21.4503,52.689 21.7774,52.527 21.8789,52.353 C21.9017,52.296 21.8742,52.12 21.9396,52.025 C22.1847,51.747 22.2489,51.612 22.5001,51.254 C22.524,51.199 22.5637,50.899 22.5523,50.729 C22.5439,50.622 22.6984,50.456 22.7635,50.38 C22.7783,50.34 22.845,50.263 22.8412,50.194 C22.8363,49.978 22.8964,49.163 22.8869,48.859 C22.8539,48.468 22.5322,48.276 22.7865,48.031 C22.9616,47.897 23.165,47.849 23.3368,47.613 C23.4404,47.473 23.5233,47.428 23.6252,47.286 C24.1055,46.618 24.8874,45.984 24.8665,44.678 C24.8559,44.307 24.7507,43.962 24.3657,43.828" id="Fill-218" fill="#F9CF5E" sketch:type="MSShapeGroup" mask="url(#mask-2)"></path>
            <path d="M3.4227,26.706 C3.422,26.708 3.4214,26.71 3.4209,26.713 C3.4283,26.716 3.4253,26.715 3.4227,26.706" id="Fill-219" fill="#F9CF5E" sketch:type="MSShapeGroup" mask="url(#mask-2)"></path>
            <path d="M5.8482,28.253 C5.8401,28.361 5.8324,28.531 5.9224,28.526 C5.9475,28.511 5.9733,28.469 5.9801,28.442 C5.9798,28.347 6.0035,28.258 5.8882,28.246 C5.9071,28.246 5.8669,28.257 5.8482,28.253" id="Fill-220" fill="#F9CF5E" sketch:type="MSShapeGroup" mask="url(#mask-2)"></path>
            <path d="M5.923,27.396 C5.8524,27.408 5.8003,27.485 5.772,27.54 C5.8583,27.537 5.9206,27.52 6.0301,27.496 C6.0026,27.454 6.0181,27.364 5.923,27.396" id="Fill-221" fill="#F9CF5E" sketch:type="MSShapeGroup" mask="url(#mask-2)"></path>
            <path d="M6.2561,27.637 C6.232,27.6 6.2328,27.565 6.2167,27.524 C6.1918,27.561 6.2295,27.674 6.2561,27.637" id="Fill-222" fill="#F9CF5E" sketch:type="MSShapeGroup" mask="url(#mask-2)"></path>
            <path d="M7.3374,29.824 C7.345,29.784 7.3379,29.722 7.3458,29.681 C7.3076,29.774 7.2075,29.864 7.1088,29.846 C7.1036,29.872 7.094,29.915 7.1034,29.94 C7.1222,29.94 7.1296,29.94 7.1488,29.936 C7.2193,29.95 7.2844,29.884 7.3374,29.824" id="Fill-223" fill="#F9CF5E" sketch:type="MSShapeGroup" mask="url(#mask-2)"></path>
            <path d="M13.3501,10.119 C13.2463,10.204 13.1437,10.291 13.0408,10.378 C13.1458,10.298 13.2694,10.241 13.4085,10.172 C13.3833,10.142 13.366,10.127 13.3501,10.119" id="Fill-224" fill="#F9CF5E" sketch:type="MSShapeGroup" mask="url(#mask-2)"></path>
            <path d="M11.2526,12.402 C11.0187,12.685 11.6215,12.394 11.8458,12.366 C12.0834,12.341 12.2962,12.232 12.6032,12.196 C12.6356,12.166 12.6272,12.262 12.6908,12.227 C12.7489,12.23 12.8206,12.168 12.8328,12.114 C12.9028,11.95 12.3102,12.046 12.1733,12.003 C12.2388,11.972 12.2751,11.974 12.338,11.937 C12.52,12.004 13.096,11.849 13.3079,11.789 C13.3852,11.717 13.5252,11.551 13.5741,11.487 C13.5919,11.401 13.3961,11.476 13.4127,11.423 C13.4148,11.369 13.4451,11.357 13.4578,11.305 C13.3845,11.342 13.3379,11.348 13.2598,11.376 C13.307,11.245 13.1597,11.385 12.9682,11.424 C12.8535,11.454 12.7937,11.409 12.8114,11.302 C12.7489,11.311 12.7254,11.334 12.6677,11.359 C12.6694,11.32 12.6896,11.313 12.7036,11.275 C12.7659,11.279 12.788,11.244 12.8692,11.209 C12.8703,11.177 12.8865,11.172 12.8973,11.141 C12.7868,11.213 12.817,11.194 12.6829,11.219 C12.6933,11.209 12.8471,11.1 12.9288,11.069 C13.4484,10.864 13.3173,11.219 13.9188,11.033 C14.0697,10.987 14.0962,10.895 14.1369,10.817 C14.3647,10.737 14.409,10.673 14.4279,10.659 C14.4301,10.624 14.4535,10.618 14.4556,10.583 C14.6221,10.529 14.8213,10.463 14.8583,10.365 C14.9082,10.248 14.8064,10.273 14.5803,10.343 C14.5126,10.368 14.4576,10.399 14.3757,10.388 C14.3062,10.211 14.2418,10.413 13.9738,10.507 C13.8057,10.564 13.7849,10.499 13.8012,10.409 C13.5725,10.49 13.2995,10.562 13.3251,10.441 C13.1859,10.506 13.1314,10.524 13.0403,10.527 C13.1681,10.414 13.2561,10.371 13.456,10.256 C13.4147,10.207 13.3799,10.246 13.3145,10.278 C13.1872,10.321 13.1045,10.357 13.0184,10.397 C12.2441,11.05 11.5013,11.739 10.7921,12.462 C10.9335,12.448 11.0403,12.455 11.2526,12.402" id="Fill-225" fill="#F9CF5E" sketch:type="MSShapeGroup" mask="url(#mask-2)"></path>
            <path d="M31.3764,5.594 C31.4976,5.649 31.6501,5.665 31.8247,5.689 C31.5944,5.658 31.2395,5.688 31.1265,5.604 C31.2005,5.597 31.3016,5.601 31.3764,5.594 M30.0676,6.461 C30.1407,6.451 30.4324,6.44 30.442,6.371 C30.4744,6.319 30.2812,6.351 30.284,6.244 C30.3606,6.255 30.4614,6.229 30.5362,6.232 C31.2337,6.173 31.028,6.468 31.8333,6.456 C32.0191,6.464 32.2949,6.462 32.293,6.378 C32.289,6.071 31.251,6.006 30.6467,5.846 C30.6428,5.807 30.6571,5.806 30.653,5.768 C30.6826,5.765 30.7286,5.773 30.8689,5.758 C30.9821,5.886 31.4591,5.967 31.7718,5.959 C31.9812,5.965 32.0194,5.897 32.0304,5.805 C32.0247,5.741 31.9527,5.71 31.8515,5.693 C31.8573,5.694 31.8623,5.695 31.8682,5.695 C32.0153,5.601 32.6632,5.628 32.7899,5.48 C32.7144,5.483 32.6075,5.458 32.626,5.408 C32.931,5.372 33.2718,5.35 33.3741,5.263 C33.1649,5.268 32.7253,5.304 32.7159,5.174 C32.7421,5.078 32.9724,5.096 33.2446,5.104 C33.168,5.063 33.2466,5.059 33.2464,4.997 C33.242,4.883 33.0094,4.901 33.005,4.798 C32.7709,4.784 32.4946,4.859 32.4858,4.729 C32.5206,4.688 32.6293,4.661 32.8138,4.654 C33.1043,4.644 33.9323,4.694 33.9517,4.576 C33.9466,4.392 33.3403,4.491 33.2568,4.423 C33.3453,4.421 33.4714,4.407 33.5485,4.394 C33.3705,4.375 33.1713,4.314 32.905,4.322 C32.7265,4.328 32.5968,4.352 32.4219,4.331 C32.5293,4.301 32.501,4.202 32.7016,4.162 C32.9979,4.133 33.7684,4.307 33.7989,4.167 C33.8254,4.167 33.8208,4.184 33.7985,4.112 C34.1174,4.068 34.5102,4.13 34.5168,4.023 C34.5175,3.99 34.5428,3.989 34.5565,3.992 C34.5494,3.989 34.5376,3.985 34.516,3.976 C34.7967,3.938 35.2344,3.976 35.2277,3.872 C35.1243,3.867 35.0025,3.869 34.8943,3.865 C35.6019,3.866 35.9302,3.776 36.4491,3.774 C36.5389,3.763 36.823,3.794 36.8342,3.714 C36.7996,3.633 36.0838,3.57 35.8854,3.555 C35.7213,3.566 35.6421,3.525 35.5751,3.588 C35.3321,3.575 35.0806,3.564 34.8219,3.571 C34.5764,3.586 34.5298,3.62 34.2414,3.632 C34.1818,3.631 33.8784,3.621 33.8779,3.621 C33.5339,3.621 33.1769,3.619 32.824,3.631 C32.5675,3.684 31.7675,3.918 31.3439,3.973 C31.4077,3.924 32.385,3.673 32.4316,3.633 C32.426,3.532 32.3346,3.528 32.0459,3.544 C31.5205,3.558 30.5744,3.79 30.1879,3.827 C30.0703,3.84 30.7411,3.653 30.795,3.622 C30.5067,3.636 27.9213,3.882 27.6756,3.888 C28.7982,3.743 29.9029,3.635 31.0636,3.569 C31.504,3.508 32.5356,3.496 32.6318,3.38 C32.2449,3.397 31.7109,3.417 31.2825,3.396 C30.5607,3.371 29.9278,3.293 29.0117,3.378 C28.27,3.453 27.5738,3.517 26.841,3.628 C26.4029,3.693 26.018,3.773 25.6319,3.857 C22.4215,4.692 19.4065,6.012 16.6681,7.731 C17.2362,7.622 17.59,7.697 17.7214,7.895 C17.713,7.934 17.7109,7.936 17.691,7.971 C17.8204,7.942 18.0391,7.851 17.9884,7.959 C17.9426,8.088 17.6476,8.139 17.6088,8.266 C17.5631,8.376 17.6901,8.319 17.9372,8.252 C18.1273,8.209 18.191,8.108 18.3107,8.068 C18.7727,7.971 18.7991,8.151 19.2227,8.115 C19.1962,8.158 19.2051,8.194 19.0547,8.231 C18.7176,8.325 18.5423,8.283 18.2429,8.362 C18.1128,8.389 18.1396,8.374 17.9962,8.428 C17.999,8.469 18.0334,8.492 18.0902,8.503 C18.069,8.508 18.0497,8.511 18.0263,8.518 C17.8959,8.574 17.715,8.622 17.6865,8.709 C17.6514,8.798 17.7804,8.849 17.8937,8.83 C18.0003,8.813 18.0866,8.77 18.1997,8.751 C18.4364,8.68 18.7326,8.602 18.7986,8.498 C18.6201,8.518 18.5168,8.5 18.4163,8.488 C18.7408,8.438 19.1758,8.319 19.434,8.286 C19.2499,8.488 19.0305,8.57 18.8851,8.773 C18.7052,8.779 18.6919,8.785 18.482,8.88 C18.4778,8.883 18.4837,8.891 18.4784,8.891 C18.1628,9.061 18.041,9.184 17.8147,9.35 C17.7853,9.404 17.7947,9.429 17.7723,9.486 C17.8542,9.433 17.9578,9.411 18.0551,9.417 C17.9937,9.485 17.8982,9.527 17.8692,9.601 C17.8259,9.787 18.1899,9.735 18.2414,9.839 C18.2895,9.915 18.2636,10.006 18.3307,10.013 C18.5744,10.035 18.6687,9.834 18.8706,9.914 C18.7615,9.959 18.6466,9.982 18.6169,10.082 C18.5753,10.263 18.972,10.58 19.2624,10.636 C19.3095,10.636 19.2473,10.732 19.34,10.752 C19.5755,10.783 19.7266,10.714 19.8091,10.852 C19.9975,10.813 20.2614,10.697 20.4852,10.65 C20.893,10.597 20.7738,10.901 21.1923,10.844 C21.2809,10.84 21.3268,10.786 21.5232,10.747 C21.5487,10.797 21.5877,10.818 21.706,10.789 C22.1545,10.724 22.0143,10.406 22.4001,10.262 C22.3851,10.171 22.4407,10.008 22.4645,9.885 C22.5035,9.701 23.3073,9.505 23.3708,9.292 C23.3595,9.209 23.1959,9.226 23.2,9.172 C23.2112,9.136 23.277,9.104 23.3269,9.082 C23.3168,9.057 23.3158,9.049 23.3056,9.024 C23.3636,8.813 24.2018,8.752 24.5788,8.589 C24.7265,8.511 24.6832,8.47 24.9326,8.397 C24.9293,8.447 24.9319,8.471 24.914,8.519 C24.9873,8.512 25.0884,8.504 25.1617,8.492 C25.5323,8.344 26.0831,8.339 26.439,8.179 C26.7124,8.071 26.2853,7.77 26.6208,7.622 C26.7476,7.588 26.9002,7.533 27.0512,7.478 C27.0787,7.423 27.218,7.394 27.3977,7.35 C27.658,7.331 27.9266,7.312 28.1845,7.286 C28.8491,7.145 29.3091,7.136 29.9387,7.03 C30.429,6.956 30.6023,6.792 31.1789,6.701 C31.4892,6.649 31.6569,6.648 31.913,6.571 C31.5694,6.556 30.0871,6.622 30.0676,6.461" id="Fill-226" fill="#F9CF5E" sketch:type="MSShapeGroup" mask="url(#mask-2)"></path>
            <path d="M33.952,5.028 L33.6573,5.028 C33.6137,5.053 33.5104,5.05 33.4915,5.092 C33.4926,5.13 33.5893,5.164 33.7053,5.164 C33.8784,5.162 34.1559,5.106 34.2323,5.092 C34.1485,5.091 34.0365,5.091 33.9528,5.091 C33.9856,5.091 33.952,5.061 33.952,5.028" id="Fill-227" fill="#F9CF5E" sketch:type="MSShapeGroup" mask="url(#mask-2)"></path>
            <path d="M15.5562,15.81 C15.5805,15.786 15.571,15.741 15.5746,15.707 C15.6047,15.7 15.6364,15.659 15.6583,15.637 C15.5911,15.607 15.5176,15.598 15.433,15.624 C15.3325,15.638 15.3213,15.712 15.1964,15.756 C15.2045,15.722 15.207,15.687 15.2152,15.654 C15.3471,15.432 15.6644,15.251 15.7186,15.005 C15.7303,14.961 15.6953,14.914 15.6369,14.914 C15.3938,14.967 15.2776,15.151 15.136,15.334 C14.8738,15.627 14.6038,16.162 14.1863,16.414 C14.1904,16.451 14.2453,16.456 14.2892,16.45 C14.2738,16.467 14.2733,16.496 14.2762,16.518 C14.2668,16.525 13.9911,16.744 13.9801,16.788 C13.958,16.814 14.0295,16.89 14.1018,16.875 C14.2917,16.855 14.3373,16.773 14.56,16.721 C14.7213,16.705 14.7791,16.751 14.984,16.722 C15.0859,16.716 15.1684,16.654 15.2895,16.611 C15.3536,16.73 15.5532,16.615 15.7009,16.585 C15.6439,16.644 15.5087,16.673 15.5058,16.802 C15.4899,16.819 15.5662,16.794 15.595,16.787 C15.7927,16.766 15.9422,16.558 16.085,16.396 C16.1979,16.467 16.0643,16.708 16.1885,16.69 C16.2308,16.682 16.2634,16.704 16.3067,16.695 C16.3029,16.74 16.3102,16.827 16.424,16.817 C16.593,16.799 16.7019,16.643 16.7144,16.492 C16.7399,16.38 16.6124,16.392 16.644,16.259 C16.5612,16.314 16.6022,16.341 16.4327,16.362 C16.4505,16.284 16.3535,16.248 16.3555,16.191 C16.367,16.146 16.5078,16.095 16.5362,15.99 C16.4774,15.993 16.3896,16.026 16.3622,16.052 C16.4021,15.894 16.4393,15.785 16.4403,15.666 C16.381,15.721 16.1639,15.745 16.0019,15.741 C15.9475,15.769 15.8701,15.797 15.8134,15.82 C15.8273,15.806 15.819,15.781 15.8238,15.762 C15.7368,15.773 15.6439,15.803 15.5562,15.81" id="Fill-228" fill="#F9CF5E" sketch:type="MSShapeGroup" mask="url(#mask-2)"></path>
            <path d="M7.4565,17.123 C7.4709,17.132 7.4697,17.111 7.4867,17.107 C7.5196,16.976 7.447,16.994 7.345,17.045 C7.3295,17.068 7.3356,17.091 7.3206,17.113 C7.3673,17.194 7.377,17.168 7.4565,17.123" id="Fill-229" fill="#F9CF5E" sketch:type="MSShapeGroup" mask="url(#mask-2)"></path>
            <path d="M51.5441,20.704 C51.2798,20.648 51.2103,20.771 50.999,20.742 C50.7656,20.724 50.6058,20.506 50.2654,20.62 C50.2677,20.65 50.2774,20.695 50.2753,20.726 C50.326,20.786 50.4721,20.811 50.5161,20.825 C50.7951,20.93 51.0291,21.206 51.3127,21.298 C51.3206,21.336 51.4048,21.374 51.4494,21.372 C51.4933,21.37 51.5316,21.315 51.5366,21.277 C51.5264,21.173 51.4425,21.135 51.4321,21.027 C51.4162,20.977 51.4961,20.87 51.4961,20.87 C51.511,20.818 51.5226,20.754 51.5441,20.704" id="Fill-230" fill="#F9CF5E" sketch:type="MSShapeGroup" mask="url(#mask-2)"></path>
            <path d="M48.6562,18.179 C48.6135,18.161 48.5713,18.076 48.5718,18.011 C48.4972,18.02 48.4269,18.149 48.3152,18.128 C48.281,18.138 48.2335,18.144 48.1979,18.146 C48.2666,18.253 48.3854,18.696 48.5619,18.748 C48.6095,18.672 48.6272,18.346 48.6562,18.179" id="Fill-231" fill="#F9CF5E" sketch:type="MSShapeGroup" mask="url(#mask-2)"></path>
            <path d="M48.3623,19.332 C48.376,19.422 48.2816,19.517 48.2852,19.622 C48.2938,19.726 48.3172,19.927 48.487,19.955 C48.6048,19.955 48.9014,19.786 48.8989,19.575 C48.8739,19.334 48.9011,19.219 48.7344,18.956 C48.6902,18.957 48.6135,18.87 48.5046,18.845 C48.3715,18.84 48.3496,18.977 48.1617,19.003 C48.1742,19.106 48.3511,19.202 48.3623,19.332" id="Fill-232" fill="#F9CF5E" sketch:type="MSShapeGroup" mask="url(#mask-2)"></path>
            <path d="M45.7418,19.446 C45.726,19.411 45.6371,19.298 45.6394,19.272 C45.5516,19.29 45.4569,19.325 45.3577,19.359 C45.3613,19.378 45.5433,19.506 45.6026,19.512 C45.6459,19.52 45.7357,19.486 45.7418,19.446" id="Fill-233" fill="#F9CF5E" sketch:type="MSShapeGroup" mask="url(#mask-2)"></path>
            <path d="M48.4225,12.873 C48.4419,12.938 48.5434,12.987 48.6786,12.994 C48.6801,13.012 48.6806,13.029 48.6875,13.045 C48.685,13.011 48.7209,13.033 48.7069,12.981 C48.6875,12.916 48.6272,12.921 48.611,12.84 C48.5508,12.828 48.4727,12.821 48.4116,12.809 C48.4136,12.832 48.4203,12.851 48.4225,12.873" id="Fill-234" fill="#F9CF5E" sketch:type="MSShapeGroup" mask="url(#mask-2)"></path>
            <path d="M48.8435,13.064 C48.8342,13.058 48.8188,13.047 48.8185,13.035 C48.7992,13.041 48.7907,13.053 48.7714,13.058 C48.7811,13.065 48.8559,13.116 48.9246,13.12 C49.1459,13.169 49.0272,12.923 49.2018,12.919 C49.13,12.817 49.1071,12.747 48.9019,12.71 C48.834,12.708 48.7284,12.842 48.738,12.868 C48.7421,12.908 48.874,12.967 48.9755,13.005 C48.9771,13.039 48.9117,13.074 48.8435,13.064" id="Fill-235" fill="#F9CF5E" sketch:type="MSShapeGroup" mask="url(#mask-2)"></path>
            <path d="M51.6019,12.682 C51.6037,12.722 51.6314,12.777 51.7185,12.792 C51.7564,12.798 51.8639,12.789 51.8651,12.769 C51.8643,12.741 51.8409,12.723 51.8481,12.697 C51.8686,12.697 51.8944,12.671 51.9041,12.637 C51.8718,12.61 51.8193,12.581 51.7865,12.554 C51.7865,12.554 51.7159,12.56 51.7162,12.594 C51.7421,12.615 51.7682,12.655 51.7994,12.68 C51.7211,12.678 51.6805,12.687 51.6019,12.682" id="Fill-236" fill="#F9CF5E" sketch:type="MSShapeGroup" mask="url(#mask-2)"></path>
            <path d="M56.3842,22.748 C56.1127,22.645 55.8006,22.513 55.4817,22.53 C55.6441,22.646 55.9203,22.714 56.0376,22.725 C56.1353,22.757 56.2083,22.817 56.3842,22.748" id="Fill-237" fill="#F9CF5E" sketch:type="MSShapeGroup" mask="url(#mask-2)"></path>
            <path d="M59.3807,23.031 C59.1959,23.036 58.8952,23.103 58.7232,23.171 C58.7341,23.195 58.7649,23.255 58.7945,23.254 C58.7972,23.293 58.8454,23.342 58.89,23.341 C59.0172,23.378 59.2119,23.344 59.2415,23.259 C59.2455,23.217 59.1995,23.132 59.2455,23.124 C59.3326,23.084 59.3614,23.167 59.3807,23.031" id="Fill-238" fill="#F9CF5E" sketch:type="MSShapeGroup" mask="url(#mask-2)"></path>
            <path d="M65.2485,34.213 C65.2711,34.289 65.2767,34.33 65.321,34.33 C65.4374,34.327 65.4144,34.205 65.4299,34.138 C65.2403,34.144 65.3599,34.126 65.2485,34.213" id="Fill-239" fill="#F9CF5E" sketch:type="MSShapeGroup" mask="url(#mask-2)"></path>
            <path d="M12.8519,16.538 C12.9677,16.525 13.0063,16.484 13.054,16.429 C12.7936,16.369 12.5985,16.217 12.1727,16.388 C12.3094,16.456 12.6362,16.592 12.8519,16.538" id="Fill-240" fill="#F9CF5E" sketch:type="MSShapeGroup" mask="url(#mask-2)"></path>
            <path d="M12.036,17.567 C12.0066,17.579 11.988,17.631 11.9674,17.658 C11.9609,17.737 12.4103,17.846 12.496,17.828 C12.525,17.826 12.6521,17.728 12.6823,17.666 C12.678,17.644 12.692,17.619 12.6954,17.596 C12.5619,17.627 12.4263,17.65 12.2913,17.684 C12.144,17.674 12.0847,17.669 12.036,17.567" id="Fill-241" fill="#F9CF5E" sketch:type="MSShapeGroup" mask="url(#mask-2)"></path>
            <path d="M13.1963,17.831 C13.3404,17.788 13.5227,17.697 13.532,17.617 C13.5486,17.596 13.5423,17.561 13.5461,17.535 C13.21,17.601 13.434,17.483 13.4649,17.382 C13.4714,17.337 13.4078,17.336 13.3885,17.285 C13.234,17.341 13.0087,17.678 12.9973,17.746 C12.9779,17.812 13.0512,17.85 13.1963,17.831" id="Fill-242" fill="#F9CF5E" sketch:type="MSShapeGroup" mask="url(#mask-2)"></path>
            <path d="M33.7554,1.293 L33.7549,1.293 L33.7548,1.293 C33.5673,1.293 33.3791,1.295 33.1913,1.3 C32.8823,1.305 32.5742,1.314 32.2673,1.328 C32.2535,1.327 32.2396,1.325 32.2261,1.325 L32.1148,1.33 L32.1153,1.333 C30.9037,1.392 29.7089,1.514 28.5343,1.698 C28.5262,1.699 28.5181,1.7 28.51,1.701 L28.51,1.702 C27.0919,1.924 25.7036,2.236 24.3497,2.63 C24.2964,2.645 24.2432,2.661 24.1901,2.676 L24.1893,2.673 C24.0837,2.703 23.9841,2.735 23.8874,2.766 C23.8243,2.785 23.7614,2.802 23.6985,2.822 L23.6993,2.825 C20.9906,3.674 18.4284,4.857 16.0598,6.324 L16.0519,6.311 C15.9488,6.374 15.8585,6.437 15.775,6.502 C15.1651,6.888 14.5692,7.293 13.9868,7.716 C13.1827,8.288 12.4051,8.898 11.6624,9.543 L11.6725,9.554 C10.3603,10.695 9.1383,11.936 8.0154,13.264 L8.0035,13.253 C7.9455,13.321 7.8951,13.389 7.8518,13.457 C5.3839,16.42 3.4132,19.81 2.0698,23.5 L2.0621,23.497 C2.0486,23.534 2.0415,23.571 2.0316,23.608 C0.749,27.168 0.0482,31.004 0.0482,35 C0.0482,39.037 0.7625,42.91 2.0698,46.501 L2.0621,46.503 C2.0771,46.544 2.0952,46.584 2.1144,46.624 C3.4863,50.347 5.4988,53.761 8.0154,56.736 L8.0035,56.746 C8.0521,56.803 8.1074,56.859 8.1659,56.915 C8.6417,57.469 9.1355,58.007 9.6456,58.53 C10.2707,59.184 10.9251,59.814 11.6112,60.412 L11.6218,60.401 C13.0061,61.608 14.4906,62.704 16.0598,63.676 L16.0519,63.689 C16.1411,63.744 16.2388,63.797 16.3411,63.85 C18.5867,65.21 21.0032,66.315 23.5496,67.126 C23.63,67.152 23.7094,67.181 23.7902,67.206 L23.7912,67.204 C23.924,67.245 24.0574,67.283 24.191,67.323 L24.1893,67.327 C24.2428,67.342 24.3018,67.357 24.3572,67.372 C26.8352,68.093 29.4304,68.537 32.1066,68.666 C32.13,68.668 32.153,68.672 32.1764,68.673 L32.1764,68.669 C32.6995,68.693 33.2256,68.707 33.7549,68.707 C34.2845,68.707 34.8104,68.693 35.3341,68.669 L35.3341,68.673 C35.357,68.672 35.3806,68.668 35.404,68.666 C38.073,68.537 40.6611,68.095 43.1335,67.378 C43.2283,67.352 43.3239,67.327 43.4131,67.3 L43.4112,67.295 C43.5139,67.264 43.617,67.235 43.719,67.203 L43.72,67.206 C43.806,67.18 43.8903,67.149 43.9761,67.121 C46.5155,66.311 48.9255,65.209 51.1652,63.852 C51.2754,63.795 51.3811,63.737 51.476,63.679 L51.4679,63.665 C53.0306,62.696 54.509,61.604 55.8884,60.4 L55.8992,60.412 C56.5889,59.811 57.2463,59.178 57.8745,58.52 C58.3798,58.002 58.8691,57.468 59.3404,56.918 C59.4036,56.859 59.4621,56.799 59.5141,56.739 L59.5013,56.729 C62.0124,53.758 64.0206,50.35 65.3915,46.635 C65.4124,46.592 65.4317,46.549 65.448,46.506 L65.4397,46.502 C66.7478,42.912 67.4618,39.038 67.4618,35 L67.4618,35 L67.4622,35 C67.4622,34.764 67.4584,34.53 67.4528,34.295 C67.3759,30.557 66.6871,26.967 65.4831,23.62 C65.4733,23.584 65.4668,23.547 65.4539,23.51 L65.4452,23.513 C64.1023,19.82 62.1311,16.426 59.6617,13.461 C59.6194,13.394 59.5701,13.327 59.5141,13.261 L59.5013,13.272 C58.3767,11.941 57.1526,10.697 55.8376,9.555 L55.8479,9.543 C55.1031,8.895 54.3229,8.284 53.5157,7.711 C52.9372,7.291 52.3455,6.888 51.7403,6.505 C51.66,6.443 51.5745,6.382 51.476,6.321 L51.4679,6.335 C49.0943,4.863 46.5266,3.676 43.8107,2.825 L43.8117,2.822 C43.7539,2.804 43.6961,2.788 43.6381,2.77 C43.5655,2.746 43.4905,2.723 43.4131,2.7 L43.4115,2.703 C43.3276,2.679 43.2432,2.653 43.1587,2.629 C41.8053,2.236 40.4175,1.924 38.9998,1.702 L39.0003,1.701 C38.9913,1.7 38.9829,1.699 38.9741,1.698 C37.7996,1.514 36.6058,1.392 35.3951,1.334 L35.3956,1.33 L35.2839,1.325 C35.2702,1.325 35.2567,1.327 35.2429,1.328 C34.9365,1.315 34.629,1.305 34.3205,1.3 C34.1321,1.295 33.9434,1.293 33.7554,1.293 M33.7554,3.026 C33.9312,3.026 34.1109,3.029 34.2919,3.033 C34.5824,3.038 34.8768,3.047 35.1663,3.059 L35.1765,3.06 L35.1864,3.059 L35.1923,3.059 L35.3109,3.065 C36.4169,3.118 37.5312,3.23 38.6233,3.397 L38.7305,3.414 C40.0559,3.622 41.3831,3.918 42.6749,4.294 L42.6764,4.294 L42.678,4.295 C42.735,4.311 42.792,4.327 42.8488,4.344 L42.9167,4.364 L43.059,4.406 L43.2936,4.48 C45.8343,5.275 48.278,6.395 50.5568,7.809 L50.7768,7.945 L50.7783,7.943 C50.784,7.947 50.79,7.952 50.7959,7.957 L50.8053,7.964 L50.8152,7.97 C51.3821,8.329 51.9487,8.714 52.5016,9.116 C53.2024,9.613 53.88,10.141 54.5188,10.685 L54.5095,10.696 L54.7017,10.863 C55.9397,11.939 57.1091,13.125 58.1775,14.389 L58.3381,14.579 C60.7124,17.432 62.5552,20.637 63.8159,24.104 L63.8452,24.185 L63.8477,24.195 L63.8518,24.206 C65.0199,27.453 65.6486,30.86 65.7201,34.332 C65.724,34.501 65.7276,34.697 65.7286,34.899 L65.7286,35 C65.7285,38.746 65.0832,42.417 63.8108,45.911 L63.7665,46.032 L63.7648,46.037 C62.4765,49.528 60.5966,52.749 58.1775,55.611 L58.0347,55.78 L58.0339,55.78 L58.0252,55.791 C57.5874,56.301 57.1195,56.813 56.6324,57.313 C56.0863,57.884 55.5231,58.429 54.9551,58.934 L54.946,58.923 L54.7502,59.094 C53.4452,60.233 52.0343,61.275 50.5568,62.192 L50.3385,62.327 L50.341,62.331 C50.323,62.341 50.3043,62.35 50.2847,62.361 L50.2771,62.364 L50.2697,62.369 C48.1292,63.666 45.835,64.709 43.4495,65.47 C43.4214,65.479 43.3934,65.488 43.365,65.498 L43.2059,65.547 C43.1481,65.566 43.0898,65.583 43.0313,65.6 C42.9923,65.612 42.9533,65.623 42.9141,65.635 L42.681,65.705 C42.679,65.706 42.6769,65.706 42.6752,65.707 L42.6556,65.712 L42.6533,65.713 L42.6512,65.713 C40.3257,66.388 37.9174,66.796 35.4901,66.926 L35.2529,66.938 C34.7279,66.962 34.2382,66.974 33.7549,66.974 C33.272,66.974 32.7822,66.962 32.2574,66.938 L32.0222,66.926 C29.5989,66.796 27.1939,66.39 24.87,65.717 L24.6828,65.661 C24.6413,65.648 24.5998,65.636 24.5581,65.624 C24.4729,65.599 24.3881,65.574 24.3036,65.548 L24.2092,65.519 C24.1984,65.516 24.1872,65.512 24.1758,65.508 C24.1425,65.497 24.1094,65.485 24.0745,65.474 C21.6853,64.714 19.3848,63.668 17.2368,62.367 L17.2293,62.362 L17.2216,62.358 C17.2091,62.352 17.1966,62.345 17.1847,62.339 L17.1865,62.336 L16.9699,62.202 C15.4877,61.284 14.0713,60.238 12.7597,59.094 L12.568,58.927 L12.5588,58.937 C11.992,58.433 11.4304,57.891 10.8854,57.32 C10.4006,56.823 9.9304,56.31 9.4872,55.794 L9.3388,55.618 C6.9217,52.76 5.0424,49.545 3.7538,46.06 L3.6991,45.909 C2.4267,42.414 1.7814,38.744 1.7814,35 C1.7814,31.295 2.4142,27.659 3.6627,24.194 L3.6661,24.184 L3.6691,24.174 C3.6691,24.173 3.6691,24.173 3.6693,24.172 L3.6991,24.091 C4.9601,20.627 6.8026,17.425 9.176,14.574 L9.3388,14.382 C10.4056,13.12 11.5728,11.937 12.8083,10.863 L13.0027,10.694 L12.9939,10.684 C13.6304,10.141 14.305,9.616 15.0035,9.119 C15.5596,8.715 16.1303,8.327 16.6998,7.967 L16.7097,7.961 L16.7188,7.954 C16.7288,7.946 16.7384,7.939 16.7481,7.932 L16.7499,7.934 L16.9699,7.798 C19.2439,6.39 21.682,5.273 24.2168,4.48 L24.4604,4.403 L24.4601,4.402 C24.4652,4.401 24.4701,4.399 24.4754,4.398 L24.6801,4.339 L24.7305,4.324 C24.7638,4.314 24.7972,4.305 24.8335,4.295 C26.1246,3.919 27.4523,3.622 28.7797,3.414 L28.8144,3.408 C29.928,3.235 31.0671,3.119 32.1995,3.065 L32.3156,3.059 L32.3236,3.059 L32.3337,3.06 L32.3439,3.059 C32.6265,3.047 32.9215,3.038 33.2228,3.033 C33.4005,3.029 33.5792,3.026 33.7549,3.026 L33.7554,3.026" id="Fill-243" fill="#F9CF5E" sketch:type="MSShapeGroup" mask="url(#mask-2)"></path>
        </g>
    </g>
</svg>