<?xml version="1.0" encoding="utf-8"?>
<!-- Generator: Adobe Illustrator 16.0.4, SVG Export Plug-In . SVG Version: 6.00 Build 0)  -->
<!DOCTYPE svg PUBLIC "-//W3C//DTD SVG 1.1//EN" "http://www.w3.org/Graphics/SVG/1.1/DTD/svg11.dtd">
<svg version="1.1" id="Layer_1" xmlns:sketch="http://www.bohemiancoding.com/sketch/ns"
	 xmlns="http://www.w3.org/2000/svg" xmlns:xlink="http://www.w3.org/1999/xlink" x="0px" y="0px" width="100px" height="100px"
	 viewBox="0 0 100 100" enable-background="new 0 0 100 100" xml:space="preserve">
<title>chart_line_up_12</title>
<description>Created with Sketch.</description>
<polyline fill="#F8CF5E" points="66.395,79.624 62.978,83.855 78.9,86.874 72.593,71.945 68.953,76.454 "/>
<polyline fill="#F8CF5E" points="70.217,76.658 15.43,39.623 2.738,54.853 5.874,57.466 16.156,45.04 70.947,82.078 "/>
<polygon fill="#F8CF5E" points="34.309,50.003 39.787,43.333 56.535,51.438 80.478,23.145 76.086,19.327 91.234,13.566 
	87.638,29.369 83.552,25.816 83.552,25.816 57.491,56.438 40.851,48.383 37.667,52.268 34.309,50.003 "/>
<polygon fill="#F8CF5E" points="29.104,56.34 10.919,78.478 14.073,81.068 32.472,58.61 29.104,56.34 "/>
<polygon fill="#F8CF5E" points="94.898,100 0,100 0,98.47 0,0 2.041,0 2.041,97.959 100,97.959 100,100 "/>
</svg>
