<?xml version="1.0" encoding="utf-8"?>
<!-- Generator: Adobe Illustrator 16.0.4, SVG Export Plug-In . SVG Version: 6.00 Build 0)  -->
<!DOCTYPE svg PUBLIC "-//W3C//DTD SVG 1.1//EN" "http://www.w3.org/Graphics/SVG/1.1/DTD/svg11.dtd">
<svg version="1.1" xmlns="http://www.w3.org/2000/svg" xmlns:xlink="http://www.w3.org/1999/xlink" x="0px" y="0px" width="100px"
	 height="100px" viewBox="0 0 100 100" enable-background="new 0 0 100 100" xml:space="preserve">
<g id="Layer_3">
</g>
<g id="Layer_2">
	<g>
		<g>
			<path fill="#F8CF5E" d="M68.78,15.69c0-3.979,2.837-7.028,7.027-7.028c4.234,0,7.028,3.048,7.028,7.028
				c0,3.938-2.794,6.986-7.028,6.986C71.617,22.676,68.78,19.628,68.78,15.69z M79.575,15.69c0-2.499-1.566-4.233-3.768-4.233
				c-2.158,0-3.725,1.735-3.725,4.233c0,2.456,1.566,4.149,3.725,4.149C78.009,19.839,79.575,18.146,79.575,15.69z M73.057,37.324
				L91.093,9.085h2.879L75.893,37.324H73.057z M83.98,30.846c0-3.979,2.835-7.027,7.026-7.027c4.19,0,7.029,3.048,7.029,7.027
				c0,3.938-2.839,6.987-7.029,6.987C86.815,37.833,83.98,34.785,83.98,30.846z M94.774,30.846c0-2.497-1.565-4.234-3.768-4.234
				c-2.2,0-3.769,1.737-3.769,4.234c0,2.456,1.568,4.15,3.769,4.15C93.209,34.996,94.774,33.302,94.774,30.846z"/>
		</g>
		<g>
			<path fill="#F8CF5E" d="M1.964,60.139c0-24.117,14.393-51.477,37.795-51.477c16.807,0,26.041,12,26.041,31.073
				c0,24.126-14.159,51.603-37.561,51.603C11.442,91.338,1.964,79.222,1.964,60.139z M55.599,39.14
				c0-12.362-4.68-21.605-16.915-21.605c-16.562,0-26.646,24.487-26.646,43.208c0,12.362,4.925,21.724,17.042,21.724
				C45.759,82.466,55.599,57.743,55.599,39.14z"/>
		</g>
	</g>
</g>
<g id="Layer_1">
</g>
</svg>
