<?xml version="1.0" encoding="UTF-8" standalone="no"?>
<svg width="122px" height="110px" viewBox="0 0 122 110" version="1.1" xmlns="http://www.w3.org/2000/svg" xmlns:xlink="http://www.w3.org/1999/xlink" xmlns:sketch="http://www.bohemiancoding.com/sketch/ns">
    <!-- Generator: Sketch 3.1.1 (8761) - http://www.bohemiancoding.com/sketch -->
    <title>Slice 2</title>
    <desc>Created with Sketch.</desc>
    <defs></defs>
    <g id="Page-1" stroke="none" stroke-width="1" fill="none" fill-rule="evenodd" sketch:type="MSPage">
        <g id="Group-96" sketch:type="MSLayerGroup" transform="translate(3.000000, 3.000000)">
            <path d="M112.3802,44.082 L115.7971,50 L112.3784,55.923 L103.0593,72.064 L90.3197,49.998 L103.0575,27.934 L112.3802,44.082 Z" id="Fill-55" fill="#F9CF5E" sketch:type="MSShapeGroup"></path>
            <path d="M96.2204,16.093 L99.6373,22.012 L96.2187,27.934 L86.9031,44.08 L74.1618,22.011 L86.8996,-0.053 L96.2204,16.093 Z" id="Fill-57" fill="#F9CF5E" sketch:type="MSShapeGroup"></path>
            <path d="M86.8993,-0.053 L74.1615,22.011 L48.6797,22.013 L58.0033,5.869 L61.422,-0.053 L68.2584,-0.052 L86.8993,-0.053 Z" id="Fill-58" fill="#F9CF5E" sketch:type="MSShapeGroup"></path>
            <path d="M96.2204,72.062 L99.6409,77.986 L96.2222,83.903 L86.8996,100.054 L74.16,77.989 L86.8978,55.917 L96.2204,72.062 Z" id="Fill-59" fill="#F9CF5E" sketch:type="MSShapeGroup"></path>
            <path d="M80.0643,44.08 L83.4812,49.999 L80.0643,55.918 L70.7398,72.065 L57.9994,50 L70.7416,27.933 L80.0643,44.08 Z" id="Fill-60" fill="#F9CF5E" sketch:type="MSShapeGroup"></path>
            <path d="M54.5829,-0.055 L41.8416,22.012 L16.3643,22.011 L25.6852,5.869 L29.102,-0.053 L35.9403,-0.052 L54.5829,-0.055 Z" id="Fill-61" fill="#F9CF5E" sketch:type="MSShapeGroup"></path>
            <path d="M70.7413,27.933 L58,50 L32.5227,49.999 L41.8418,33.852 L45.2613,27.936 L52.0969,27.931 L70.7413,27.933 Z" id="Fill-62" fill="#F9CF5E" sketch:type="MSShapeGroup"></path>
            <path d="M74.1597,77.989 L86.8993,100.054 L68.2548,100.049 L68.2522,100.052 L61.422,100.052 L58.0015,94.128 L48.678,77.982 L74.1597,77.989 Z" id="Fill-63" fill="#F9CF5E" sketch:type="MSShapeGroup"></path>
            <path d="M57.9996,50 L70.74,72.065 L52.0982,72.065 L45.2618,72.064 L41.8449,66.146 L32.5231,49.999 L57.9996,50 Z" id="Fill-64" fill="#F9CF5E" sketch:type="MSShapeGroup"></path>
            <path d="M38.4241,27.934 L25.6863,49.997 L0.2045,50 L9.529,33.855 L12.9476,27.933 L19.7841,27.935 L38.4241,27.934 Z" id="Fill-65" fill="#F9CF5E" sketch:type="MSShapeGroup"></path>
            <path d="M41.8451,77.985 L54.5846,100.051 L35.9393,100.055 L29.102,100.053 L25.6851,94.135 L16.3633,77.988 L41.8451,77.985 Z" id="Fill-66" fill="#F9CF5E" sketch:type="MSShapeGroup"></path>
            <path d="M25.6862,49.997 L38.4284,72.067 L19.7804,72.066 L12.9431,72.064 L9.5262,66.146 L0.2044,50 L25.6862,49.997 Z" id="Fill-67" fill="#F9CF5E" sketch:type="MSShapeGroup"></path>
            <path d="M74.158,77.986 L86.8993335,55.9202219" id="Stroke-68" stroke="#FFFFFF" sketch:type="MSShapeGroup"></path>
            <path d="M48.6784,77.986 L74.1584003,77.986" id="Stroke-69" stroke="#FFFFFF" sketch:type="MSShapeGroup"></path>
            <path d="M86.8976,100.054 L74.1580443,77.9864442" id="Stroke-70" stroke="#FFFFFF" sketch:type="MSShapeGroup"></path>
            <path d="M90.316,50 L103.057333,27.9324442" id="Stroke-71" stroke="#FFFFFF" sketch:type="MSShapeGroup"></path>
            <path d="M83.4809,50 L90.3155668,50" id="Stroke-72" stroke="#FFFFFF" sketch:type="MSShapeGroup"></path>
            <path d="M103.0556,72.066 L90.3160443,50.0002219" id="Stroke-73" stroke="#FFFFFF" sketch:type="MSShapeGroup"></path>
            <path d="M32.5196,50 L57.9996003,50" id="Stroke-74" stroke="#FFFFFF" sketch:type="MSShapeGroup"></path>
            <path d="M45.26,27.934 L41.8413333,22.0139999" id="Stroke-75" stroke="#FFFFFF" sketch:type="MSShapeGroup"></path>
            <path d="M74.158,22.013 L86.8993335,-0.0536669425" id="Stroke-76" stroke="#FFFFFF" sketch:type="MSShapeGroup"></path>
            <path d="M48.6784,22.014 L74.1584003,22.014" id="Stroke-77" stroke="#FFFFFF" sketch:type="MSShapeGroup"></path>
            <path d="M86.8976,44.08 L74.1580443,22.0133331" id="Stroke-78" stroke="#FFFFFF" sketch:type="MSShapeGroup"></path>
            <path d="M57.9996,50 L70.7400446,27.9333331" id="Stroke-79" stroke="#FFFFFF" sketch:type="MSShapeGroup"></path>
            <path d="M41.8416,22.013 L54.5820446,-0.0536669425" id="Stroke-80" stroke="#FFFFFF" sketch:type="MSShapeGroup"></path>
            <path d="M16.3615,22.013 L41.8415003,22.013" id="Stroke-81" stroke="#FFFFFF" sketch:type="MSShapeGroup"></path>
            <path d="M70.7396,72.066 L57.9991554,50.0002219" id="Stroke-82" stroke="#FFFFFF" sketch:type="MSShapeGroup"></path>
            <path d="M25.6836,50 L38.4240446,27.9342219" id="Stroke-83" stroke="#FFFFFF" sketch:type="MSShapeGroup"></path>
            <path d="M0.2036,50 L25.6836003,50" id="Stroke-84" stroke="#FFFFFF" sketch:type="MSShapeGroup"></path>
            <path d="M38.4241,72.066 L25.6836554,50.0002219" id="Stroke-85" stroke="#FFFFFF" sketch:type="MSShapeGroup"></path>
            <path d="M41.8416,77.986 L45.2602667,72.0659999" id="Stroke-86" stroke="#FFFFFF" sketch:type="MSShapeGroup"></path>
            <path d="M16.3607,77.986 L41.8415892,77.986" id="Stroke-87" stroke="#FFFFFF" sketch:type="MSShapeGroup"></path>
            <path d="M54.582,100.052 L41.8415554,77.9862219" id="Stroke-88" stroke="#FFFFFF" sketch:type="MSShapeGroup"></path>
            <path d="M58.0004,5.868 L54.5817333,-0.0528889629 L29.101733,-0.052000074 L16.3612884,22.013778 L19.7799551,27.9346669" id="Stroke-89" stroke="#353558" stroke-width="2" stroke-linecap="round" stroke-linejoin="round" sketch:type="MSShapeGroup"></path>
            <path d="M96.2204,72.066 L103.055067,72.066 L115.7964,50.0002219 L103.056845,27.9326661 L96.2204,27.933555" id="Stroke-90" stroke="#353558" stroke-width="2" stroke-linecap="round" stroke-linejoin="round" sketch:type="MSShapeGroup"></path>
            <path d="M52.0959,72.066 L48.6781222,77.9860001 L61.4185668,100.052667 L86.8976782,100.053556 L99.6390117,77.9860001 L86.899456,55.920222 L80.0621226,55.920222" id="Stroke-91" stroke="#353558" stroke-width="2" stroke-linecap="round" stroke-linejoin="round" sketch:type="MSShapeGroup"></path>
            <path d="M80.0625,44.079 L86.8971668,44.079 L99.6385002,22.0123331 L86.8989445,-0.0534449961 L61.4180553,-0.0534449961 L48.6784996,22.0132219 L52.0962774,27.933222" id="Stroke-92" stroke="#353558" stroke-width="2" stroke-linecap="round" stroke-linejoin="round" sketch:type="MSShapeGroup"></path>
            <path d="M41.8416,33.854 L38.4238222,27.9339999 L12.9438219,27.933111 L0.203377257,50.0006669 L12.942933,72.065556 L38.4238222,72.065556 L41.8416,66.145556" id="Stroke-93" stroke="#353558" stroke-width="2" stroke-linecap="round" stroke-linejoin="round" sketch:type="MSShapeGroup"></path>
            <path d="M45.26,72.066 L70.7400003,72.066 L83.4813338,49.9993331 L70.7400003,27.933555 L45.26,27.933555 L32.5195554,49.9993331 L45.26,72.066 L45.26,72.066 Z" id="Stroke-94" stroke="#353558" stroke-width="2" stroke-linecap="round" stroke-linejoin="round" sketch:type="MSShapeGroup"></path>
            <path d="M19.7799,72.066 L16.3603444,77.9860001 L29.1016779,100.053556 L54.5816782,100.051778 L57.999456,94.1326669" id="Stroke-95" stroke="#353558" stroke-width="2" stroke-linecap="round" stroke-linejoin="round" sketch:type="MSShapeGroup"></path>
        </g>
    </g>
</svg>