<?xml version="1.0" encoding="utf-8"?>
<!-- Generator: Adobe Illustrator 16.0.4, SVG Export Plug-In . SVG Version: 6.00 Build 0)  -->
<!DOCTYPE svg PUBLIC "-//W3C//DTD SVG 1.1//EN" "http://www.w3.org/Graphics/SVG/1.1/DTD/svg11.dtd">
<svg version="1.1" id="Layer_1" xmlns="http://www.w3.org/2000/svg" xmlns:xlink="http://www.w3.org/1999/xlink" x="0px" y="0px"
	 width="132.04px" height="114.619px" viewBox="120.535 128.803 132.04 114.619"
	 enable-background="new 120.535 128.803 132.04 114.619" xml:space="preserve">
<g id="logo">
	<g id="blockchain">
		<g>
			<polygon fill="#F8CF5E" points="237.243,161.293 251.573,186.114 237.243,210.934 222.913,186.114 			"/>
			<polygon fill="#F8CF5E" points="229.555,210.934 233.404,217.594 229.555,224.252 233.395,217.594 			"/>
			<polygon fill="#F8CF5E" points="219.062,129.803 233.395,154.623 219.062,179.444 204.734,154.634 204.732,154.623 			"/>
			<polygon fill="#F8CF5E" points="229.555,210.934 233.395,217.594 229.555,224.252 219.062,242.422 204.734,217.604 
				204.732,217.594 219.062,192.773 			"/>
			<polygon fill="#F8CF5E" points="229.555,161.293 219.073,179.453 219.062,179.444 233.395,154.623 			"/>
			<polygon fill="#F8CF5E" points="219.062,129.803 204.732,154.623 176.073,154.623 186.554,136.463 190.402,129.803 			"/>
			<polygon fill="#F8CF5E" points="204.734,217.604 219.062,242.422 190.402,242.422 186.554,235.766 176.063,217.594 			"/>
			<polygon fill="#F8CF5E" points="200.884,161.284 179.913,161.294 179.913,161.284 			"/>
			<polygon fill="#F8CF5E" points="182.714,242.414 182.714,242.422 182.704,242.422 			"/>
			<polygon fill="#F8CF5E" points="182.704,129.803 182.714,129.803 182.714,129.815 			"/>
			<polygon fill="#F8CF5E" points="182.714,129.815 173.624,145.543 182.704,129.803 			"/>
			<polygon fill="#F8CF5E" points="182.704,129.803 173.624,145.543 168.374,154.623 139.714,154.623 154.044,129.803 			"/>
			<polygon fill="#F8CF5E" points="168.374,217.594 182.704,242.422 154.044,242.422 146.144,228.732 139.724,217.604 			"/>
			<polygon fill="#F8CF5E" points="179.913,161.284 179.913,161.294 172.224,161.293 179.903,161.284 			"/>
			<polygon fill="#F8CF5E" points="168.374,167.944 172.224,161.293 168.374,167.954 			"/>
			<polygon fill="#F8CF5E" points="168.374,217.594 168.384,217.594 182.714,242.414 182.704,242.422 			"/>
			<polygon fill="#F8CF5E" points="164.534,161.294 150.204,186.114 150.194,186.114 			"/>
			<polygon fill="#F8CF5E" points="164.534,210.934 164.534,210.943 143.554,210.934 164.524,210.934 			"/>
			<polygon fill="#F8CF5E" points="159.284,201.855 164.524,210.934 143.554,210.934 135.864,210.934 121.534,186.114 
				150.194,186.114 			"/>
			<polygon fill="#F8CF5E" points="150.194,186.114 150.204,186.114 159.284,201.855 			"/>
			<polygon fill="#F8CF5E" points="146.144,228.732 139.714,217.604 139.724,217.604 			"/>
			<polygon fill="#F8CF5E" points="143.554,161.294 143.563,161.293 164.534,161.294 150.194,186.114 121.534,186.114 
				135.864,161.293 			"/>
			<polygon fill="#F8CF5E" points="143.554,161.294 135.864,161.293 135.874,161.284 			"/>
		</g>
		<g>
			
				<rect x="211.397" y="190.849" transform="matrix(0.8663 0.4996 -0.4996 0.8663 130.85 -78.4231)" fill="#FFFFFF" width="0.999" height="28.658"/>
			<rect x="176.063" y="217.094" fill="#FFFFFF" width="28.669" height="1"/>
			<polygon fill="#FFFFFF" points="218.631,242.672 204.248,217.762 204.236,217.654 204.745,217.598 205.167,217.354 
				219.496,242.172 			"/>
			<polygon fill="#FFFFFF" points="223.346,186.364 222.48,185.864 236.93,160.822 237.184,160.796 237.238,161.297 
				237.666,161.544 			"/>
			<rect x="215.225" y="185.614" fill="#FFFFFF" width="7.688" height="1"/>
			
				<rect x="215.746" y="198.023" transform="matrix(0.5 0.866 -0.866 0.5 286.9609 -99.9909)" fill="#FFFFFF" width="28.66" height="0.999"/>
			
				<rect x="166.466" y="157.466" transform="matrix(0.5006 0.8657 -0.8657 0.5006 221.8132 -68.5441)" fill="#FFFFFF" width="7.692" height="1"/>
			<polygon fill="#FFFFFF" points="205.166,154.873 204.741,154.627 204.236,154.679 204.221,154.51 204.301,154.373 
				218.631,129.553 219.496,130.053 			"/>
			<polygon fill="#FFFFFF" points="204.734,155.134 176.083,155.133 176.063,154.133 204.734,154.134 			"/>
			
				<rect x="197.568" y="166.538" transform="matrix(0.5001 0.866 -0.866 0.5001 250.5696 -99.9924)" fill="#FFFFFF" width="28.653" height="0.999"/>
			<polygon fill="#FFFFFF" points="168.807,154.874 168.383,154.628 167.874,154.634 167.874,154.489 182.271,129.553 
				183.137,130.053 			"/>
			<rect x="139.714" y="154.128" fill="#FFFFFF" width="28.66" height="1"/>
			
				<rect x="156.872" y="159.361" transform="matrix(0.866 0.5 -0.5 0.866 107.9247 -55.4138)" fill="#FFFFFF" width="0.999" height="28.667"/>
			<rect x="121.534" y="185.614" fill="#FFFFFF" width="28.66" height="1"/>
			
				<rect x="143.016" y="198.018" transform="matrix(0.5002 0.8659 -0.8659 0.5002 250.5388 -37.0316)" fill="#FFFFFF" width="28.666" height="1"/>
			
				<rect x="169.81" y="210.417" transform="matrix(0.8666 0.499 -0.499 0.8666 129.6287 -56.4013)" fill="#FFFFFF" width="1" height="7.693"/>
			<polygon fill="#FFFFFF" points="168.374,218.094 139.724,218.094 139.714,217.094 168.374,217.094 			"/>
			
				<rect x="161.21" y="229.51" transform="matrix(0.4999 0.8661 -0.8661 0.4999 286.9978 -37.0067)" fill="#FFFFFF" width="28.667" height="1"/>
			<path fill="#353558" d="M143.555,162.294c-0.346,0-0.683-0.18-0.868-0.501l-3.84-6.671c-0.178-0.31-0.178-0.69,0-0.999
				l14.33-24.82c0.179-0.31,0.509-0.5,0.866-0.5h28.66c0.304,0,0.591,0.138,0.781,0.375c0.032,0.039,0.07,0.093,0.095,0.137
				l3.84,6.648c0.276,0.478,0.112,1.09-0.366,1.366c-0.478,0.277-1.09,0.113-1.366-0.366l-3.559-6.161H154.62l-13.753,23.821
				l3.552,6.171c0.275,0.479,0.111,1.09-0.368,1.366C143.896,162.251,143.724,162.294,143.555,162.294z"/>
			<path fill="#353558" d="M237.243,211.934h-7.688c-0.553,0-1-0.447-1-1c0-0.551,0.447-1,1-1h7.111l13.753-23.818l-13.758-23.829
				l-7.106,0.009l0,0c-0.553,0-1-0.447-1-0.999c-0.002-0.552,0.445-1.001,0.998-1.001l7.689-0.01h0.001
				c0.265,0,0.521,0.105,0.707,0.292c0.085,0.085,0.153,0.185,0.202,0.293l14.287,24.744c0.179,0.311,0.179,0.691,0,1l-14.33,24.819
				C237.932,211.744,237.602,211.934,237.243,211.934z"/>
			<path fill="#353558" d="M219.062,243.422h-28.66c-0.356,0-0.688-0.189-0.864-0.498l-14.341-24.83c-0.179-0.309-0.178-0.689,0-1
				l3.85-6.66c0.275-0.479,0.887-0.643,1.366-0.365c0.478,0.277,0.642,0.891,0.365,1.367l-3.561,6.16l13.762,23.826h27.506
				l13.754-23.828l-13.754-23.82h-7.11c-0.554,0-1-0.445-1-1c0-0.551,0.446-1,1-1h7.688c0.356,0,0.688,0.191,0.865,0.5l14.33,24.822
				c0.18,0.309,0.18,0.689,0,0.998l-14.33,24.828C219.751,243.232,219.421,243.422,219.062,243.422z"/>
			<path fill="#353558" d="M219.062,180.455L219.062,180.455l-7.688-0.001c-0.554,0-1-0.448-1-1c0-0.552,0.448-1,1-1l0,0
				l7.106,0.001l13.758-23.832l-13.752-23.82H190.98l-13.76,23.834l3.498,6.059c0.122,0.165,0.195,0.368,0.195,0.588
				c0,0.552-0.448,1.005-1,1.005c-0.27,0-0.514-0.105-0.694-0.277c-0.071-0.066-0.132-0.143-0.182-0.228l-3.84-6.65
				c-0.195-0.339-0.174-0.755,0.044-1.069l14.296-24.762c0.179-0.309,0.509-0.5,0.865-0.5h28.66c0.356,0,0.688,0.19,0.867,0.5
				l14.328,24.82c0.18,0.31,0.18,0.69,0,1l-14.303,24.774c-0.048,0.096-0.109,0.184-0.188,0.26
				C219.583,180.344,219.329,180.455,219.062,180.455z"/>
			<path fill="#353558" d="M164.534,211.934h-28.67c-0.357,0-0.688-0.188-0.866-0.5l-14.33-24.818c-0.178-0.309-0.178-0.689,0-1
				l14.33-24.821c0.179-0.31,0.509-0.5,0.866-0.5l0,0l28.67,0.001c0.357,0,0.688,0.19,0.866,0.5l3.84,6.65
				c0.087,0.152,0.134,0.324,0.134,0.5c0,0.552-0.448,1.005-1,1.005c-0.405,0-0.753-0.238-0.911-0.582l-3.506-6.073l-27.516-0.001
				l-13.752,23.821l13.752,23.818h27.515l3.551-6.158c0.275-0.479,0.887-0.645,1.366-0.365s0.643,0.889,0.367,1.365l-3.84,6.658
				C165.222,211.744,164.892,211.934,164.534,211.934z"/>
			<path fill="#353558" d="M200.884,211.934h-28.66c-0.357,0-0.688-0.188-0.866-0.5l-3.802-6.584
				c-0.017-0.021-0.033-0.049-0.047-0.074l-10.49-18.162c-0.179-0.309-0.179-0.69,0-1l14.34-24.821c0.179-0.309,0.509-0.5,0.866-0.5
				l0,0l7.689,0.001l20.97-0.01c0.001,0,0.001,0,0.001,0c0.357,0,0.688,0.19,0.866,0.5l14.341,24.83
				c0.18,0.31,0.18,0.691-0.001,1.001l-14.34,24.818C201.57,211.744,201.241,211.934,200.884,211.934z M172.801,209.934h27.506
				l13.764-23.818l-13.764-23.83l-20.393,0.01l-7.113-0.001l-13.762,23.822l10.152,17.573c0.034,0.045,0.063,0.096,0.089,0.146
				L172.801,209.934z"/>
			<path fill="#353558" d="M182.704,243.422h-28.66c-0.357,0-0.688-0.189-0.866-0.5l-14.269-24.729
				c-0.122-0.166-0.195-0.369-0.195-0.59c0-0.174,0.046-0.357,0.134-0.508l3.84-6.66c0.275-0.479,0.888-0.646,1.366-0.367
				c0.479,0.273,0.643,0.887,0.367,1.365l-3.55,6.154l13.751,23.832h27.51l3.557-6.154c0.275-0.479,0.888-0.646,1.366-0.365
				c0.479,0.273,0.643,0.887,0.366,1.365l-3.84,6.646c-0.052,0.09-0.119,0.172-0.197,0.24
				C183.199,243.322,182.951,243.422,182.704,243.422z"/>
		</g>
	</g>
	<g id="cubits">
		<polyline fill="#F8CF5E" points="157.883,186.114 172.218,210.943 200.889,210.943 190.139,192.32 182.97,192.32 179.385,186.114 
					"/>
		<path fill="#353558" d="M200.889,211.443c-0.172,0-0.342-0.09-0.434-0.25L189.85,192.82h-6.877c-0.178,0-0.344-0.094-0.433-0.25
			l-3.585-6.206c-0.139-0.239-0.057-0.545,0.183-0.683c0.238-0.139,0.544-0.057,0.683,0.183l3.441,5.956h6.88
			c0.178,0,0.344,0.096,0.432,0.25l10.75,18.623c0.14,0.24,0.058,0.545-0.182,0.684
			C201.059,211.422,200.973,211.443,200.889,211.443z"/>
		<polyline fill="#F8CF5E" points="179.385,186.114 157.883,186.114 172.218,161.285 200.889,161.285 190.139,179.907 
			182.97,179.907 179.385,186.114 		"/>
		<path fill="#353558" d="M179.384,186.614c-0.084,0-0.17-0.021-0.249-0.067c-0.239-0.138-0.321-0.443-0.183-0.683l3.585-6.207
			c0.089-0.155,0.255-0.25,0.433-0.25h6.879l10.604-18.373c0.139-0.239,0.441-0.319,0.686-0.183
			c0.236,0.138,0.318,0.444,0.182,0.683l-10.75,18.623c-0.088,0.155-0.254,0.25-0.432,0.25h-6.881l-3.441,5.957
			C179.726,186.525,179.558,186.614,179.384,186.614z"/>
		<path fill="#353558" d="M179.385,186.614h-21.502c-0.276,0-0.5-0.224-0.5-0.5c0-0.276,0.224-0.5,0.5-0.5h21.502
			c0.276,0,0.5,0.224,0.5,0.5C179.885,186.39,179.662,186.614,179.385,186.614z"/>
		<path fill="#353558" d="M172.218,211.443c-0.085,0-0.171-0.021-0.25-0.066c-0.16-0.093-0.25-0.26-0.25-0.434
			c0-0.084,0.021-0.17,0.067-0.25l14.335-24.829c0.138-0.239,0.442-0.321,0.682-0.183c0.16,0.092,0.25,0.26,0.25,0.433
			c0,0.085-0.021,0.171-0.066,0.25l-14.334,24.829C172.559,211.354,172.391,211.443,172.218,211.443z"/>
		
			<rect x="165.058" y="173.201" transform="matrix(0.5 0.866 -0.866 0.5 240.1228 -68.509)" fill="#353558" width="28.669" height="1"/>
		<rect x="186.553" y="185.614" fill="#353558" width="28.671" height="1"/>
		<path fill="#353558" d="M200.889,211.943H172.22c-0.357,0-0.688-0.189-0.865-0.5l-14.336-24.831c-0.178-0.31-0.178-0.69,0-1
			l14.336-24.83c0.178-0.31,0.508-0.5,0.865-0.5h28.651c0.389-0.006,0.695,0.174,0.885,0.5l14.336,24.83c0.182,0.31,0.182,0.69,0,1
			l-14.336,24.831C201.576,211.754,201.246,211.943,200.889,211.943z M172.796,209.943h27.515l13.76-23.829l-13.76-23.83h-27.515
			l-13.758,23.83L172.796,209.943z"/>
	</g>
</g>
</svg>
