<?xml version="1.0" encoding="utf-8"?>
<!-- Generator: Adobe Illustrator 16.0.4, SVG Export Plug-In . SVG Version: 6.00 Build 0)  -->
<!DOCTYPE svg PUBLIC "-//W3C//DTD SVG 1.1//EN" "http://www.w3.org/Graphics/SVG/1.1/DTD/svg11.dtd">
<svg version="1.1" id="Layer_1" xmlns="http://www.w3.org/2000/svg" xmlns:xlink="http://www.w3.org/1999/xlink" x="0px" y="0px"
	 width="132.04px" height="114.619px" viewBox="0 0 132.04 114.619" enable-background="new 0 0 132.04 114.619"
	 xml:space="preserve">
<g id="blockchain">
	<g>
		<polygon fill="#F8CF5E" points="116.708,32.49 131.04,57.312 116.708,82.131 102.377,57.312 		"/>
		<polygon fill="#F8CF5E" points="109.021,82.131 112.872,88.791 109.019,95.449 112.859,88.791 		"/>
		<polygon fill="#F8CF5E" points="98.529,1 112.859,25.82 98.529,50.642 84.202,25.831 84.2,25.82 		"/>
		<polygon fill="#F8CF5E" points="109.021,82.131 112.859,88.791 109.019,95.449 98.529,113.619 84.202,88.801 84.2,88.791 
			98.529,63.972 		"/>
		<polygon fill="#F8CF5E" points="109.019,32.491 98.54,50.65 98.529,50.642 112.859,25.82 		"/>
		<polygon fill="#F8CF5E" points="98.529,1 84.2,25.82 55.539,25.82 66.019,7.661 69.87,1 		"/>
		<polygon fill="#F8CF5E" points="84.202,88.801 98.529,113.619 69.87,113.619 66.019,106.963 55.529,88.791 		"/>
		<polygon fill="#F8CF5E" points="80.349,32.481 59.378,32.491 59.378,32.481 		"/>
		<polygon fill="#F8CF5E" points="62.179,113.61 62.179,113.619 62.169,113.619 		"/>
		<polygon fill="#F8CF5E" points="62.169,1 62.179,1.001 62.179,1.013 		"/>
		<polygon fill="#F8CF5E" points="62.179,1.013 53.089,16.74 62.169,1 		"/>
		<polygon fill="#F8CF5E" points="62.169,1 53.089,16.74 47.839,25.82 19.179,25.82 33.509,1 		"/>
		<polygon fill="#F8CF5E" points="47.839,88.791 62.169,113.619 33.509,113.619 25.609,99.931 19.189,88.801 		"/>
		<polygon fill="#F8CF5E" points="59.378,32.481 59.378,32.491 51.689,32.49 59.369,32.481 		"/>
		<polygon fill="#F8CF5E" points="47.839,39.142 51.689,32.49 47.839,39.151 		"/>
		<polygon fill="#F8CF5E" points="47.839,88.791 47.849,88.791 62.179,113.61 62.169,113.619 		"/>
		<polygon fill="#F8CF5E" points="44,32.491 29.669,57.312 29.66,57.312 		"/>
		<polygon fill="#F8CF5E" points="44,82.131 44,82.142 23.019,82.131 43.99,82.131 		"/>
		<polygon fill="#F8CF5E" points="38.75,73.054 43.99,82.131 23.019,82.131 15.33,82.131 1,57.312 29.66,57.312 		"/>
		<polygon fill="#F8CF5E" points="29.66,57.312 29.669,57.312 38.75,73.054 		"/>
		<polygon fill="#F8CF5E" points="25.609,99.931 19.179,88.801 19.189,88.801 		"/>
		<polygon fill="#F8CF5E" points="23.019,32.491 23.029,32.49 44,32.491 29.66,57.312 1,57.312 15.33,32.49 		"/>
		<polygon fill="#F8CF5E" points="23.019,32.491 15.33,32.49 15.339,32.481 		"/>
	</g>
	<g>
		
			<rect x="90.866" y="62.045" transform="matrix(-0.8658 -0.5003 0.5003 -0.8658 132.2581 188.2165)" fill="#FFFFFF" width="0.999" height="28.659"/>
		<rect x="55.529" y="88.291" fill="#FFFFFF" width="28.671" height="1"/>
		<polygon fill="#FFFFFF" points="98.097,113.869 83.713,88.959 83.704,88.853 84.209,88.795 84.631,88.551 98.961,113.369 		"/>
		<polygon fill="#FFFFFF" points="102.812,57.562 101.947,57.062 116.394,32.019 116.65,31.993 116.706,32.494 117.131,32.741 		"/>
		<rect x="94.691" y="56.812" fill="#FFFFFF" width="7.688" height="1"/>
		
			<rect x="95.214" y="69.219" transform="matrix(-0.5 -0.866 0.866 -0.5 103.9417 199.4457)" fill="#FFFFFF" width="28.658" height="0.999"/>
		
			<rect x="45.921" y="28.659" transform="matrix(-0.5005 -0.8657 0.8657 -0.5005 49.4295 86.8387)" fill="#FFFFFF" width="7.692" height="1"/>
		<polygon fill="#FFFFFF" points="84.631,26.07 84.208,25.825 83.704,25.876 83.687,25.708 83.767,25.57 98.097,0.75 98.961,1.25 		
			"/>
		<polygon fill="#FFFFFF" points="84.202,26.331 55.548,26.331 55.529,25.331 84.202,25.331 		"/>
		
			<rect x="77.037" y="37.732" transform="matrix(-0.5001 -0.8659 0.8659 -0.5001 103.9492 136.4664)" fill="#FFFFFF" width="28.65" height="0.998"/>
		<polygon fill="#FFFFFF" points="48.273,26.071 47.849,25.825 47.339,25.831 47.339,25.687 61.737,0.75 62.603,1.25 		"/>
		<rect x="19.179" y="25.326" fill="#FFFFFF" width="28.66" height="1"/>
		
			<rect x="36.332" y="30.569" transform="matrix(-0.8661 -0.4999 0.4999 -0.8661 46.2833 102.2035)" fill="#FFFFFF" width="1" height="28.665"/>
		<rect x="1" y="56.812" fill="#FFFFFF" width="28.66" height="1"/>
		
			<rect x="22.496" y="69.225" transform="matrix(-0.5003 -0.8659 0.8659 -0.5003 -5.118 136.4959)" fill="#FFFFFF" width="28.667" height="1"/>
		
			<rect x="49.268" y="81.617" transform="matrix(-0.8659 -0.5001 0.5001 -0.8659 50.1216 184.3599)" fill="#FFFFFF" width="1" height="7.692"/>
		<polygon fill="#FFFFFF" points="47.839,89.291 19.189,89.291 19.179,88.291 47.839,88.291 		"/>
		
			<rect x="40.671" y="100.707" transform="matrix(-0.4999 -0.8661 0.8661 -0.4999 -5.1535 199.4372)" fill="#FFFFFF" width="28.668" height="1"/>
		<path fill="#FFFFFF" d="M23.021,33.491c-0.347,0-0.684-0.18-0.868-0.501l-3.84-6.671c-0.179-0.31-0.178-0.689,0.001-0.999
			L32.644,0.5C32.822,0.19,33.152,0,33.509,0h28.66c0.305,0,0.592,0.138,0.781,0.376c0.031,0.039,0.07,0.092,0.095,0.137
			l3.841,6.648c0.274,0.478,0.11,1.09-0.367,1.365c-0.477,0.277-1.09,0.113-1.365-0.365L61.595,2H34.087L20.333,25.821l3.553,6.171
			c0.275,0.479,0.111,1.091-0.367,1.366C23.361,33.448,23.189,33.491,23.021,33.491z"/>
		<path fill="#FFFFFF" d="M116.708,83.131h-7.688c-0.553,0-1-0.446-1-1c0-0.551,0.447-1,1-1h7.111l13.752-23.819l-13.758-23.83
			l-7.105,0.01h-0.002c-0.551,0-0.998-0.447-1-0.999c0-0.552,0.447-1.001,1-1.001l7.689-0.01l0,0c0.266,0,0.52,0.104,0.707,0.292
			c0.086,0.085,0.153,0.185,0.203,0.294l14.286,24.744c0.179,0.311,0.179,0.691,0,1l-14.329,24.819
			C117.396,82.94,117.066,83.131,116.708,83.131z"/>
		<path fill="#FFFFFF" d="M98.529,114.619H69.87c-0.357,0-0.687-0.188-0.865-0.498l-14.34-24.83c-0.18-0.31-0.179-0.688,0-1
			l3.85-6.66c0.275-0.479,0.887-0.644,1.366-0.364c0.478,0.276,0.642,0.889,0.365,1.366l-3.561,6.16l13.763,23.826h27.507
			l13.752-23.828L97.954,64.972H90.84c-0.553,0-1-0.447-1-1c0-0.552,0.447-1,1-1h7.688c0.357,0,0.688,0.19,0.867,0.5l14.33,24.821
			c0.178,0.31,0.178,0.688,0,0.998l-14.33,24.828C99.215,114.431,98.886,114.619,98.529,114.619z"/>
		<path fill="#FFFFFF" d="M98.529,51.651L98.529,51.651H90.84c-0.553,0-1-0.448-1-1c0-0.553,0.449-1,1-1l0,0h7.106l13.759-23.831
			L97.954,2H70.447L56.686,25.834l3.498,6.059c0.122,0.165,0.194,0.368,0.194,0.589c0,0.552-0.447,1.004-1,1.004
			c-0.27,0-0.514-0.104-0.693-0.276c-0.07-0.065-0.133-0.143-0.182-0.228l-3.84-6.65c-0.195-0.34-0.174-0.756,0.043-1.07
			L69.002,0.499C69.181,0.19,69.511,0,69.87,0h28.659c0.357,0,0.688,0.19,0.867,0.5l14.33,24.82c0.178,0.31,0.178,0.69,0,1
			L99.422,51.095c-0.049,0.096-0.11,0.184-0.188,0.26C99.047,51.542,98.793,51.651,98.529,51.651z"/>
		<path fill="#FFFFFF" d="M44,83.131H15.33c-0.357,0-0.688-0.188-0.865-0.5L0.134,57.812c-0.179-0.309-0.179-0.688,0-1l14.33-24.821
			c0.178-0.31,0.508-0.5,0.865-0.5l0,0H44c0.357,0,0.688,0.19,0.867,0.5l3.84,6.65c0.087,0.151,0.133,0.324,0.133,0.5
			c0,0.552-0.447,1.004-1,1.004c-0.404,0-0.752-0.237-0.91-0.582l-3.506-6.072L15.908,33.49L2.155,57.312l13.753,23.819h27.515
			l3.552-6.157c0.275-0.479,0.887-0.646,1.365-0.367c0.478,0.277,0.643,0.889,0.367,1.367l-3.84,6.657
			C44.687,82.94,44.357,83.131,44,83.131z"/>
		<path fill="#FFFFFF" d="M80.349,83.131h-28.66c-0.357,0-0.688-0.188-0.865-0.5l-3.803-6.584c-0.016-0.022-0.032-0.049-0.047-0.073
			l-10.49-18.162c-0.18-0.309-0.18-0.69,0-1l14.34-24.822c0.179-0.309,0.509-0.499,0.865-0.499l0,0l7.689,0.001l20.971-0.01l0,0
			c0.356,0,0.688,0.189,0.866,0.5l14.341,24.83c0.18,0.309,0.18,0.691,0,1L81.215,82.631C81.038,82.94,80.708,83.131,80.349,83.131z
			 M52.267,81.131h27.506l13.763-23.819l-13.763-23.83l-20.394,0.01l-7.112-0.001L38.504,57.312l10.151,17.576
			c0.034,0.045,0.064,0.094,0.09,0.145L52.267,81.131z"/>
		<path fill="#FFFFFF" d="M62.169,114.619h-28.66c-0.357,0-0.688-0.188-0.865-0.5L18.374,89.39c-0.122-0.166-0.195-0.369-0.195-0.59
			c0-0.174,0.047-0.357,0.135-0.508l3.84-6.66c0.275-0.479,0.887-0.645,1.365-0.367c0.479,0.275,0.643,0.887,0.367,1.365
			l-3.551,6.156l13.752,23.832h27.51l3.557-6.156c0.275-0.479,0.889-0.645,1.365-0.365c0.479,0.275,0.644,0.887,0.367,1.365
			l-3.841,6.648c-0.052,0.09-0.118,0.172-0.196,0.242C62.666,114.521,62.417,114.619,62.169,114.619z"/>
	</g>
</g>
<g id="cubits">
	<polyline fill="#F8CF5E" points="37.349,57.312 51.684,82.142 80.355,82.142 69.605,63.519 62.436,63.519 58.851,57.312 	"/>
	<path fill="#FFFFFF" d="M80.355,82.642c-0.172,0-0.342-0.09-0.435-0.25L69.316,64.019h-6.88c-0.178,0-0.344-0.095-0.433-0.25
		l-3.585-6.207c-0.139-0.239-0.057-0.545,0.183-0.683c0.238-0.139,0.544-0.057,0.683,0.183l3.441,5.957h6.88
		c0.179,0,0.345,0.096,0.433,0.25l10.75,18.623c0.139,0.239,0.057,0.545-0.183,0.684C80.525,82.619,80.439,82.642,80.355,82.642z"/>
	<polyline fill="#F8CF5E" points="58.851,57.312 62.436,51.104 69.605,51.104 80.355,32.481 51.684,32.481 37.349,57.312 
		58.851,57.312 	"/>
	<path fill="#FFFFFF" d="M58.85,57.812c-0.084,0-0.17-0.021-0.249-0.066c-0.239-0.138-0.321-0.443-0.183-0.683l3.585-6.207
		c0.089-0.154,0.255-0.25,0.433-0.25h6.88L79.92,32.232c0.14-0.238,0.443-0.318,0.685-0.183c0.237,0.138,0.319,0.444,0.183,0.683
		l-10.75,18.623c-0.088,0.154-0.254,0.25-0.433,0.25h-6.88l-3.441,5.957C59.192,57.723,59.024,57.812,58.85,57.812z"/>
	<path fill="#FFFFFF" d="M58.851,57.812H37.349c-0.276,0-0.5-0.224-0.5-0.5s0.224-0.5,0.5-0.5h21.502c0.276,0,0.5,0.224,0.5,0.5
		S59.127,57.812,58.851,57.812z"/>
	<path fill="#FFFFFF" d="M51.684,82.642c-0.085,0-0.171-0.021-0.25-0.066c-0.16-0.094-0.25-0.26-0.25-0.434
		c0-0.084,0.021-0.17,0.067-0.25l14.335-24.83c0.138-0.239,0.442-0.321,0.683-0.183c0.16,0.092,0.25,0.26,0.25,0.433
		c0,0.085-0.021,0.171-0.066,0.25l-14.335,24.83C52.025,82.551,51.857,82.642,51.684,82.642z"/>
	
		<rect x="44.52" y="44.396" transform="matrix(-0.5 -0.866 0.866 -0.5 49.4033 118.3137)" fill="#FFFFFF" width="28.67" height="1"/>
	<rect x="66.019" y="56.812" fill="#FFFFFF" width="28.672" height="1"/>
	<path fill="#FFFFFF" d="M80.355,83.142H51.684c-0.357,0-0.688-0.189-0.865-0.5l-14.336-24.83c-0.178-0.31-0.178-0.689,0-1
		l14.336-24.83c0.178-0.309,0.508-0.5,0.865-0.5h28.65c0.39-0.006,0.697,0.174,0.886,0.5l14.336,24.83c0.18,0.31,0.18,0.69,0,1
		L81.22,82.642C81.042,82.951,80.711,83.142,80.355,83.142z M52.262,81.142h27.515l13.761-23.83l-13.761-23.83H52.262l-13.758,23.83
		L52.262,81.142z"/>
</g>
</svg>
