<?xml version="1.0" encoding="utf-8"?>
<!-- Generator: Adobe Illustrator 16.0.4, SVG Export Plug-In . SVG Version: 6.00 Build 0)  -->
<!DOCTYPE svg PUBLIC "-//W3C//DTD SVG 1.1//EN" "http://www.w3.org/Graphics/SVG/1.1/DTD/svg11.dtd">
<svg version="1.1" xmlns="http://www.w3.org/2000/svg" xmlns:xlink="http://www.w3.org/1999/xlink" x="0px" y="0px" width="100px"
	 height="100px" viewBox="0 0 100 100" enable-background="new 0 0 100 100" xml:space="preserve">
<g id="Layer_3">
	<circle fill="#353558" cx="50" cy="50" r="49.846"/>
</g>
<g id="Layer_2">
	<g>
		<g id="plane_behind">
			<path id="bezier" fill="#FFFFFF" d="M80.621,43.216L62.787,48.13l-39.408-15.81L80.621,43.216z"/>
			<path id="bezier2" opacity="0.4" fill="#F8CF5E" d="M62.787,48.13l-4.781,19.548L52.16,50.874L23.379,32.321L62.787,48.13z"/>
			<path fill="#F8CF5E" d="M62.787,48.277c-0.018,0-0.035-0.003-0.055-0.011l-39.408-15.81c-0.075-0.03-0.112-0.116-0.082-0.19
				c0.03-0.075,0.115-0.111,0.19-0.082l39.408,15.81c0.076,0.03,0.111,0.115,0.082,0.19C62.9,48.242,62.846,48.277,62.787,48.277z"
				/>
			<path fill="#F8CF5E" d="M58.006,68.045c-0.028,0-0.058-0.003-0.087-0.01c-0.196-0.049-0.316-0.247-0.27-0.444l4.782-19.547
				c0.031-0.129,0.131-0.23,0.26-0.266l16.314-4.495L23.311,32.681c-0.199-0.038-0.329-0.229-0.291-0.428
				c0.038-0.199,0.23-0.329,0.428-0.292l57.244,10.896c0.166,0.032,0.289,0.175,0.295,0.345c0.008,0.17-0.104,0.322-0.268,0.368
				l-17.627,4.856l-4.729,19.339C58.321,67.933,58.171,68.045,58.006,68.045z"/>
		</g>
		<g id="plane_front">
			<path id="bezier35" fill="#F8CF5E" d="M52.16,50.874l5.846,16.805L43.865,53.239l8.055-2.297l0.102-0.157L52.16,50.874z"/>
			<path id="bezier36" fill="#FFFFFF" d="M52.021,50.785l-0.102,0.157l-8.055,2.297l-10.968,3.128l-9.517-24.046L52.021,50.785z"/>
			
				<rect x="47.526" y="47.902" transform="matrix(0.2741 0.9617 -0.9617 0.2741 84.8596 -8.2463)" fill="#F8CF5E" width="0.732" height="8.376"/>
			<path fill="#F8CF5E" d="M32.896,56.733c-0.16,0-0.306-0.105-0.352-0.267c-0.056-0.194,0.058-0.397,0.252-0.452l10.969-3.128
				c0.194-0.055,0.397,0.058,0.453,0.252c0.056,0.195-0.058,0.397-0.252,0.452L32.997,56.72
				C32.963,56.729,32.929,56.733,32.896,56.733z"/>
			<path fill="#F8CF5E" d="M58.006,67.825c-0.061,0-0.117-0.038-0.139-0.099l-5.846-16.804c-0.027-0.077,0.014-0.16,0.09-0.187
				c0.076-0.027,0.16,0.014,0.188,0.09l5.846,16.804c0.026,0.077-0.015,0.16-0.09,0.188C58.038,67.822,58.022,67.825,58.006,67.825z
				"/>
			<path fill="#F8CF5E" d="M52.16,51.021c-0.027,0-0.055-0.009-0.08-0.023l-0.139-0.09L23.3,32.444
				c-0.068-0.044-0.087-0.135-0.043-0.202c0.043-0.068,0.134-0.088,0.203-0.044l28.78,18.553c0.067,0.044,0.087,0.135,0.044,0.202
				C52.255,50.998,52.209,51.021,52.16,51.021z"/>
			<path fill="#F8CF5E" d="M32.896,56.733c-0.146,0-0.284-0.088-0.341-0.231l-9.517-24.046c-0.074-0.188,0.018-0.401,0.206-0.475
				c0.188-0.075,0.401,0.017,0.476,0.206l9.517,24.045c0.074,0.189-0.018,0.401-0.206,0.476
				C32.987,56.725,32.941,56.733,32.896,56.733z"/>
			<path fill="#F8CF5E" d="M58.006,68.045c-0.095,0-0.189-0.037-0.262-0.109l-14.141-14.44c-0.141-0.145-0.139-0.376,0.006-0.518
				c0.144-0.142,0.376-0.14,0.518,0.005l14.141,14.439c0.142,0.145,0.14,0.377-0.005,0.519C58.19,68.01,58.099,68.045,58.006,68.045
				z"/>
		</g>
	</g>
</g>
<g id="Layer_1">
</g>
</svg>
