<?xml version="1.0" encoding="UTF-8" standalone="no"?>
<svg width="452px" height="497px" viewBox="0 0 452 497" version="1.1" xmlns="http://www.w3.org/2000/svg" xmlns:xlink="http://www.w3.org/1999/xlink" xmlns:sketch="http://www.bohemiancoding.com/sketch/ns">
    <!-- Generator: Sketch 3.1.1 (8761) - http://www.bohemiancoding.com/sketch -->
    <title>Slice 2</title>
    <desc>Created with Sketch.</desc>
    <defs></defs>
    <g id="Page-1" stroke="none" stroke-width="1" fill="none" fill-rule="evenodd" sketch:type="MSPage">
        <g id="hand" sketch:type="MSLayerGroup" transform="translate(10.000000, 8.000000)">
            <g transform="translate(0.000000, 273.000000)" stroke="#FEDBB9" sketch:type="MSShapeGroup">
                <path d="M225.36,172.58 C229.69,158.28 229.69,150.06 229.69,137.93 C229.69,125.8 224.93,111.48 208.47,103.26 C192.01,95.05 180.75,102.85 177.28,114.54 C173.82,126.23 176.85,140.09 177.28,152.22 C177.72,164.35 175.3,162.62 175.64,170.85 C175.99,179.07 186.02,186.37 186.02,186.37" id="bezier15" stroke-width="3"></path>
                <path d="M159.53,157.85 C159.53,157.85 150.87,154.39 148.27,147.89 C145.67,141.39 136.58,128.4 136.14,118.87 C135.71,109.34 138.31,96.79 136.14,80.76 C136.14,80.76 135.28,51.41 119.9,42.05 C104.53,32.68 100.63,36.15 100.63,36.15 C100.63,36.15 100.2,27.05 95,17.53 C89.8,8 82.4,9.03 71.62,8.02 C64.46,7.35 54.29,11.9 51.69,20.56 C49.09,29.22 47.36,88.99 47.36,82.92 L43.24,86.58 C43.24,86.58 41.73,65.17 43.89,48.71 C46.06,32.25 46.92,17.96 46.92,17.96 C46.92,11.9 44.44,1.21 32.2,-0.23 C23.97,-1.2 14.01,4.54 10.54,11.46 C7.08,18.39 -0.72,90.29 -0.29,97.65 C0.15,105.01 -2.02,119.74 15.31,129.27 C32.63,138.8 48.42,130.2 50.82,132.73 C54.64,136.76 50.82,132.73 54.72,143.13 C58.62,153.52 68.58,163.92 85.47,171.71 C102.36,179.51 111.02,182.54 111.02,182.54 C111.02,182.54 111.02,182.54 115.79,195.96 C120.55,209.39 141.34,207.66 150,207.66 C158.66,207.66 159.96,206.36 167.33,201.6 C174.69,196.83 183.35,183.84 183.35,183.84 C183.35,183.84 187.25,186.87 190.28,192.07 C193.31,197.26 203.71,192.5 218,192.07 C232.29,191.63 232.29,188.6 237.06,183.84 C241.82,179.08 285.56,137.49 296.83,127.1 C308.09,116.71 312.85,111.94 339.27,107.18 C365.69,102.42 363.52,107.18 386.48,107.18 C409.43,107.18 434.12,87.69 434.12,84.22 C434.12,80.76 434.99,70.8 425.46,57.81 C415.93,44.81 373.48,42.65 357.46,42.65 C341.43,42.65 330.61,46.11 330.61,46.11 C330.61,46.11 327.58,37.02 318.48,38.32 C309.38,39.62 297.69,38.32 281.67,27.92 C265.65,17.53 224.93,21.42 208.91,26.19 C192.88,30.95 170.79,42.21 156.07,43.95 C141.34,45.67 138.67,40.18 125.25,46.68" id="bezier16" stroke-width="3"></path>
                <path d="M111.02,182.54 C111.02,182.54 103.66,155.68 99.76,135.33 C95.86,114.98 90.67,76.86 90.67,71.23 C90.67,65.6 83.74,44.81 103.66,47.41 C123.58,50.01 118.82,69.07 118.82,70.8 C118.82,72.53 109.92,80.76 104.41,80.76 C98.89,80.76 94.13,79.03 90.67,71.23" id="bezier17" stroke-width="1.5"></path>
                <path d="M176.29,139.32 C176.29,139.32 175.99,144.4 197.21,143.11 C218.43,141.83 214.1,132.3 214.1,132.3 C214.1,132.3 212.91,111.52 192.45,111.08 C185.95,110.93 177.29,114.54 177.29,114.54" id="bezier18" stroke-width="1.5"></path>
                <path d="M100.63,36.15 C95.38,39.29 88.9,48.04 89.52,58.45" id="bezier19" stroke-width="1.5"></path>
                <path d="M49.13,46.52 C53.58,48.6 55.71,48.42 60.89,49.25 C66.76,50.18 70.01,50.62 74.7,47.3 C77.53,45.29 76.81,44.45 76.81,40.7 L76.81,30.27 C76.81,27.86 76.52,24.53 75.51,22.29 C74.77,20.64 70.15,17.74 65.76,16.77 C61.12,15.73 53.53,18.28 51.41,21.69" id="bezier20" stroke-width="1.5"></path>
                <path d="M6.97,30.73 C8.53,35.51 14.64,36.5 19.22,36.98 C23.35,37.4 24.05,37.11 26.45,33.95 C28.4,31.4 29.64,29.48 30.29,26.17 C31.04,22.35 33.08,10.93 30.29,8.58 C27.51,6.23 16.41,5.34 13.21,7.41 C12.41,7.93 11.86,8.62 11.52,9.62" id="bezier21" stroke-width="1.5"></path>
                <path d="M136.15,113.59 C136.15,113.59 137.55,110.97 145.67,120.39 C153.79,129.81 153.15,135.93 153.15,135.93" id="bezier22" stroke-width="1.5"></path>
                <path d="M142.61,136.86 C142.61,136.86 149.24,134.48 158.66,136.86 C168.08,139.23 171.01,143.11 171.01,143.11" id="bezier23" stroke-width="1.5"></path>
                <path d="M47.36,82.92 C46.4,90.06 47.17,101.33 47.36,107.83 C47.47,111.86 49.62,131.45 50.82,132.73" id="bezier24" stroke-width="1.5"></path>
                <path d="M319.5,112.12 C292.84,113.98 260,108.87 256,84.87" id="bezier25" stroke-width="1.5"></path>
            </g>
            <g id="dots_back" transform="translate(65.000000, 22.000000)" stroke="#FFFFFF" stroke-width="1.5" fill="#F5C64C" sketch:type="MSShapeGroup" fill-opacity="0.3">
                <path d="M154.88,303.5 C154.89,303.65 154.89,303.78 154.89,303.93 C154.89,304.54 154.76,305.12 154.48,305.67 C154.45,305.72 154.43,305.77 154.4,305.82 C154.11,306.33 153.72,306.76 153.24,307.1 C153.21,307.12 153.18,307.14 153.15,307.16 C153.09,307.2 153.03,307.23 152.96,307.27 C152.7,307.43 152.41,307.55 152.12,307.64 C151.54,307.81 150.91,307.84 150.32,307.72 C149.89,307.65 149.47,307.49 149.1,307.27 C148.73,307.06 148.41,306.79 148.13,306.49 C147.91,306.23 147.73,305.96 147.57,305.67 C147.36,305.26 147.23,304.81 147.18,304.34 C147.17,304.21 147.16,304.06 147.16,303.93 C147.16,303.32 147.3,302.72 147.57,302.18 C147.6,302.14 147.63,302.09 147.66,302.03 C147.95,301.52 148.34,301.09 148.82,300.76 C148.85,300.73 148.88,300.71 148.91,300.68 C148.98,300.65 149.04,300.61 149.1,300.57 C149.37,300.43 149.65,300.3 149.94,300.22 C150.53,300.04 151.14,300.01 151.74,300.12 C152.17,300.21 152.59,300.35 152.97,300.57 C153.33,300.78 153.65,301.05 153.93,301.37 C154.15,301.61 154.33,301.89 154.48,302.18 C154.7,302.6 154.82,303.05 154.88,303.5 L154.88,303.5 Z" id="bezier"></path>
                <path d="M301.98,108.74 C301.99,108.89 302,109.02 302,109.17 C302,109.78 301.86,110.36 301.59,110.91 C301.56,110.96 301.54,111.01 301.5,111.06 C301.22,111.57 300.83,112 300.34,112.34 C300.32,112.37 300.28,112.39 300.25,112.4 C300.18,112.44 300.12,112.49 300.06,112.51 C299.81,112.67 299.53,112.79 299.22,112.88 C298.64,113.05 298.03,113.09 297.43,112.98 C296.99,112.89 296.57,112.73 296.2,112.51 C295.84,112.31 295.51,112.04 295.23,111.73 C295.01,111.48 294.83,111.21 294.68,110.91 C294.48,110.5 294.34,110.05 294.29,109.59 C294.28,109.45 294.27,109.3 294.27,109.17 C294.27,108.56 294.4,107.96 294.68,107.43 C294.71,107.38 294.73,107.33 294.77,107.27 C295.05,106.77 295.44,106.33 295.91,106 C295.95,105.97 295.99,105.95 296.02,105.92 C296.07,105.89 296.13,105.85 296.2,105.82 C296.46,105.67 296.74,105.55 297.04,105.46 C297.64,105.29 298.24,105.25 298.84,105.36 C299.28,105.45 299.68,105.59 300.06,105.81 C300.43,106.02 300.76,106.29 301.04,106.61 C301.25,106.85 301.44,107.13 301.59,107.42 C301.79,107.84 301.93,108.29 301.98,108.74 L301.98,108.74 Z" id="bezier2"></path>
                <path d="M294.79,203 C294.81,203.13 294.82,203.28 294.82,203.41 C294.82,204.02 294.67,204.62 294.39,205.16 C294.38,205.21 294.34,205.26 294.32,205.32 C294.03,205.83 293.63,206.26 293.16,206.59 C293.12,206.61 293.1,206.64 293.06,206.66 C293,206.7 292.94,206.73 292.88,206.77 C292.61,206.91 292.33,207.04 292.03,207.12 C291.45,207.31 290.84,207.33 290.23,207.22 C289.8,207.14 289.39,206.99 289.01,206.77 C288.64,206.56 288.33,206.29 288.05,205.98 C287.83,205.73 287.64,205.45 287.5,205.16 C287.28,204.74 287.16,204.3 287.09,203.84 C287.08,203.7 287.07,203.56 287.07,203.41 C287.07,202.8 287.22,202.22 287.5,201.67 C287.52,201.62 287.55,201.57 287.57,201.53 C287.86,201.01 288.25,200.59 288.73,200.24 C288.77,200.23 288.79,200.21 288.83,200.18 C288.89,200.15 288.95,200.11 289.01,200.07 C289.28,199.91 289.56,199.79 289.85,199.71 C290.44,199.54 291.05,199.5 291.66,199.62 C292.09,199.7 292.5,199.85 292.88,200.07 C293.24,200.28 293.56,200.55 293.84,200.85 C294.06,201.11 294.24,201.38 294.39,201.67 C294.61,202.08 294.74,202.54 294.79,203 L294.79,203 Z" id="bezier3"></path>
                <path d="M241.34,138.79 C241.36,138.92 241.36,139.07 241.36,139.2 C241.36,139.81 241.23,140.41 240.95,140.95 C240.93,141 240.9,141.04 240.88,141.11 C240.58,141.62 240.19,142.04 239.72,142.38 C239.68,142.4 239.65,142.42 239.62,142.45 C239.56,142.48 239.5,142.52 239.44,142.56 C239.17,142.72 238.89,142.84 238.59,142.92 C238.01,143.09 237.39,143.12 236.79,143.01 C236.36,142.92 235.95,142.78 235.57,142.56 C235.2,142.35 234.87,142.08 234.61,141.76 C234.39,141.52 234.2,141.25 234.04,140.95 C233.84,140.53 233.7,140.09 233.65,139.63 C233.64,139.48 233.63,139.35 233.63,139.2 C233.63,138.6 233.78,138.01 234.04,137.47 C234.07,137.42 234.09,137.37 234.13,137.31 C234.41,136.8 234.81,136.37 235.29,136.04 C235.31,136.02 235.35,135.99 235.39,135.97 C235.45,135.93 235.51,135.9 235.57,135.86 C235.84,135.7 236.12,135.58 236.41,135.49 C237,135.32 237.61,135.3 238.22,135.41 C238.64,135.48 239.06,135.64 239.44,135.86 C239.8,136.07 240.12,136.34 240.4,136.65 C240.62,136.9 240.8,137.16 240.95,137.47 C241.17,137.89 241.29,138.32 241.34,138.79 L241.34,138.79 Z" id="bezier4"></path>
                <path d="M240.22,38.09 C241.73,39.6 241.73,42.05 240.22,43.56 C238.71,45.07 236.26,45.07 234.75,43.56 C233.24,42.05 233.24,39.6 234.75,38.09 C236.26,36.58 238.71,36.58 240.22,38.09 L240.22,38.09 Z" id="bezier5"></path>
                <path d="M208.32,239.28 C208.34,239.42 208.34,239.56 208.34,239.7 C208.34,240.31 208.21,240.9 207.93,241.45 C207.91,241.5 207.88,241.55 207.84,241.59 C207.56,242.11 207.17,242.53 206.7,242.87 C206.66,242.9 206.62,242.92 206.59,242.94 C206.54,242.98 206.48,243.02 206.42,243.05 C206.15,243.2 205.87,243.33 205.58,243.41 C204.98,243.58 204.37,243.62 203.77,243.51 C203.33,243.42 202.93,243.27 202.55,243.05 C202.18,242.84 201.85,242.58 201.57,242.27 C201.37,242.02 201.17,241.74 201.02,241.45 C200.82,241.03 200.68,240.58 200.63,240.12 C200.62,239.98 200.61,239.84 200.61,239.7 C200.61,239.09 200.76,238.51 201.02,237.96 C201.05,237.91 201.07,237.86 201.11,237.8 C201.39,237.3 201.78,236.86 202.27,236.53 C202.29,236.51 202.33,236.48 202.37,236.46 C202.43,236.42 202.49,236.39 202.55,236.35 C202.8,236.2 203.1,236.08 203.39,236 C203.98,235.83 204.59,235.79 205.2,235.9 C205.62,235.98 206.04,236.13 206.42,236.35 C206.77,236.57 207.1,236.83 207.38,237.14 C207.6,237.39 207.78,237.67 207.93,237.96 C208.14,238.37 208.27,238.83 208.32,239.28 L208.32,239.28 Z" id="bezier6"></path>
                <path d="M154.87,76.69 C154.88,76.83 154.88,76.97 154.88,77.11 C154.88,77.72 154.74,78.31 154.46,78.86 C154.44,78.91 154.41,78.96 154.39,79 C154.1,79.52 153.71,79.94 153.23,80.28 C153.2,80.31 153.17,80.32 153.14,80.35 C153.07,80.38 153.01,80.42 152.95,80.46 C152.68,80.61 152.4,80.74 152.11,80.82 C151.52,80.99 150.9,81.03 150.3,80.91 C149.88,80.83 149.46,80.67 149.08,80.45 C148.72,80.25 148.4,79.98 148.12,79.67 C147.9,79.42 147.72,79.15 147.56,78.86 C147.35,78.44 147.22,77.99 147.17,77.53 C147.16,77.39 147.15,77.25 147.15,77.11 C147.15,76.5 147.29,75.9 147.56,75.37 C147.58,75.32 147.62,75.27 147.65,75.21 C147.94,74.71 148.33,74.27 148.8,73.94 C148.84,73.92 148.86,73.89 148.9,73.87 C148.96,73.83 149.02,73.79 149.09,73.76 C149.35,73.61 149.63,73.49 149.93,73.4 C150.51,73.22 151.12,73.2 151.73,73.3 C152.16,73.39 152.57,73.54 152.95,73.76 C153.32,73.96 153.64,74.23 153.92,74.55 C154.14,74.79 154.32,75.07 154.47,75.37 C154.68,75.78 154.81,76.22 154.87,76.69 L154.87,76.69 Z" id="bezier7"></path>
                <path d="M154.84,3.11 C154.85,3.24 154.87,3.39 154.87,3.52 C154.87,4.13 154.72,4.72 154.45,5.27 C154.43,5.32 154.4,5.36 154.37,5.42 C154.09,5.92 153.7,6.36 153.21,6.69 C153.18,6.72 153.15,6.74 153.11,6.77 C153.05,6.8 152.99,6.84 152.93,6.88 C152.67,7.02 152.39,7.15 152.1,7.23 C151.5,7.4 150.89,7.44 150.29,7.33 C149.85,7.24 149.45,7.1 149.06,6.88 C148.71,6.66 148.38,6.4 148.1,6.08 C147.88,5.84 147.69,5.56 147.55,5.27 C147.34,4.85 147.21,4.4 147.16,3.95 C147.15,3.8 147.13,3.67 147.13,3.52 C147.13,2.91 147.27,2.33 147.55,1.78 C147.57,1.73 147.6,1.68 147.63,1.63 C147.91,1.12 148.3,0.69 148.79,0.35 C148.82,0.33 148.85,0.3 148.89,0.29 C148.95,0.24 149,0.21 149.06,0.18 C149.33,0.02 149.61,-0.1 149.9,-0.18 C150.5,-0.36 151.11,-0.39 151.71,-0.28 C152.15,-0.2 152.55,-0.04 152.93,0.18 C153.29,0.39 153.62,0.64 153.91,0.96 C154.12,1.22 154.31,1.48 154.45,1.78 C154.66,2.19 154.79,2.64 154.84,3.11 L154.84,3.11 Z" id="bezier8"></path>
                <path d="M150.98,167.21 C153.12,167.21 154.85,168.95 154.85,171.08 C154.85,173.22 153.12,174.95 150.98,174.95 C148.84,174.95 147.11,173.22 147.11,171.08 C147.11,168.95 148.84,167.21 150.98,167.21 L150.98,167.21 Z" id="bezier9"></path>
                <path d="M101.43,239.29 C101.45,239.43 101.45,239.57 101.45,239.72 C101.45,240.33 101.32,240.91 101.03,241.46 C101.01,241.51 100.99,241.56 100.96,241.61 C100.67,242.12 100.28,242.55 99.8,242.89 C99.77,242.91 99.73,242.94 99.69,242.95 C99.64,243 99.58,243.03 99.52,243.07 C99.25,243.22 98.97,243.34 98.68,243.42 C98.08,243.59 97.47,243.63 96.88,243.52 C96.44,243.44 96.03,243.28 95.66,243.07 C95.29,242.85 94.96,242.59 94.68,242.28 C94.47,242.02 94.28,241.75 94.13,241.46 C93.92,241.05 93.79,240.6 93.74,240.13 C93.73,240 93.72,239.85 93.72,239.72 C93.72,239.11 93.86,238.52 94.13,237.97 C94.16,237.92 94.18,237.87 94.22,237.81 C94.5,237.31 94.89,236.88 95.38,236.55 C95.4,236.52 95.44,236.5 95.47,236.47 C95.53,236.43 95.59,236.4 95.66,236.36 C95.91,236.22 96.21,236.09 96.5,236.01 C97.08,235.84 97.69,235.8 98.3,235.91 C98.73,236 99.15,236.14 99.52,236.36 C99.88,236.58 100.21,236.84 100.49,237.15 C100.71,237.4 100.89,237.68 101.03,237.97 C101.24,238.39 101.38,238.84 101.43,239.29 L101.43,239.29 Z" id="bezier10"></path>
                <path d="M68.39,138.81 C68.41,138.95 68.42,139.09 68.42,139.23 C68.42,139.84 68.27,140.42 68,140.97 C67.97,141.02 67.94,141.07 67.92,141.12 C67.62,141.63 67.23,142.07 66.76,142.4 C66.72,142.42 66.7,142.45 66.66,142.47 C66.6,142.51 66.54,142.54 66.48,142.58 C66.21,142.73 65.93,142.85 65.64,142.94 C65.05,143.11 64.44,143.14 63.83,143.03 C63.4,142.95 62.99,142.8 62.61,142.58 C62.24,142.36 61.93,142.11 61.65,141.79 C61.43,141.54 61.24,141.27 61.09,140.97 C60.88,140.56 60.74,140.11 60.7,139.65 C60.68,139.51 60.67,139.37 60.67,139.23 C60.67,138.62 60.82,138.03 61.09,137.48 C61.12,137.43 61.15,137.39 61.17,137.34 C61.46,136.83 61.85,136.4 62.33,136.06 C62.37,136.03 62.39,136.01 62.43,135.99 C62.49,135.95 62.55,135.91 62.61,135.87 C62.88,135.73 63.16,135.6 63.45,135.52 C64.04,135.35 64.65,135.31 65.26,135.42 C65.68,135.51 66.1,135.66 66.48,135.87 C66.84,136.09 67.16,136.35 67.44,136.66 C67.66,136.92 67.84,137.19 68,137.48 C68.21,137.9 68.34,138.35 68.39,138.81 L68.39,138.81 Z" id="bezier11"></path>
                <path d="M68.37,40.42 C68.38,40.57 68.39,40.7 68.39,40.85 C68.39,41.46 68.26,42.04 67.98,42.59 C67.95,42.64 67.93,42.69 67.89,42.74 C67.61,43.25 67.22,43.68 66.75,44.02 C66.71,44.04 66.67,44.05 66.64,44.08 C66.59,44.12 66.53,44.15 66.47,44.19 C66.2,44.35 65.92,44.47 65.62,44.55 C65.03,44.73 64.42,44.76 63.82,44.64 C63.38,44.57 62.98,44.41 62.6,44.19 C62.23,43.98 61.9,43.71 61.62,43.41 C61.4,43.15 61.22,42.88 61.07,42.59 C60.87,42.18 60.73,41.72 60.68,41.26 C60.67,41.13 60.66,40.98 60.66,40.85 C60.66,40.24 60.81,39.64 61.08,39.1 C61.1,39.05 61.12,39 61.16,38.94 C61.44,38.44 61.83,38 62.32,37.67 C62.34,37.65 62.38,37.62 62.42,37.6 C62.48,37.56 62.54,37.53 62.6,37.49 C62.86,37.34 63.14,37.22 63.44,37.14 C64.03,36.95 64.64,36.93 65.23,37.04 C65.67,37.12 66.08,37.27 66.47,37.49 C66.82,37.7 67.15,37.97 67.43,38.28 C67.65,38.53 67.83,38.81 67.98,39.1 C68.19,39.52 68.32,39.96 68.37,40.42 L68.37,40.42 Z" id="bezier12"></path>
                <path d="M14.94,203.04 C14.95,203.17 14.96,203.3 14.96,203.45 C14.96,204.06 14.82,204.65 14.55,205.2 C14.52,205.24 14.5,205.29 14.46,205.34 C14.18,205.85 13.78,206.29 13.3,206.62 C13.28,206.65 13.24,206.67 13.21,206.68 C13.15,206.73 13.08,206.77 13.02,206.8 C12.76,206.95 12.48,207.07 12.18,207.16 C11.6,207.33 10.99,207.36 10.38,207.26 C9.95,207.17 9.54,207.01 9.16,206.8 C8.79,206.59 8.47,206.33 8.19,206.01 C7.97,205.76 7.79,205.49 7.64,205.2 C7.44,204.78 7.3,204.33 7.25,203.86 C7.23,203.73 7.23,203.59 7.23,203.45 C7.23,202.84 7.36,202.26 7.64,201.71 C7.67,201.66 7.69,201.61 7.72,201.56 C8.01,201.05 8.4,200.61 8.88,200.28 C8.91,200.26 8.95,200.23 8.98,200.21 C9.04,200.17 9.1,200.13 9.16,200.1 C9.43,199.95 9.71,199.83 10,199.74 C10.6,199.57 11.21,199.54 11.8,199.65 C12.23,199.73 12.65,199.88 13.02,200.1 C13.39,200.32 13.72,200.57 13.99,200.89 C14.21,201.13 14.4,201.41 14.55,201.71 C14.76,202.12 14.89,202.57 14.94,203.04 L14.94,203.04 Z" id="bezier13"></path>
                <path d="M7.73,108.78 C7.74,108.93 7.76,109.06 7.76,109.21 C7.76,109.8 7.61,110.4 7.34,110.95 C7.32,111 7.28,111.05 7.26,111.1 C6.96,111.61 6.57,112.04 6.1,112.38 C6.06,112.39 6.04,112.41 6,112.44 C5.94,112.48 5.88,112.51 5.82,112.55 C5.55,112.71 5.27,112.83 4.97,112.92 C4.39,113.09 3.78,113.12 3.17,113 C2.74,112.93 2.33,112.77 1.95,112.55 C1.58,112.34 1.27,112.07 0.98,111.76 C0.77,111.51 0.58,111.24 0.43,110.95 C0.21,110.54 0.09,110.09 0.03,109.62 C0.02,109.49 0.02,109.34 0.02,109.21 C0.02,108.6 0.15,108 0.44,107.46 C0.46,107.41 0.48,107.36 0.51,107.3 C0.8,106.8 1.19,106.36 1.67,106.03 C1.7,106.01 1.74,105.98 1.77,105.96 C1.83,105.92 1.89,105.89 1.95,105.85 C2.22,105.69 2.5,105.58 2.79,105.48 C3.38,105.31 4,105.29 4.6,105.4 C5.02,105.48 5.44,105.63 5.82,105.85 C6.18,106.06 6.5,106.33 6.78,106.64 C7,106.89 7.18,107.16 7.34,107.46 C7.55,107.88 7.68,108.32 7.73,108.78 L7.73,108.78 Z" id="bezier14"></path>
            </g>
            <g id="lines_back" transform="translate(43.000000, 6.000000)" stroke="#17B4AE" stroke-width="0.71" sketch:type="MSShapeGroup">
                <path d="M85.84,297.14 C113.65,304.41 141.47,311.68 169.29,318.95" id="bezier26"></path>
                <path d="M176.89,320.17 C193.41,321.23 209.94,322.28 226.46,323.33" id="bezier27"></path>
                <path d="M119.57,323.35 C136.1,322.29 152.64,321.23 169.17,320.17" id="bezier28"></path>
                <path d="M23.61,128.33 C15.76,139.14 7.9,149.95 0.04,160.76" id="bezier29"></path>
                <path d="M32.8,215.59 C30.59,186.75 28.39,157.9 26.18,129.06" id="bezier30"></path>
                <path d="M261.32,293.3 C250.59,281.72 239.85,270.13 229.11,258.54" id="bezier31"></path>
                <path d="M176.77,318.95 C204.58,311.67 232.4,304.4 260.21,297.12" id="bezier32"></path>
                <path d="M224,258.68 C207.84,278.1 191.67,297.53 175.5,316.95" id="bezier33"></path>
                <path d="M122.06,258.69 C138.22,278.11 154.39,297.53 170.56,316.95" id="bezier34"></path>
                <path id="bezier35" d="M222.61,255.7 C189.56,255.71 156.51,255.71 123.45,255.72"></path>
                <path d="M319.84,129.03 C317.64,157.87 315.44,186.72 313.24,215.56" id="bezier36"></path>
                <path d="M345.96,160.72 C338.11,149.91 330.26,139.1 322.41,128.3" id="bezier37"></path>
                <path d="M90.08,55.31 C116.53,43.89 142.99,32.47 169.45,21.05" id="bezier38"></path>
                <path d="M169.88,95.37 C143.15,114.57 116.42,133.77 89.69,152.97" id="bezier39"></path>
                <path id="bezier40" d="M86.54,151.36 C86.54,121.14 86.53,90.93 86.53,60.71"></path>
                <path d="M26.31,121.36 C28.42,102.28 30.53,83.19 32.64,64.11" id="bezier41"></path>
                <path d="M116.02,254.22 C89.57,243.13 63.11,232.04 36.66,220.95" id="bezier42"></path>
                <path d="M84.72,293.33 C95.47,281.73 106.21,270.14 116.96,258.55" id="bezier43"></path>
                <path d="M169.4,185.57 C142.99,175.9 116.58,166.23 90.18,156.56" id="bezier44"></path>
                <path d="M121.96,252.66 C138.19,231.76 154.42,210.86 170.66,189.95" id="bezier45"></path>
                <path d="M84.07,158.2 C67.9,177.63 51.74,197.05 35.57,216.48" id="bezier46"></path>
                <path d="M118.38,252.04 C108.17,220.99 97.96,189.95 87.75,158.9" id="bezier47"></path>
                <path d="M29.35,126.92 C47.26,135.78 65.17,144.65 83.08,153.51" id="bezier48"></path>
                <path d="M261.98,158.18 C278.14,177.6 294.31,197.02 310.47,216.45" id="bezier49"></path>
                <path d="M316.67,126.89 C298.77,135.75 280.87,144.62 262.97,153.49" id="bezier50"></path>
                <path d="M258.29,158.88 C248.09,189.93 237.89,220.98 227.69,252.03" id="bezier51"></path>
                <path d="M230.04,254.21 C256.49,243.11 282.93,232.01 309.38,220.91" id="bezier52"></path>
                <path d="M224.11,252.65 C207.87,231.75 191.64,210.85 175.4,189.95" id="bezier53"></path>
                <path id="bezier54" d="M259.48,60.69 C259.49,90.91 259.5,121.12 259.5,151.34"></path>
                <path d="M256.36,152.95 C229.63,133.76 202.89,114.56 176.16,95.37" id="bezier55"></path>
                <path d="M176.66,185.57 C203.06,175.89 229.47,166.22 255.87,156.54" id="bezier56"></path>
                <path d="M82.67,57.09 C66.13,58.15 49.6,59.21 33.07,60.27" id="bezier57"></path>
                <path d="M28.45,122.31 C46.95,101.45 65.46,80.59 83.96,59.74" id="bezier58"></path>
                <path d="M117.64,1.52 C107.9,18.84 98.16,36.16 88.42,53.47" id="bezier59"></path>
                <path d="M169.41,18.09 C153.98,11.92 138.56,5.75 123.13,-0.42" id="bezier60"></path>
                <path d="M176.59,18.09 C192.01,11.91 207.42,5.74 222.84,-0.43" id="bezier61"></path>
                <path d="M255.93,55.29 C229.47,43.88 203.01,32.47 176.55,21.05" id="bezier62"></path>
                <path d="M312.92,60.23 C296.39,59.18 279.87,58.12 263.34,57.07" id="bezier63"></path>
                <path d="M319.71,121.33 C317.59,102.24 315.47,83.16 313.34,64.08" id="bezier64"></path>
                <path d="M262.05,59.72 C280.56,80.57 299.06,101.42 317.57,122.28" id="bezier65"></path>
                <path d="M169.45,91.61 C143,80.52 116.55,69.43 90.09,58.34" id="bezier66"></path>
                <path d="M176.58,91.61 C203.03,80.52 229.47,69.42 255.92,58.32" id="bezier67"></path>
                <path d="M228.33,1.51 C238.08,18.82 247.83,36.14 257.59,53.46" id="bezier68"></path>
                <path id="bezier69" d="M173.06,96.98 C173.04,125.66 173.01,154.35 172.97,183.03"></path>
                <path id="bezier70" d="M173.06,89.24 L173.06,23.39"></path>
                <path d="M31.2,216.08 C21.45,198.76 11.69,181.45 1.94,164.13" id="bezier71"></path>
                <path id="bezier72" d="M33.08,261.25 C33.09,248.6 33.09,235.96 33.09,223.32"></path>
                <path d="M314.84,216.05 C324.58,198.73 334.32,181.41 344.06,164.09" id="bezier73"></path>
                <path d="M35.18,222.71 C50.12,246.11 65.07,269.51 80.01,292.9" id="bezier74"></path>
                <path d="M266.03,292.88 C280.98,269.48 295.92,246.08 310.86,222.68" id="bezier75"></path>
                <path id="bezier76" d="M312.94,223.29 C312.94,235.93 312.94,248.57 312.93,261.21"></path>
                <path id="bezier77" d="M173.06,15.66 L173.06,5.42"></path>
            </g>
            <g id="cube" transform="translate(151.000000, 110.000000)" stroke-opacity="0.4" stroke="#282746" sketch:type="MSShapeGroup">
                <path d="M83.23,88.24 L97.56,63.42" id="bezier78"></path>
                <path d="M54.56,88.24 L83.23,88.24" id="bezier79"></path>
                <path d="M97.56,113.07 L83.23,88.25 L83.23,88.24" id="bezier80"></path>
                <path d="M101.41,56.76 L115.73,31.94 L115.74,31.94" id="bezier81"></path>
                <path d="M93.72,56.76 L101.41,56.76" id="bezier82"></path>
                <path d="M115.74,81.58 L101.41,56.76" id="bezier83"></path>
                <path id="bezier84" d="M36.38,56.76 L36.39,56.76 L65.05,56.76"></path>
                <path d="M50.72,31.94 L46.87,25.28" id="bezier85"></path>
                <path d="M83.23,25.28 L83.23,25.27 L97.56,0.45" id="bezier86"></path>
                <path id="bezier87" d="M54.56,25.28 L54.58,25.28 L83.23,25.28"></path>
                <path d="M97.56,50.09 L83.23,25.28" id="bezier88"></path>
                <path d="M65.05,56.76 L79.38,31.93" id="bezier89"></path>
                <path d="M46.87,25.28 L46.87,25.27 L52.12,16.19 L61.2,0.45" id="bezier90"></path>
                <path d="M18.21,25.27 L46.87,25.28" id="bezier91"></path>
                <path d="M79.38,81.58 L65.05,56.76" id="bezier92"></path>
                <path d="M28.69,56.76 L43.03,31.94" id="bezier93"></path>
                <path d="M0.03,56.76 L28.69,56.76" id="bezier94"></path>
                <path d="M43.03,81.58 L37.78,72.51 L28.69,56.76" id="bezier95"></path>
                <path d="M46.87,88.24 L50.72,81.58" id="bezier96"></path>
                <path id="bezier97" d="M18.21,88.24 L18.22,88.24 L46.87,88.24"></path>
                <path d="M61.2,113.07 L46.87,88.24" id="bezier98"></path>
                <path d="M65.05,7.11 L61.21,0.46 L61.2,0.45 L32.54,0.45 L18.21,25.27 L22.05,31.94" id="bezier99" stroke-width="2"></path>
                <path d="M108.05,81.58 L115.74,81.58 L130.07,56.76 L115.74,31.94 L115.74,31.93 L108.05,31.94" id="bezier100" stroke-width="2"></path>
                <path d="M58.41,81.58 L54.56,88.24 L65.05,106.41 L68.9,113.07 L97.56,113.07 L108.05,94.9 L111.89,88.24 L108.05,81.58 L97.56,63.42 L89.87,63.42" id="bezier101" stroke-width="2"></path>
                <path d="M89.87,50.1 L97.56,50.1 L97.56,50.09 L111.89,25.27 L97.56,0.45 L68.9,0.45 L65.05,7.11 L54.57,25.27 L54.56,25.28 L58.4,31.93 L58.41,31.93 L58.41,31.94" id="bezier102" stroke-width="2"></path>
                <path d="M46.87,38.6 L46.87,38.59 L43.03,31.94 L22.06,31.94 L22.05,31.94 L14.36,31.94 L0.03,56.76 L14.36,81.58 L22.05,81.58 L43.02,81.58 L43.03,81.58 L46.87,74.92" id="bezier103" stroke-width="2"></path>
                <path d="M50.72,81.58 L58.41,81.58 L79.38,81.58 L89.87,63.42 L93.72,56.76 L89.87,50.1 L79.38,31.93 L58.41,31.94 L50.72,31.94 L46.87,38.6 L42.25,46.61 L36.38,56.76 L46.87,74.92 L46.88,74.92 L46.88,74.93 L50.72,81.58 L50.72,81.58 Z" id="bezier104" stroke-width="2"></path>
                <path d="M22.05,81.58 L18.21,88.24 L18.21,88.25 L18.22,88.25 L24.64,99.38 L32.54,113.07 L61.2,113.07 L61.21,113.06 L65.05,106.41" id="bezier105" stroke-width="2"></path>
            </g>
            <g id="lines_front" transform="translate(43.000000, 2.000000)" stroke="#17B4AE" sketch:type="MSShapeGroup">
                <path d="M123.43,328.85 C122.61,328.85 121.93,328.17 121.93,327.35 C121.93,326.52 122.61,325.85 123.43,325.85 L222.59,325.83 C223.42,325.83 224.09,326.51 224.09,327.33 C224.09,328.16 223.42,328.83 222.59,328.83 L123.43,328.85 L123.43,328.85 Z" id="bezier106"></path>
                <path d="M173.06,7.05 C172.23,7.05 171.56,6.38 171.56,5.55 L171.56,1.69 C171.56,0.86 172.23,0.19 173.06,0.19 C173.89,0.19 174.56,0.86 174.56,1.69 L174.56,5.55 C174.56,6.38 173.89,7.05 173.06,7.05 L173.06,7.05 Z" id="bezier107"></path>
                <path d="M259.47,270.14 C258.69,270.14 258.03,269.53 257.97,268.73 C257.92,267.91 258.55,267.19 259.38,267.14 L308.98,263.97 C309.82,263.92 310.52,264.54 310.57,265.37 C310.63,266.19 310,266.91 309.17,266.96 L259.57,270.13 C259.53,270.14 259.5,270.14 259.47,270.14 L259.47,270.14 Z" id="bezier108"></path>
                <path d="M1.25,162.59 C1.1,162.59 0.94,162.56 0.78,162.51 C-0.01,162.25 -0.43,161.4 -0.17,160.62 L30.43,67.47 C30.69,66.68 31.54,66.26 32.33,66.51 C33.11,66.77 33.54,67.62 33.28,68.41 L2.67,161.55 C2.47,162.18 1.88,162.59 1.25,162.59 L1.25,162.59 Z" id="bezier109"></path>
                <path d="M222.87,327.4 C222.68,327.4 222.5,327.36 222.31,327.29 L176.03,308.79 C175.26,308.48 174.89,307.61 175.2,306.84 C175.51,306.07 176.38,305.69 177.15,306 L223.43,324.51 C224.2,324.81 224.57,325.68 224.26,326.45 C224.03,327.04 223.47,327.4 222.87,327.4 L222.87,327.4 Z" id="bezier110"></path>
                <path d="M117.67,325.48 C117.15,325.48 116.64,325.2 116.36,324.71 L87.11,272.76 C86.7,272.04 86.96,271.12 87.68,270.72 C88.4,270.31 89.31,270.57 89.72,271.29 L118.98,323.24 C119.38,323.96 119.13,324.88 118.41,325.28 C118.17,325.41 117.92,325.48 117.67,325.48 L117.67,325.48 Z" id="bezier111"></path>
                <path d="M123.16,327.41 C122.56,327.41 122,327.05 121.77,326.47 C121.46,325.7 121.83,324.82 122.6,324.52 L168.85,306 C169.62,305.7 170.49,306.07 170.8,306.84 C171.11,307.61 170.73,308.48 169.97,308.79 L123.72,327.3 C123.53,327.37 123.34,327.41 123.16,327.41 L123.16,327.41 Z" id="bezier112"></path>
                <path d="M119.57,328.85 C119.26,328.85 118.95,328.75 118.69,328.56 L84.35,303.65 C83.68,303.16 83.53,302.22 84.01,301.55 C84.5,300.88 85.44,300.73 86.11,301.22 L120.45,326.13 C121.12,326.62 121.27,327.56 120.78,328.23 C120.49,328.63 120.03,328.85 119.57,328.85 L119.57,328.85 Z" id="bezier113"></path>
                <path d="M78.83,299.59 C78.52,299.59 78.22,299.5 77.95,299.31 L35.35,268.72 C34.68,268.24 34.52,267.3 35.01,266.63 C35.49,265.96 36.43,265.8 37.1,266.29 L79.7,296.88 C80.38,297.36 80.53,298.3 80.05,298.97 C79.75,299.38 79.29,299.59 78.83,299.59 L78.83,299.59 Z" id="bezier114"></path>
                <path d="M116.42,326.59 C116.12,326.59 115.82,326.5 115.55,326.31 L84.23,303.82 C83.55,303.33 83.4,302.4 83.88,301.72 C84.36,301.05 85.3,300.9 85.98,301.38 L117.3,323.87 C117.97,324.35 118.13,325.29 117.64,325.96 C117.35,326.37 116.89,326.59 116.42,326.59 L116.42,326.59 Z" id="bezier115"></path>
                <path d="M32.65,262.9 C31.9,262.9 31.25,262.34 31.17,261.57 L24.8,204.32 C24.71,203.5 25.3,202.76 26.13,202.66 C26.94,202.58 27.69,203.17 27.78,203.99 L34.15,261.24 C34.24,262.06 33.65,262.8 32.82,262.89 C32.77,262.9 32.71,262.9 32.65,262.9 L32.65,262.9 Z" id="bezier116"></path>
                <path d="M86.52,270.15 L86.42,270.15 L36.85,266.99 C36.02,266.94 35.39,266.23 35.45,265.4 C35.5,264.57 36.22,263.95 37.04,264 L86.61,267.16 C87.44,267.21 88.07,267.92 88.01,268.75 C87.96,269.54 87.3,270.15 86.52,270.15 L86.52,270.15 Z" id="bezier117"></path>
                <path d="M83.95,267.26 C83.53,267.26 83.12,267.09 82.83,266.76 L27.31,204.2 C26.76,203.58 26.82,202.63 27.43,202.08 C28.05,201.53 29,201.59 29.55,202.21 L85.07,264.77 C85.62,265.39 85.56,266.33 84.94,266.88 C84.66,267.14 84.3,267.26 83.95,267.26 L83.95,267.26 Z" id="bezier118"></path>
                <path d="M169.45,305.93 C169.25,305.93 169.05,305.89 168.85,305.8 L89.47,271.56 C88.71,271.24 88.36,270.35 88.69,269.59 C89.02,268.83 89.9,268.48 90.66,268.81 L170.04,303.05 C170.8,303.38 171.15,304.26 170.83,305.02 C170.58,305.59 170.03,305.93 169.45,305.93 L169.45,305.93 Z" id="bezier119"></path>
                <path d="M86.52,266.29 C85.69,266.29 85.02,265.62 85.02,264.79 L85,174.14 C85,173.31 85.67,172.64 86.5,172.64 C87.33,172.64 88,173.31 88,174.14 L88.02,264.79 C88.02,265.62 87.34,266.29 86.52,266.29 L86.52,266.29 Z" id="bezier120"></path>
                <path d="M90.08,268.66 C89.5,268.66 88.94,268.31 88.7,267.74 C88.38,266.97 88.74,266.1 89.5,265.77 L168.84,232.48 C169.6,232.16 170.48,232.52 170.8,233.29 C171.12,234.05 170.76,234.93 170,235.25 L90.66,268.54 C90.47,268.62 90.28,268.66 90.08,268.66 L90.08,268.66 Z" id="bezier121"></path>
                <path d="M169.84,231.61 C169.54,231.61 169.23,231.52 168.97,231.33 L88.76,173.75 C88.09,173.26 87.94,172.33 88.42,171.65 C88.9,170.98 89.84,170.83 90.51,171.31 L170.72,228.9 C171.39,229.38 171.54,230.32 171.06,230.99 C170.77,231.4 170.31,231.61 169.84,231.61 L169.84,231.61 Z" id="bezier122"></path>
                <path d="M255.9,268.64 C255.71,268.64 255.51,268.6 255.33,268.52 L175.97,235.25 C175.21,234.93 174.84,234.05 175.16,233.29 C175.49,232.52 176.36,232.16 177.13,232.48 L256.48,265.76 C257.25,266.08 257.61,266.96 257.29,267.72 C257.05,268.3 256.49,268.64 255.9,268.64 L255.9,268.64 Z" id="bezier123"></path>
                <path d="M173,303.59 C172.17,303.59 171.5,302.92 171.5,302.09 L171.48,236.24 C171.48,235.41 172.15,234.74 172.98,234.74 L172.98,234.74 C173.81,234.74 174.48,235.41 174.48,236.24 L174.5,302.09 C174.5,302.92 173.83,303.59 173,303.59 L173,303.59 L173,303.59 Z" id="bezier124"></path>
                <path d="M173,231.83 C172.11,231.83 171.38,230.92 171.38,229.79 L171.36,140.45 C171.36,139.32 172.09,138.41 172.98,138.41 L172.98,138.41 C173.88,138.41 174.6,139.32 174.6,140.45 L174.62,229.79 C174.62,230.91 173.9,231.83 173,231.83 L173,231.83 L173,231.83 Z" id="bezier125"></path>
                <path d="M176.12,231.61 C175.66,231.61 175.2,231.4 174.9,230.99 C174.42,230.32 174.57,229.38 175.25,228.9 L255.44,171.29 C256.11,170.81 257.05,170.96 257.53,171.63 C258.01,172.31 257.86,173.24 257.19,173.73 L177,231.33 C176.73,231.52 176.43,231.61 176.12,231.61 L176.12,231.61 Z" id="bezier126"></path>
                <path d="M255.82,170.42 C255.65,170.42 255.48,170.39 255.31,170.33 L176.09,141.32 C175.31,141.03 174.91,140.17 175.19,139.4 C175.48,138.62 176.34,138.22 177.12,138.5 L256.34,167.52 C257.12,167.8 257.52,168.66 257.23,169.44 C257.01,170.05 256.43,170.42 255.82,170.42 L255.82,170.42 Z" id="bezier127"></path>
                <path d="M316.65,200.06 C316.42,200.06 316.2,200.01 315.98,199.91 L262.26,173.31 C261.51,172.95 261.21,172.04 261.58,171.3 C261.94,170.56 262.84,170.26 263.59,170.62 L317.32,197.22 C318.06,197.59 318.36,198.49 317.99,199.23 C317.73,199.76 317.2,200.06 316.65,200.06 L316.65,200.06 Z" id="bezier128"></path>
                <path d="M259.47,266.26 C258.64,266.26 257.97,265.6 257.97,264.77 L257.96,174.12 C257.96,173.29 258.63,172.62 259.46,172.62 C260.28,172.62 260.96,173.29 260.96,174.12 L260.97,264.75 C260.97,265.58 260.3,266.26 259.47,266.26 L259.47,266.26 Z" id="bezier129"></path>
                <path d="M176.55,305.93 C175.97,305.93 175.42,305.59 175.17,305.02 C174.84,304.26 175.19,303.38 175.96,303.05 L255.33,268.79 C256.09,268.46 256.97,268.81 257.3,269.57 C257.63,270.33 257.28,271.22 256.52,271.54 L177.15,305.8 C176.95,305.89 176.75,305.93 176.55,305.93 L176.55,305.93 Z" id="bezier130"></path>
                <path d="M229.6,326.58 C229.14,326.58 228.68,326.36 228.38,325.95 C227.9,325.28 228.05,324.34 228.73,323.86 L260.07,301.35 C260.74,300.86 261.67,301.02 262.16,301.69 C262.64,302.36 262.49,303.3 261.82,303.78 L230.48,326.3 C230.21,326.48 229.91,326.58 229.6,326.58 L229.6,326.58 Z" id="bezier131"></path>
                <path d="M267.21,299.56 C266.75,299.56 266.29,299.34 265.99,298.94 C265.51,298.26 265.66,297.33 266.34,296.84 L308.92,266.25 C309.59,265.77 310.53,265.92 311.01,266.6 C311.49,267.27 311.34,268.21 310.67,268.69 L268.09,299.28 C267.82,299.47 267.52,299.56 267.21,299.56 L267.21,299.56 Z" id="bezier132"></path>
                <path d="M228.35,325.46 C228.11,325.46 227.85,325.4 227.62,325.27 C226.9,324.86 226.64,323.95 227.05,323.23 L256.27,271.27 C256.68,270.55 257.59,270.29 258.31,270.7 C259.03,271.11 259.29,272.02 258.89,272.74 L229.66,324.7 C229.39,325.19 228.88,325.46 228.35,325.46 L228.35,325.46 Z" id="bezier133"></path>
                <path d="M313.36,262.87 C313.3,262.87 313.25,262.87 313.19,262.86 C312.37,262.77 311.78,262.03 311.87,261.21 L318.2,203.96 C318.29,203.13 319.03,202.54 319.85,202.63 C320.68,202.72 321.27,203.47 321.18,204.29 L314.85,261.54 C314.77,262.3 314.12,262.87 313.36,262.87 L313.36,262.87 Z" id="bezier134"></path>
                <path d="M262.04,267.24 C261.68,267.24 261.33,267.12 261.04,266.86 C260.42,266.31 260.37,265.37 260.92,264.75 L316.43,202.18 C316.98,201.56 317.93,201.5 318.54,202.05 C319.16,202.6 319.22,203.55 318.67,204.17 L263.16,266.74 C262.86,267.07 262.45,267.24 262.04,267.24 L262.04,267.24 Z" id="bezier135"></path>
                <path d="M226.46,328.83 C226,328.83 225.54,328.62 225.25,328.21 C224.76,327.54 224.91,326.61 225.58,326.12 L259.94,301.2 C260.61,300.71 261.55,300.86 262.04,301.53 C262.52,302.2 262.38,303.14 261.7,303.63 L227.34,328.55 C227.07,328.74 226.77,328.83 226.46,328.83 L226.46,328.83 Z" id="bezier136"></path>
                <path d="M29.33,200.1 C28.78,200.1 28.25,199.79 27.99,199.26 C27.62,198.52 27.92,197.62 28.66,197.25 L82.37,170.65 C83.11,170.28 84.01,170.58 84.38,171.32 C84.74,172.07 84.44,172.97 83.7,173.33 L30,199.94 C29.78,200.05 29.55,200.1 29.33,200.1 L29.33,200.1 Z" id="bezier137"></path>
                <path d="M84.03,168.8 C83.59,168.8 83.17,168.62 82.87,168.26 L34.38,109.99 C33.85,109.36 33.93,108.41 34.57,107.88 C35.21,107.35 36.15,107.44 36.68,108.07 L85.18,166.34 C85.71,166.98 85.62,167.92 84.98,168.45 C84.7,168.69 84.36,168.8 84.03,168.8 L84.03,168.8 Z" id="bezier138"></path>
                <path d="M116.89,68.44 C116.49,68.44 116.09,68.28 115.79,67.96 L83.57,33.2 C83.01,32.59 83.05,31.64 83.66,31.08 C84.26,30.51 85.21,30.55 85.78,31.16 L117.99,65.92 C118.56,66.53 118.52,67.48 117.91,68.04 C117.62,68.31 117.26,68.44 116.89,68.44 L116.89,68.44 Z" id="bezier139"></path>
                <path d="M36.62,106.07 C36.04,106.07 35.48,105.72 35.24,105.15 C34.92,104.38 35.28,103.5 36.04,103.18 L115.38,69.89 C116.14,69.57 117.02,69.93 117.34,70.69 C117.66,71.46 117.3,72.34 116.54,72.66 L37.2,105.95 C37.01,106.03 36.82,106.07 36.62,106.07 L36.62,106.07 Z" id="bezier140"></path>
                <path d="M89.13,167.07 L86.28,166.13 L116.89,72.98 C117.15,72.2 118,71.77 118.78,72.03 C119.57,72.28 120,73.13 119.74,73.92 L89.13,167.07 L89.13,167.07 Z" id="bezier141"></path>
                <path d="M90.13,170.44 C89.52,170.44 88.94,170.07 88.72,169.46 C88.44,168.68 88.84,167.82 89.61,167.53 L168.82,138.5 C169.6,138.22 170.46,138.62 170.75,139.4 C171.03,140.17 170.63,141.03 169.85,141.32 L90.65,170.35 C90.47,170.41 90.3,170.44 90.13,170.44 L90.13,170.44 Z" id="bezier142"></path>
                <path d="M170.6,137.03 C170.15,137.03 169.71,136.83 169.41,136.45 L120.71,73.75 C120.2,73.1 120.32,72.15 120.97,71.65 C121.63,71.14 122.57,71.26 123.08,71.91 L171.78,134.6 C172.29,135.26 172.17,136.2 171.52,136.71 C171.24,136.92 170.92,137.03 170.6,137.03 L170.6,137.03 Z" id="bezier143"></path>
                <path d="M78.94,299.42 C78.64,299.42 78.34,299.33 78.08,299.14 L35.36,268.71 C34.69,268.23 34.53,267.3 35.01,266.62 C35.49,265.95 36.43,265.79 37.1,266.27 L79.82,296.7 C80.49,297.18 80.65,298.11 80.17,298.79 C79.88,299.2 79.41,299.42 78.94,299.42 L78.94,299.42 Z" id="bezier144"></path>
                <path d="M31.88,263.07 C31.24,263.07 30.66,262.67 30.45,262.04 L-0.17,168.9 C-0.43,168.11 -0.01,167.27 0.78,167.01 C1.57,166.74 2.42,167.18 2.68,167.96 L33.3,261.1 C33.56,261.89 33.13,262.74 32.35,263 C32.19,263.05 32.03,263.07 31.88,263.07 L31.88,263.07 Z" id="bezier145"></path>
                <path d="M320.12,201.78 C319.81,201.78 319.5,201.68 319.23,201.49 C318.57,201.01 318.42,200.07 318.9,199.4 L342.47,166.97 C342.96,166.3 343.89,166.15 344.57,166.64 C345.23,167.12 345.38,168.06 344.9,168.73 L321.33,201.16 C321.04,201.56 320.58,201.78 320.12,201.78 L320.12,201.78 Z" id="bezier146"></path>
                <path d="M314.14,263.04 C313.99,263.04 313.83,263.02 313.67,262.97 C312.89,262.71 312.46,261.86 312.72,261.07 L343.32,167.93 C343.58,167.14 344.43,166.71 345.22,166.97 C346,167.23 346.43,168.08 346.17,168.86 L315.57,262.01 C315.36,262.64 314.77,263.04 314.14,263.04 L314.14,263.04 Z" id="bezier147"></path>
                <path d="M267.1,299.4 C266.64,299.4 266.17,299.18 265.88,298.77 C265.4,298.09 265.56,297.16 266.23,296.67 L308.91,266.24 C309.59,265.76 310.53,265.91 311.01,266.59 C311.49,267.26 311.33,268.2 310.66,268.68 L267.97,299.12 C267.71,299.31 267.4,299.4 267.1,299.4 L267.1,299.4 Z" id="bezier148"></path>
                <path d="M309.34,106.03 C309.14,106.03 308.95,106 308.76,105.92 L229.4,72.64 C228.64,72.32 228.28,71.45 228.6,70.68 C228.92,69.92 229.8,69.56 230.56,69.88 L309.92,103.15 C310.68,103.47 311.04,104.35 310.72,105.11 C310.48,105.69 309.92,106.03 309.34,106.03 L309.34,106.03 Z" id="bezier149"></path>
                <path d="M310.82,104.27 C310.33,104.27 309.84,104.03 309.56,103.58 L264.72,33.39 C264.28,32.69 264.48,31.76 265.18,31.31 C265.87,30.87 266.8,31.07 267.25,31.77 L312.09,101.96 C312.53,102.66 312.33,103.59 311.63,104.04 C311.38,104.2 311.1,104.27 310.82,104.27 L310.82,104.27 Z" id="bezier150"></path>
                <path d="M258.36,168.05 C257.74,168.05 257.16,167.66 256.95,167.03 L254.25,159.21 L226.2,73.91 C225.94,73.12 226.37,72.27 227.15,72.01 C227.95,71.76 228.79,72.18 229.05,72.97 L257.09,158.26 L259.78,166.06 C260.05,166.84 259.64,167.69 258.85,167.96 C258.69,168.02 258.53,168.05 258.36,168.05 L258.36,168.05 Z" id="bezier151"></path>
                <path d="M261.93,168.78 C261.59,168.78 261.25,168.67 260.97,168.43 C260.33,167.9 260.25,166.96 260.78,166.32 L309.28,108.04 C309.81,107.41 310.76,107.32 311.39,107.85 C312.03,108.38 312.11,109.33 311.58,109.96 L263.08,168.24 C262.78,168.6 262.36,168.78 261.93,168.78 L261.93,168.78 Z" id="bezier152"></path>
                <path d="M123.39,71.28 C122.56,71.28 121.89,70.6 121.89,69.78 C121.89,68.95 122.56,68.28 123.39,68.28 L222.55,68.27 C223.38,68.27 224.05,68.94 224.05,69.77 C224.05,70.59 223.38,71.27 222.55,71.27 L123.39,71.28 L123.39,71.28 Z" id="bezier153"></path>
                <path d="M175.34,137.03 C175.02,137.03 174.7,136.92 174.42,136.71 C173.77,136.2 173.65,135.26 174.16,134.61 L222.86,71.9 C223.37,71.25 224.31,71.13 224.96,71.64 C225.62,72.14 225.73,73.09 225.23,73.74 L176.53,136.45 C176.23,136.83 175.79,137.03 175.34,137.03 L175.34,137.03 Z" id="bezier154"></path>
                <path d="M121.99,68.3 C121.66,68.3 121.32,68.19 121.04,67.96 C120.4,67.43 120.31,66.48 120.84,65.84 L169.34,7.57 C169.87,6.93 170.82,6.84 171.46,7.38 C172.09,7.91 172.18,8.85 171.65,9.49 L123.15,67.76 C122.85,68.12 122.42,68.3 121.99,68.3 L121.99,68.3 Z" id="bezier155"></path>
                <path d="M85.79,29.86 C85.12,29.86 84.51,29.41 84.34,28.74 C84.13,27.94 84.61,27.12 85.41,26.91 L168.85,5.08 C169.65,4.87 170.47,5.35 170.68,6.15 C170.89,6.96 170.41,7.78 169.61,7.98 L86.17,29.81 C86.04,29.84 85.91,29.86 85.79,29.86 L85.79,29.86 Z" id="bezier156"></path>
                <path d="M223.94,68.29 C223.51,68.29 223.09,68.11 222.79,67.75 L174.29,9.48 C173.76,8.85 173.85,7.9 174.48,7.37 C175.12,6.84 176.07,6.93 176.6,7.57 L225.09,65.83 C225.62,66.47 225.54,67.41 224.9,67.94 C224.62,68.18 224.28,68.29 223.94,68.29 L223.94,68.29 Z" id="bezier157"></path>
                <path d="M229.04,68.43 C228.68,68.43 228.31,68.3 228.02,68.03 C227.42,67.47 227.38,66.52 227.94,65.91 L260.17,31.14 C260.74,30.53 261.69,30.49 262.29,31.05 C262.9,31.62 262.94,32.57 262.38,33.17 L230.14,67.95 C229.85,68.27 229.45,68.43 229.04,68.43 L229.04,68.43 Z" id="bezier158"></path>
                <path d="M1.94,162.89 C1.69,162.89 1.44,162.83 1.2,162.7 C0.48,162.29 0.23,161.38 0.63,160.65 L29.85,108.7 C30.26,107.97 31.17,107.72 31.89,108.12 C32.62,108.53 32.87,109.45 32.47,110.17 L3.25,162.12 C2.97,162.61 2.46,162.89 1.94,162.89 L1.94,162.89 Z" id="bezier159"></path>
                <path d="M25.87,201.81 C25.4,201.81 24.95,201.6 24.65,201.19 L1.1,168.77 C0.61,168.1 0.76,167.16 1.43,166.67 C2.11,166.19 3.04,166.34 3.53,167.01 L27.08,199.43 C27.57,200.1 27.42,201.04 26.75,201.53 C26.48,201.72 26.17,201.81 25.87,201.81 L25.87,201.81 Z" id="bezier160"></path>
                <path d="M26.16,197.96 C26.12,197.96 26.08,197.96 26.05,197.95 C25.22,197.89 24.6,197.17 24.66,196.34 L31.27,109.8 C31.33,108.98 32.03,108.36 32.88,108.42 C33.7,108.48 34.32,109.21 34.26,110.03 L27.65,196.57 C27.6,197.36 26.94,197.96 26.16,197.96 L26.16,197.96 Z" id="bezier161"></path>
                <path d="M33.06,107.56 L33.06,107.56 C32.23,107.56 31.56,106.89 31.56,106.06 L31.57,68.14 C31.57,67.32 32.24,66.64 33.07,66.64 L33.07,66.64 C33.89,66.64 34.57,67.3 34.57,68.13 L34.56,106.06 C34.56,106.89 33.88,107.56 33.06,107.56 L33.06,107.56 Z" id="bezier162"></path>
                <path d="M35.14,104.3 C34.86,104.3 34.58,104.23 34.33,104.07 C33.63,103.62 33.43,102.69 33.87,101.99 L78.7,31.79 C79.15,31.09 80.07,30.89 80.77,31.34 C81.47,31.78 81.67,32.71 81.23,33.41 L36.4,103.61 C36.11,104.06 35.63,104.3 35.14,104.3 L35.14,104.3 Z" id="bezier163"></path>
                <path d="M319.82,197.92 C319.04,197.92 318.39,197.32 318.33,196.54 L311.7,110 C311.64,109.17 312.26,108.45 313.09,108.39 C313.9,108.33 314.63,108.95 314.7,109.77 L321.32,196.31 C321.38,197.13 320.76,197.85 319.93,197.92 L319.82,197.92 L319.82,197.92 Z" id="bezier164"></path>
                <path d="M312.9,107.53 L312.9,107.53 C312.08,107.53 311.4,106.86 311.4,106.03 L311.41,68.1 C311.41,67.27 312.09,66.6 312.91,66.6 L312.91,66.6 C313.74,66.6 314.41,67.27 314.41,68.1 L314.4,106.03 C314.4,106.86 313.73,107.53 312.9,107.53 L312.9,107.53 Z" id="bezier165"></path>
                <path d="M344.75,162.55 C344.12,162.55 343.53,162.15 343.32,161.52 L312.7,68.37 C312.44,67.59 312.87,66.74 313.66,66.48 C314.45,66.22 315.29,66.65 315.55,67.44 L346.17,160.58 C346.43,161.36 346,162.21 345.22,162.47 C345.06,162.52 344.9,162.55 344.75,162.55 L344.75,162.55 Z" id="bezier166"></path>
                <path d="M344.06,162.85 C343.54,162.85 343.03,162.58 342.75,162.09 L313.5,110.14 C313.09,109.41 313.34,108.5 314.07,108.09 C314.79,107.69 315.7,107.94 316.11,108.66 L345.36,160.61 C345.77,161.34 345.52,162.25 344.79,162.66 C344.56,162.79 344.31,162.85 344.06,162.85 L344.06,162.85 Z" id="bezier167"></path>
                <path d="M36.21,63.51 C35.74,63.51 35.28,63.29 34.99,62.88 C34.51,62.21 34.66,61.27 35.33,60.79 L115.52,3.19 C116.19,2.7 117.13,2.86 117.61,3.53 C118.1,4.2 117.94,5.14 117.27,5.62 L37.08,63.23 C36.82,63.42 36.51,63.51 36.21,63.51 L36.21,63.51 Z" id="bezier168"></path>
                <path d="M36.22,63.52 C35.75,63.52 35.29,63.3 34.99,62.89 C34.51,62.22 34.67,61.28 35.34,60.8 L78.03,30.36 C78.7,29.88 79.64,30.04 80.12,30.72 C80.6,31.39 80.44,32.33 79.77,32.81 L37.08,63.24 C36.82,63.43 36.52,63.52 36.22,63.52 L36.22,63.52 Z" id="bezier169"></path>
                <path d="M172.97,7.05 L172.88,7.05 L123.3,3.89 C122.48,3.84 121.85,3.12 121.9,2.3 C121.95,1.47 122.68,0.84 123.49,0.9 L173.07,4.06 C173.89,4.11 174.52,4.82 174.47,5.65 C174.42,6.44 173.76,7.05 172.97,7.05 L172.97,7.05 Z" id="bezier170"></path>
                <path d="M123.41,3.65 C122.58,3.65 121.91,2.98 121.91,2.15 C121.91,1.32 122.58,0.65 123.41,0.65 L222.57,0.64 C223.39,0.64 224.07,1.31 224.07,2.14 C224.07,2.96 223.39,3.64 222.57,3.64 L123.41,3.65 L123.41,3.65 Z" id="bezier171"></path>
                <path d="M173.06,7.05 C172.28,7.05 171.62,6.44 171.57,5.64 C171.51,4.82 172.14,4.1 172.97,4.05 L222.48,0.89 C223.32,0.83 224.02,1.46 224.07,2.29 C224.12,3.11 223.49,3.83 222.67,3.88 L173.16,7.04 C173.13,7.05 173.09,7.05 173.06,7.05 L173.06,7.05 Z" id="bezier172"></path>
                <path d="M260.16,29.84 C260.04,29.84 259.91,29.83 259.78,29.79 L176.33,7.98 C175.53,7.78 175.05,6.96 175.26,6.15 C175.47,5.35 176.29,4.87 177.09,5.08 L260.54,26.89 C261.34,27.1 261.82,27.92 261.61,28.72 C261.44,29.39 260.83,29.84 260.16,29.84 L260.16,29.84 Z" id="bezier173"></path>
                <path d="M263.9,30.82 C263.6,30.82 263.29,30.72 263.02,30.53 L228.68,5.62 C228.01,5.13 227.86,4.2 228.35,3.53 C228.83,2.85 229.77,2.71 230.44,3.19 L264.78,28.1 C265.46,28.59 265.6,29.53 265.12,30.2 C264.82,30.6 264.37,30.82 263.9,30.82 L263.9,30.82 Z" id="bezier174"></path>
                <path d="M309.77,63.49 C309.46,63.49 309.16,63.4 308.9,63.21 L266.18,32.78 C265.51,32.3 265.35,31.37 265.83,30.69 C266.31,30.02 267.25,29.86 267.92,30.34 L310.64,60.77 C311.31,61.25 311.47,62.18 310.99,62.86 C310.69,63.27 310.23,63.49 309.77,63.49 L309.77,63.49 Z" id="bezier175"></path>
                <path d="M309.77,63.48 C309.47,63.48 309.16,63.39 308.9,63.2 L228.7,5.61 C228.03,5.13 227.87,4.19 228.35,3.52 C228.84,2.84 229.78,2.69 230.45,3.17 L310.65,60.76 C311.32,61.24 311.47,62.18 310.99,62.85 C310.7,63.26 310.24,63.48 309.77,63.48 L309.77,63.48 Z" id="bezier176"></path>
            </g>
            <g id="dots_front" transform="translate(39.000000, 0.000000)" stroke="#FFFFFF" stroke-width="1.5" fill="#F5C64C" sketch:type="MSShapeGroup">
                <path d="M353.8,166.3 C353.82,166.43 353.83,166.58 353.83,166.72 C353.83,167.33 353.68,167.92 353.41,168.46 C353.39,168.51 353.36,168.56 353.33,168.62 C353.05,169.13 352.66,169.56 352.17,169.89 C352.14,169.91 352.11,169.94 352.07,169.96 C352.01,170 351.95,170.03 351.89,170.07 C351.63,170.23 351.34,170.34 351.04,170.44 C350.46,170.61 349.85,170.63 349.24,170.52 C348.81,170.44 348.4,170.29 348.02,170.07 C347.65,169.86 347.34,169.59 347.05,169.28 C346.84,169.03 346.65,168.77 346.51,168.46 C346.3,168.05 346.16,167.61 346.11,167.14 C346.09,167 346.09,166.86 346.09,166.72 C346.09,166.11 346.22,165.52 346.51,164.97 C346.53,164.92 346.55,164.87 346.58,164.83 C346.87,164.31 347.26,163.89 347.74,163.54 C347.77,163.53 347.81,163.51 347.84,163.48 C347.9,163.45 347.96,163.41 348.02,163.37 C348.29,163.22 348.57,163.09 348.86,163.01 C349.46,162.84 350.07,162.8 350.67,162.92 C351.09,163 351.51,163.15 351.89,163.37 C352.25,163.58 352.58,163.85 352.85,164.17 C353.07,164.41 353.27,164.68 353.41,164.97 C353.62,165.39 353.75,165.84 353.8,166.3 L353.8,166.3 Z" id="bezier177"></path>
                <path d="M320.78,266.79 C320.79,266.94 320.8,267.07 320.8,267.22 C320.8,267.83 320.66,268.41 320.39,268.96 C320.37,269.01 320.33,269.06 320.3,269.11 C320.03,269.62 319.62,270.05 319.15,270.39 C319.11,270.41 319.09,270.42 319.05,270.45 C318.99,270.49 318.93,270.52 318.86,270.56 C318.6,270.72 318.32,270.84 318.02,270.92 C317.44,271.1 316.83,271.13 316.22,271.01 C315.79,270.94 315.38,270.78 315,270.56 C314.63,270.35 314.31,270.08 314.03,269.78 C313.81,269.52 313.63,269.26 313.48,268.96 C313.26,268.55 313.14,268.1 313.08,267.63 C313.07,267.5 313.07,267.35 313.07,267.22 C313.07,266.61 313.2,266.01 313.48,265.47 C313.51,265.42 313.53,265.38 313.56,265.32 C313.85,264.82 314.24,264.38 314.72,264.05 C314.75,264.02 314.79,264 314.81,263.97 C314.88,263.94 314.94,263.9 315,263.86 C315.27,263.72 315.55,263.6 315.84,263.51 C316.42,263.33 317.05,263.3 317.65,263.41 C318.07,263.5 318.49,263.64 318.86,263.86 C319.23,264.07 319.56,264.34 319.83,264.66 C320.05,264.9 320.23,265.18 320.39,265.47 C320.6,265.89 320.73,266.33 320.78,266.79 L320.78,266.79 Z" id="bezier178"></path>
                <path d="M320.76,65.81 C320.78,65.96 320.78,66.09 320.78,66.23 C320.78,66.84 320.65,67.43 320.37,67.97 C320.34,68.02 320.32,68.07 320.28,68.13 C320,68.64 319.61,69.07 319.14,69.4 C319.1,69.42 319.06,69.45 319.03,69.47 C318.98,69.51 318.92,69.54 318.85,69.58 C318.59,69.74 318.3,69.86 318.01,69.95 C317.41,70.12 316.8,70.14 316.21,70.03 C315.77,69.95 315.36,69.8 314.99,69.58 C314.62,69.37 314.29,69.11 314.01,68.79 C313.8,68.54 313.61,68.28 313.46,67.97 C313.25,67.56 313.12,67.12 313.07,66.66 C313.06,66.51 313.05,66.37 313.05,66.23 C313.05,65.63 313.19,65.03 313.46,64.5 C313.48,64.45 313.51,64.4 313.55,64.34 C313.83,63.83 314.22,63.4 314.71,63.07 C314.73,63.04 314.77,63.02 314.8,62.99 C314.86,62.96 314.92,62.92 314.99,62.89 C315.24,62.73 315.52,62.6 315.83,62.52 C316.41,62.35 317.02,62.32 317.63,62.43 C318.06,62.52 318.48,62.67 318.85,62.89 C319.21,63.09 319.54,63.36 319.82,63.68 C320.04,63.92 320.22,64.19 320.37,64.49 C320.57,64.91 320.71,65.35 320.76,65.81 L320.76,65.81 Z" id="bezier179"></path>
                <path d="M270.68,299.41 C272.19,300.92 272.19,303.37 270.68,304.88 C269.17,306.39 266.73,306.39 265.22,304.88 C263.71,303.37 263.71,300.92 265.22,299.41 C266.73,297.9 269.17,297.9 270.68,299.41 L270.68,299.41 Z" id="bezier180"></path>
                <path d="M233.2,326.6 C234.71,328.11 234.71,330.56 233.2,332.07 C231.69,333.58 229.24,333.58 227.73,332.07 C226.22,330.56 226.22,328.11 227.73,326.6 C229.24,325.09 231.69,325.09 233.2,326.6 L233.2,326.6 Z" id="bezier181"></path>
                <path d="M233.16,1.4 C234.67,2.91 234.67,5.36 233.16,6.87 C231.65,8.38 229.2,8.38 227.69,6.87 C226.18,5.36 226.18,2.91 227.69,1.4 C229.2,-0.11 231.65,-0.11 233.16,1.4 L233.16,1.4 Z" id="bezier182"></path>
                <path d="M126.31,326.61 C127.82,328.12 127.82,330.57 126.31,332.08 C124.8,333.59 122.35,333.59 120.84,332.08 C119.33,330.57 119.33,328.12 120.84,326.61 C122.35,325.1 124.8,325.1 126.31,326.61 L126.31,326.61 Z" id="bezier183"></path>
                <path d="M126.27,1.41 C127.78,2.92 127.78,5.37 126.27,6.88 C124.76,8.39 122.31,8.39 120.8,6.88 C119.29,5.37 119.29,2.92 120.8,1.41 C122.31,-0.1 124.76,-0.1 126.27,1.41 L126.27,1.41 Z" id="bezier184"></path>
                <path d="M88.83,299.43 C90.34,300.94 90.34,303.39 88.83,304.9 C87.32,306.41 84.87,306.41 83.36,304.9 C81.85,303.39 81.85,300.94 83.36,299.43 C84.87,297.92 87.32,297.92 88.83,299.43 L88.83,299.43 Z" id="bezier185"></path>
                <path d="M40.93,266.83 C40.94,266.97 40.95,267.11 40.95,267.24 C40.95,267.85 40.81,268.45 40.54,268.99 C40.51,269.04 40.49,269.08 40.45,269.14 C40.17,269.66 39.78,270.08 39.29,270.41 C39.27,270.44 39.23,270.46 39.2,270.49 C39.13,270.52 39.07,270.56 39.01,270.6 C38.76,270.75 38.48,270.88 38.17,270.96 C37.58,271.13 36.98,271.16 36.36,271.05 C35.94,270.96 35.52,270.82 35.14,270.6 C34.79,270.39 34.46,270.12 34.18,269.8 C33.96,269.56 33.78,269.29 33.63,268.99 C33.42,268.57 33.29,268.13 33.24,267.67 C33.22,267.52 33.22,267.39 33.22,267.24 C33.22,266.64 33.35,266.05 33.63,265.51 C33.66,265.46 33.68,265.41 33.72,265.35 C34,264.84 34.39,264.41 34.86,264.07 C34.9,264.06 34.94,264.04 34.98,264.01 C35.02,263.97 35.08,263.94 35.14,263.9 C35.41,263.74 35.69,263.62 35.99,263.53 C36.58,263.36 37.2,263.34 37.79,263.45 C38.23,263.52 38.63,263.68 39.01,263.9 C39.38,264.11 39.71,264.38 39.99,264.69 C40.2,264.94 40.39,265.21 40.54,265.51 C40.74,265.92 40.88,266.36 40.93,266.83 L40.93,266.83 Z" id="bezier186"></path>
                <path d="M40.92,65.85 C40.93,65.98 40.93,66.13 40.93,66.26 C40.93,66.87 40.79,67.47 40.51,68.01 C40.49,68.06 40.46,68.1 40.44,68.17 C40.15,68.67 39.76,69.1 39.28,69.43 C39.24,69.46 39.21,69.48 39.18,69.51 C39.12,69.54 39.06,69.58 39,69.62 C38.73,69.76 38.45,69.89 38.16,69.97 C37.57,70.14 36.95,70.18 36.35,70.07 C35.93,69.98 35.51,69.84 35.13,69.62 C34.77,69.41 34.44,69.14 34.17,68.83 C33.95,68.58 33.77,68.3 33.61,68.01 C33.4,67.59 33.27,67.14 33.22,66.69 C33.21,66.55 33.19,66.41 33.19,66.27 C33.19,65.66 33.34,65.07 33.61,64.52 C33.63,64.47 33.67,64.42 33.69,64.37 C33.98,63.86 34.38,63.43 34.85,63.09 C34.89,63.07 34.91,63.04 34.95,63.03 C35.01,62.98 35.07,62.95 35.13,62.92 C35.4,62.76 35.68,62.64 35.98,62.56 C36.56,62.39 37.17,62.35 37.78,62.47 C38.21,62.54 38.62,62.7 39,62.92 C39.37,63.13 39.68,63.39 39.96,63.7 C40.18,63.96 40.37,64.23 40.51,64.52 C40.73,64.93 40.86,65.39 40.92,65.85 L40.92,65.85 Z" id="bezier187"></path>
                <path d="M7.88,166.34 C7.91,166.48 7.91,166.62 7.91,166.77 C7.91,167.36 7.77,167.96 7.49,168.51 C7.47,168.56 7.44,168.59 7.42,168.66 C7.13,169.17 6.74,169.59 6.26,169.94 C6.22,169.95 6.19,169.97 6.16,170 C6.1,170.03 6.04,170.07 5.98,170.11 C5.71,170.27 5.43,170.39 5.14,170.47 C4.54,170.64 3.93,170.67 3.33,170.56 C2.9,170.48 2.49,170.33 2.11,170.11 C1.75,169.9 1.42,169.63 1.15,169.31 C0.93,169.07 0.73,168.8 0.59,168.51 C0.38,168.08 0.25,167.64 0.2,167.18 C0.18,167.04 0.17,166.9 0.17,166.76 C0.17,166.15 0.32,165.56 0.59,165.02 C0.61,164.97 0.64,164.92 0.67,164.86 C0.95,164.35 1.34,163.92 1.83,163.59 C1.86,163.57 1.89,163.54 1.93,163.52 C1.99,163.48 2.05,163.45 2.11,163.41 C2.38,163.25 2.66,163.14 2.95,163.04 C3.54,162.87 4.15,162.85 4.76,162.96 C5.19,163.04 5.6,163.19 5.98,163.41 C6.35,163.62 6.66,163.89 6.94,164.2 C7.16,164.45 7.35,164.71 7.49,165.02 C7.7,165.43 7.83,165.87 7.88,166.34 L7.88,166.34 Z" id="bezier188"></path>
                <path d="M180.82,7.14 C180.83,7.27 180.84,7.42 180.84,7.55 C180.84,8.16 180.7,8.76 180.43,9.3 C180.4,9.35 180.37,9.4 180.34,9.46 C180.05,9.96 179.66,10.4 179.18,10.72 C179.15,10.75 179.12,10.77 179.09,10.8 C179.02,10.84 178.96,10.87 178.9,10.91 C178.63,11.05 178.35,11.18 178.06,11.26 C177.47,11.45 176.86,11.47 176.25,11.36 C175.83,11.28 175.41,11.13 175.03,10.91 C174.67,10.7 174.35,10.43 174.07,10.12 C173.85,9.87 173.67,9.59 173.52,9.3 C173.3,8.88 173.18,8.43 173.12,7.98 C173.11,7.84 173.11,7.7 173.11,7.55 C173.11,6.95 173.24,6.36 173.52,5.81 C173.55,5.76 173.57,5.71 173.59,5.66 C173.89,5.15 174.28,4.72 174.75,4.38 C174.79,4.36 174.83,4.33 174.85,4.32 C174.91,4.27 174.97,4.24 175.03,4.21 C175.3,4.05 175.58,3.93 175.88,3.85 C176.46,3.68 177.08,3.64 177.68,3.76 C178.11,3.84 178.52,3.99 178.9,4.21 C179.27,4.42 179.59,4.69 179.87,4.99 C180.09,5.25 180.27,5.52 180.43,5.81 C180.64,6.22 180.77,6.67 180.82,7.14 L180.82,7.14 Z" id="bezier189"></path>
                <path d="M326.85,199.54 C328.36,201.05 328.36,203.5 326.85,205.01 C325.34,206.52 322.89,206.52 321.38,205.01 C319.87,203.5 319.87,201.05 321.38,199.54 C322.89,198.03 325.34,198.03 326.85,199.54 L326.85,199.54 Z" id="bezier190"></path>
                <path d="M320.74,107.61 C320.77,107.75 320.77,107.88 320.77,108.03 C320.77,108.64 320.63,109.22 320.35,109.78 C320.33,109.82 320.3,109.87 320.28,109.92 C319.99,110.43 319.6,110.87 319.12,111.2 C319.09,111.23 319.05,111.25 319.01,111.26 C318.96,111.31 318.9,111.35 318.84,111.39 C318.57,111.53 318.29,111.65 318,111.74 C317.4,111.91 316.79,111.95 316.19,111.84 C315.76,111.75 315.35,111.6 314.97,111.39 C314.61,111.17 314.28,110.91 314.01,110.59 C313.79,110.35 313.6,110.07 313.45,109.78 C313.24,109.36 313.11,108.91 313.06,108.45 C313.05,108.31 313.03,108.18 313.03,108.03 C313.03,107.42 313.18,106.84 313.45,106.29 C313.47,106.24 313.5,106.19 313.53,106.14 C313.82,105.63 314.21,105.19 314.69,104.86 C314.72,104.84 314.75,104.81 314.79,104.8 C314.85,104.75 314.91,104.71 314.97,104.68 C315.23,104.53 315.52,104.41 315.82,104.32 C316.4,104.15 317.01,104.11 317.62,104.22 C318.05,104.31 318.46,104.46 318.84,104.67 C319.21,104.9 319.53,105.15 319.81,105.47 C320.03,105.71 320.21,105.99 320.35,106.28 C320.56,106.7 320.7,107.15 320.74,107.61 L320.74,107.61 Z" id="bezier191"></path>
                <path d="M271.74,30.9 C271.77,31.03 271.77,31.18 271.77,31.32 C271.77,31.92 271.63,32.52 271.35,33.06 C271.33,33.11 271.3,33.16 271.28,33.22 C270.99,33.72 270.6,34.16 270.12,34.49 C270.09,34.51 270.05,34.54 270.01,34.56 C269.96,34.6 269.9,34.63 269.84,34.67 C269.57,34.82 269.29,34.94 269,35.02 C268.4,35.21 267.79,35.23 267.19,35.12 C266.76,35.04 266.35,34.89 265.97,34.67 C265.61,34.46 265.28,34.2 265,33.88 C264.79,33.63 264.59,33.35 264.45,33.06 C264.24,32.65 264.11,32.21 264.06,31.74 C264.04,31.6 264.03,31.46 264.03,31.32 C264.03,30.71 264.18,30.12 264.45,29.57 C264.47,29.52 264.5,29.47 264.53,29.43 C264.81,28.91 265.21,28.49 265.69,28.15 C265.72,28.12 265.75,28.11 265.79,28.08 C265.85,28.05 265.91,28.01 265.97,27.97 C266.23,27.82 266.52,27.69 266.82,27.61 C267.4,27.44 268.01,27.4 268.62,27.52 C269.05,27.6 269.46,27.76 269.84,27.97 C270.2,28.18 270.53,28.45 270.8,28.76 C271.03,29.01 271.21,29.28 271.35,29.57 C271.56,29.98 271.7,30.44 271.74,30.9 L271.74,30.9 Z" id="bezier192"></path>
                <path d="M267.3,171.83 C267.32,171.97 267.32,172.11 267.32,172.25 C267.32,172.86 267.18,173.45 266.9,174 C266.88,174.05 266.85,174.1 266.83,174.14 C266.54,174.66 266.15,175.08 265.67,175.42 C265.63,175.45 265.6,175.47 265.57,175.49 C265.51,175.53 265.45,175.57 265.39,175.59 C265.12,175.75 264.84,175.88 264.55,175.96 C263.96,176.13 263.34,176.17 262.74,176.06 C262.31,175.97 261.9,175.82 261.52,175.59 C261.16,175.39 260.84,175.13 260.56,174.82 C260.34,174.56 260.16,174.29 260,174 C259.79,173.58 259.65,173.13 259.6,172.67 C259.59,172.53 259.58,172.39 259.58,172.25 C259.58,171.64 259.73,171.06 260,170.51 C260.02,170.46 260.06,170.41 260.08,170.35 C260.37,169.85 260.77,169.41 261.24,169.08 C261.28,169.06 261.3,169.03 261.34,169.01 C261.4,168.97 261.46,168.94 261.52,168.9 C261.79,168.75 262.07,168.63 262.36,168.55 C262.95,168.38 263.56,168.34 264.17,168.45 C264.6,168.53 265.01,168.68 265.39,168.9 C265.76,169.12 266.07,169.38 266.35,169.69 C266.57,169.94 266.76,170.22 266.9,170.51 C267.12,170.92 267.24,171.38 267.3,171.83 L267.3,171.83 Z" id="bezier193"></path>
                <path d="M266.21,267.9 C267.72,269.41 267.72,271.86 266.21,273.37 C264.7,274.88 262.25,274.88 260.74,273.37 C259.23,271.86 259.23,269.41 260.74,267.9 C262.25,266.39 264.7,266.39 266.21,267.9 L266.21,267.9 Z" id="bezier194"></path>
                <path d="M234.26,71.35 C234.27,71.48 234.28,71.63 234.28,71.77 C234.28,72.38 234.14,72.96 233.87,73.51 C233.84,73.56 233.82,73.61 233.78,73.66 C233.5,74.17 233.11,74.61 232.62,74.94 C232.6,74.96 232.56,74.99 232.53,75.01 C232.47,75.05 232.4,75.08 232.34,75.12 C232.09,75.27 231.81,75.39 231.5,75.47 C230.91,75.65 230.31,75.68 229.71,75.57 C229.27,75.49 228.85,75.34 228.48,75.12 C228.12,74.9 227.79,74.65 227.51,74.33 C227.29,74.08 227.11,73.8 226.96,73.51 C226.76,73.1 226.62,72.65 226.57,72.18 C226.55,72.05 226.55,71.91 226.55,71.77 C226.55,71.16 226.68,70.57 226.96,70.02 C226.99,69.97 227.01,69.92 227.05,69.88 C227.33,69.36 227.72,68.92 228.2,68.59 C228.23,68.57 228.27,68.55 228.3,68.53 C228.35,68.48 228.41,68.45 228.47,68.41 C228.74,68.27 229.02,68.14 229.32,68.06 C229.91,67.89 230.53,67.85 231.12,67.96 C231.56,68.04 231.97,68.2 232.34,68.41 C232.71,68.63 233.04,68.89 233.32,69.2 C233.53,69.46 233.72,69.73 233.87,70.02 C234.08,70.43 234.21,70.89 234.26,71.35 L234.26,71.35 Z" id="bezier195"></path>
                <path d="M180.88,139.72 C180.89,139.86 180.9,140 180.9,140.15 C180.9,140.75 180.76,141.34 180.48,141.89 C180.45,141.94 180.43,141.98 180.4,142.04 C180.11,142.55 179.72,142.98 179.24,143.31 C179.21,143.33 179.18,143.36 179.15,143.38 C179.09,143.42 179.03,143.45 178.96,143.49 C178.69,143.65 178.41,143.77 178.12,143.86 C177.54,144.03 176.93,144.05 176.32,143.94 C175.89,143.87 175.47,143.71 175.1,143.49 C174.73,143.28 174.41,143.02 174.13,142.7 C173.91,142.45 173.73,142.18 173.57,141.89 C173.36,141.47 173.23,141.03 173.18,140.56 C173.17,140.42 173.16,140.28 173.16,140.15 C173.16,139.54 173.3,138.94 173.57,138.4 C173.6,138.35 173.63,138.31 173.66,138.25 C173.95,137.73 174.34,137.31 174.82,136.98 C174.85,136.95 174.88,136.93 174.91,136.9 C174.97,136.87 175.04,136.83 175.1,136.79 C175.36,136.64 175.65,136.51 175.94,136.43 C176.52,136.26 177.13,136.23 177.74,136.34 C178.17,136.43 178.59,136.57 178.96,136.79 C179.33,137 179.65,137.27 179.93,137.59 C180.15,137.83 180.33,138.1 180.48,138.4 C180.7,138.82 180.82,139.26 180.88,139.72 L180.88,139.72 Z" id="bezier196"></path>
                <path d="M177,304.01 C179.15,304.01 180.89,305.75 180.89,307.9 C180.89,310.05 179.15,311.79 177,311.79 C174.85,311.79 173.11,310.05 173.11,307.9 C173.11,305.75 174.85,304.01 177,304.01 L177,304.01 Z" id="bezier197"></path>
                <path d="M176.98,230.5 C179.12,230.5 180.85,232.23 180.85,234.37 C180.85,236.5 179.12,238.23 176.98,238.23 C174.84,238.23 173.11,236.5 173.11,234.37 C173.11,232.23 174.84,230.5 176.98,230.5 L176.98,230.5 Z" id="bezier198"></path>
                <path d="M127.36,71.36 C127.38,71.5 127.39,71.64 127.39,71.78 C127.39,72.39 127.24,72.97 126.97,73.52 C126.95,73.57 126.93,73.62 126.89,73.67 C126.61,74.18 126.22,74.62 125.73,74.95 C125.71,74.97 125.67,75 125.63,75.02 C125.57,75.06 125.51,75.09 125.45,75.13 C125.19,75.28 124.91,75.4 124.61,75.49 C124.02,75.66 123.41,75.69 122.81,75.58 C122.38,75.5 121.97,75.35 121.58,75.13 C121.23,74.91 120.9,74.66 120.62,74.34 C120.4,74.1 120.22,73.82 120.07,73.52 C119.86,73.11 119.73,72.66 119.68,72.19 C119.67,72.06 119.66,71.92 119.66,71.78 C119.66,71.17 119.79,70.58 120.07,70.03 C120.09,69.98 120.12,69.94 120.16,69.89 C120.44,69.38 120.83,68.94 121.3,68.61 C121.34,68.58 121.38,68.56 121.41,68.55 C121.46,68.5 121.52,68.46 121.58,68.42 C121.85,68.28 122.13,68.16 122.42,68.07 C123.02,67.9 123.63,67.86 124.23,67.97 C124.67,68.06 125.07,68.2 125.45,68.42 C125.82,68.64 126.14,68.9 126.42,69.22 C126.65,69.46 126.83,69.74 126.97,70.03 C127.18,70.45 127.32,70.9 127.36,71.36 L127.36,71.36 Z" id="bezier199"></path>
                <path d="M94.34,171.85 C94.36,172 94.37,172.13 94.37,172.28 C94.37,172.88 94.22,173.47 93.95,174.01 C93.93,174.06 93.9,174.11 93.87,174.17 C93.59,174.68 93.18,175.11 92.71,175.44 C92.68,175.46 92.65,175.49 92.61,175.51 C92.55,175.55 92.49,175.58 92.43,175.62 C92.16,175.78 91.88,175.9 91.59,175.99 C91,176.16 90.39,176.18 89.78,176.07 C89.35,175.99 88.94,175.84 88.56,175.62 C88.2,175.41 87.88,175.14 87.6,174.83 C87.38,174.58 87.2,174.32 87.05,174.01 C86.83,173.6 86.71,173.16 86.66,172.69 C86.63,172.56 86.63,172.41 86.63,172.28 C86.63,171.67 86.77,171.07 87.05,170.53 C87.07,170.49 87.1,170.44 87.12,170.38 C87.41,169.86 87.8,169.44 88.28,169.11 C88.32,169.08 88.35,169.06 88.38,169.03 C88.44,169 88.5,168.96 88.56,168.92 C88.83,168.77 89.11,168.65 89.4,168.56 C89.99,168.39 90.61,168.36 91.21,168.47 C91.64,168.56 92.05,168.71 92.43,168.92 C92.79,169.13 93.12,169.4 93.39,169.72 C93.61,169.96 93.79,170.23 93.95,170.53 C94.16,170.95 94.29,171.39 94.34,171.85 L94.34,171.85 Z" id="bezier200"></path>
                <path d="M93.25,267.92 C94.76,269.43 94.76,271.88 93.25,273.39 C91.74,274.9 89.29,274.9 87.78,273.39 C86.27,271.88 86.27,269.43 87.78,267.92 C89.29,266.41 91.74,266.41 93.25,267.92 L93.25,267.92 Z" id="bezier201"></path>
                <path d="M89.89,30.92 C89.9,31.06 89.92,31.19 89.92,31.34 C89.92,31.95 89.77,32.53 89.5,33.08 C89.48,33.13 89.45,33.18 89.42,33.23 C89.14,33.74 88.73,34.18 88.26,34.51 C88.23,34.53 88.2,34.56 88.16,34.57 C88.1,34.62 88.04,34.66 87.98,34.69 C87.71,34.84 87.43,34.96 87.13,35.05 C86.55,35.22 85.94,35.26 85.33,35.15 C84.9,35.06 84.49,34.91 84.11,34.69 C83.74,34.47 83.43,34.22 83.15,33.9 C82.93,33.66 82.74,33.38 82.6,33.08 C82.39,32.67 82.26,32.22 82.21,31.75 C82.18,31.62 82.18,31.47 82.18,31.34 C82.18,30.73 82.32,30.14 82.6,29.59 C82.62,29.54 82.65,29.5 82.67,29.45 C82.96,28.93 83.35,28.5 83.83,28.17 C83.87,28.14 83.9,28.12 83.93,28.09 C83.99,28.06 84.05,28.02 84.11,27.98 C84.38,27.84 84.66,27.72 84.95,27.63 C85.54,27.46 86.16,27.42 86.76,27.53 C87.18,27.62 87.6,27.76 87.98,27.98 C88.34,28.2 88.67,28.46 88.94,28.78 C89.16,29.02 89.35,29.3 89.5,29.59 C89.71,30.01 89.84,30.46 89.89,30.92 L89.89,30.92 Z" id="bezier202"></path>
                <path d="M40.9,107.64 C40.92,107.79 40.93,107.92 40.93,108.07 C40.93,108.66 40.78,109.26 40.51,109.81 C40.48,109.86 40.45,109.91 40.43,109.96 C40.14,110.47 39.74,110.9 39.27,111.24 C39.23,111.25 39.21,111.28 39.17,111.3 C39.11,111.34 39.05,111.37 38.99,111.41 C38.72,111.57 38.44,111.69 38.15,111.78 C37.56,111.95 36.95,111.97 36.34,111.86 C35.91,111.79 35.5,111.63 35.12,111.41 C34.76,111.2 34.44,110.93 34.16,110.62 C33.94,110.37 33.76,110.1 33.61,109.81 C33.39,109.38 33.27,108.95 33.21,108.48 C33.19,108.35 33.18,108.2 33.18,108.07 C33.18,107.46 33.33,106.86 33.61,106.32 C33.63,106.27 33.66,106.22 33.68,106.16 C33.98,105.65 34.36,105.22 34.84,104.89 C34.88,104.87 34.9,104.84 34.94,104.82 C35,104.78 35.06,104.75 35.12,104.71 C35.39,104.55 35.67,104.44 35.96,104.34 C36.55,104.17 37.17,104.15 37.77,104.26 C38.2,104.34 38.61,104.49 38.99,104.71 C39.36,104.92 39.67,105.19 39.95,105.5 C40.17,105.75 40.36,106.02 40.51,106.32 C40.72,106.74 40.86,107.18 40.9,107.64 L40.9,107.64 Z" id="bezier203"></path>
                <path d="M32.6,199.58 C34.11,201.09 34.11,203.54 32.6,205.05 C31.09,206.56 28.64,206.56 27.13,205.05 C25.62,203.54 25.62,201.09 27.13,199.58 C28.64,198.07 31.09,198.07 32.6,199.58 L32.6,199.58 Z" id="bezier204"></path>
            </g>
        </g>
    </g>
</svg>