<?xml version="1.0" encoding="UTF-8" standalone="no"?>
<svg width="257px" height="294px" viewBox="0 0 257 294" version="1.1" xmlns="http://www.w3.org/2000/svg" xmlns:xlink="http://www.w3.org/1999/xlink" xmlns:sketch="http://www.bohemiancoding.com/sketch/ns">
    <!-- Generator: Sketch 3.1.1 (8761) - http://www.bohemiancoding.com/sketch -->
    <title>Slice 2</title>
    <desc>Created with Sketch.</desc>
    <defs></defs>
    <g id="Page-1" stroke="none" stroke-width="1" fill="none" fill-rule="evenodd" sketch:type="MSPage">
        <g id="hexa" sketch:type="MSLayerGroup" transform="translate(7.000000, 7.000000)">
            <g id="inner_vault_fill" transform="translate(1.000000, 2.000000)" fill="#E0EAEF" sketch:type="MSShapeGroup">
                <path d="M0.35,208.59 L120.87,278.17 L241.4,208.59 L241.4,69.41 L120.87,-0.17 L0.35,69.41 L0.35,208.59 L0.35,208.59 Z" id="bezier"></path>
            </g>
            <g id="dotted_lines" transform="translate(7.000000, 9.000000)" stroke="#82B8C8" stroke-width="1.5" stroke-dasharray="4,4,4,4" sketch:type="MSShapeGroup">
                <path d="M115.87,0.3 L115.87,127.02" id="bezier6"></path>
                <path d="M122.34,135.73 L232.08,199.09" id="bezier9"></path>
                <path d="M109.41,135.73 L-0.34,199.09" id="bezier3"></path>
            </g>
            <g id="cube" transform="translate(57.000000, 85.000000)" stroke-opacity="0.4" stroke="#282746" sketch:type="MSShapeGroup">
                <g id="lines">
                    <path d="M83.18,87.48 L97.51,62.66" id="bezier46"></path>
                    <path d="M54.51,87.48 L83.18,87.48" id="bezier47"></path>
                    <path d="M97.51,112.31 L83.18,87.49 L83.18,87.48" id="bezier48"></path>
                    <path d="M101.36,56 L115.68,31.18 L115.69,31.18" id="bezier49"></path>
                    <path d="M93.67,56 L101.36,56" id="bezier50"></path>
                    <path d="M115.69,80.82 L101.36,56" id="bezier51"></path>
                    <path id="bezier52" d="M36.33,56 L36.34,56 L65,56"></path>
                    <path d="M50.67,31.18 L46.82,24.52" id="bezier53"></path>
                    <path d="M83.18,24.52 L83.18,24.51 L97.51,-0.31" id="bezier54"></path>
                    <path id="bezier55" d="M54.51,24.52 L54.53,24.52 L83.18,24.52"></path>
                    <path d="M97.51,49.33 L83.18,24.52" id="bezier56"></path>
                    <path d="M65,56 L79.33,31.17" id="bezier57"></path>
                    <path d="M46.82,24.52 L46.82,24.51 L52.07,15.43 L61.15,-0.31" id="bezier58"></path>
                    <path d="M18.16,24.51 L46.82,24.52" id="bezier59"></path>
                    <path d="M79.33,80.82 L65,56" id="bezier60"></path>
                    <path d="M28.64,56 L42.98,31.18" id="bezier61"></path>
                    <path d="M-0.02,56 L28.64,56" id="bezier62"></path>
                    <path d="M42.98,80.82 L37.73,71.74 L28.64,56" id="bezier63"></path>
                    <path d="M46.82,87.48 L50.67,80.82" id="bezier64"></path>
                    <path id="bezier65" d="M18.16,87.48 L18.17,87.48 L46.82,87.48"></path>
                    <path d="M61.15,112.31 L46.82,87.48" id="bezier66"></path>
                    <path d="M65,6.35 L61.16,-0.3 L61.15,-0.31 L32.49,-0.31 L18.16,24.51 L22,31.18" id="bezier67" stroke-width="2"></path>
                    <path d="M108,80.82 L115.69,80.82 L130.02,56 L115.69,31.18 L115.69,31.17 L108,31.18" id="bezier68" stroke-width="2"></path>
                    <path d="M58.36,80.82 L54.51,87.48 L65,105.65 L68.85,112.31 L97.51,112.31 L108,94.14 L111.84,87.48 L108,80.82 L97.51,62.66 L89.82,62.66" id="bezier69" stroke-width="2"></path>
                    <path d="M89.82,49.34 L97.51,49.34 L97.51,49.33 L111.84,24.51 L97.51,-0.31 L68.85,-0.31 L65,6.35 L54.52,24.51 L54.51,24.52 L58.35,31.17 L58.36,31.17 L58.36,31.18" id="bezier70" stroke-width="2"></path>
                    <path d="M46.82,37.84 L46.82,37.83 L42.98,31.18 L22.01,31.18 L22,31.18 L14.31,31.18 L-0.02,56 L14.31,80.82 L22,80.82 L42.97,80.82 L42.98,80.82 L46.82,74.16" id="bezier71" stroke-width="2"></path>
                    <path d="M50.67,80.82 L58.36,80.82 L79.33,80.82 L89.82,62.66 L93.67,56 L89.82,49.34 L79.33,31.17 L58.36,31.18 L50.67,31.18 L46.82,37.84 L42.2,45.85 L36.33,56 L46.82,74.16 L46.83,74.16 L46.83,74.17 L50.67,80.82 L50.67,80.82 Z" id="bezier72" stroke-width="2"></path>
                    <path d="M22,80.82 L18.16,87.48 L18.16,87.49 L18.17,87.49 L24.59,98.62 L32.49,112.31 L61.15,112.31 L61.16,112.3 L65,105.65" id="bezier73" stroke-width="2"></path>
                </g>
            </g>
            <g id="lasers" stroke="#1DE3DB" fill="#17B4AE" sketch:type="MSShapeGroup">
                <path d="M242.4,212.09 C241.96,212.09 241.52,211.89 241.22,211.52 L185.84,141.93 C185.33,141.29 185.44,140.34 186.09,139.83 C186.73,139.31 187.68,139.42 188.19,140.07 L243.57,209.65 C244.09,210.3 243.98,211.24 243.33,211.76 C243.06,211.98 242.73,212.09 242.4,212.09 L242.4,212.09 Z" id="bezier74"></path>
                <path d="M121.87,281.67 C121.69,281.67 121.51,281.64 121.32,281.57 C120.55,281.26 120.17,280.39 120.48,279.62 L153.11,196.89 C153.42,196.12 154.29,195.74 155.06,196.05 C155.83,196.35 156.21,197.22 155.91,197.99 L123.27,280.72 C123.04,281.31 122.47,281.67 121.87,281.67 L121.87,281.67 Z" id="bezier75"></path>
                <path d="M2.55,212.35 C1.84,212.35 1.22,211.89 1.09,211.22 C0.96,210.49 1.49,209.78 2.3,209.66 L89.95,195.82 C90.76,195.69 91.53,196.19 91.66,196.93 C91.8,197.67 91.26,198.37 90.46,198.5 L2.8,212.33 C2.72,212.35 2.63,212.35 2.55,212.35 L2.55,212.35 Z" id="bezier76"></path>
                <path d="M56.98,142.49 C56.54,142.49 56.11,142.3 55.81,141.93 L0.18,72.35 C-0.34,71.7 -0.24,70.76 0.41,70.24 C1.06,69.73 2,69.83 2.52,70.48 L58.16,140.06 C58.67,140.71 58.57,141.65 57.92,142.17 C57.64,142.39 57.31,142.49 56.98,142.49 L56.98,142.49 Z" id="bezier77"></path>
                <path d="M89.48,86.2 C89.3,86.2 89.12,86.17 88.94,86.1 C88.17,85.8 87.79,84.93 88.09,84.15 L120.48,1.28 C120.78,0.51 121.65,0.13 122.42,0.43 C123.19,0.73 123.57,1.6 123.27,2.38 L90.88,85.25 C90.65,85.84 90.08,86.2 89.48,86.2 L89.48,86.2 Z" id="bezier78"></path>
                <path d="M154.5,86.2 C153.77,86.2 153.13,85.67 153.02,84.92 C152.9,84.1 153.46,83.34 154.28,83.22 L242.18,69.93 C243,69.8 243.76,70.37 243.88,71.19 C244.01,72.01 243.44,72.77 242.62,72.9 L154.73,86.18 C154.65,86.2 154.58,86.2 154.5,86.2 L154.5,86.2 Z" id="bezier79"></path>
            </g>
            <g id="vault_Dial" transform="translate(15.000000, 115.000000)" sketch:type="MSShapeGroup">
                <path d="M93.24,81.02 C94.08,89.28 93.83,96.86 90.78,104.82 C88.64,110.37 85.15,115.27 79.84,118.33 C74.53,121.4 68.54,121.98 62.66,121.04 C54.71,119.79 47.18,115.87 40.81,111.28 C29.63,103.22 20.18,91.75 13.38,79.97 C6.58,68.18 1.37,54.26 -0.03,40.55 C-0.86,32.29 -0.62,24.7 2.45,16.73 C4.59,11.18 8.07,6.3 13.38,3.23 C18.7,0.17 24.68,-0.41 30.55,0.52 C38.52,1.77 46.03,5.69 52.41,10.29 C63.58,18.34 73.03,29.81 79.84,41.6 C86.65,53.39 91.85,67.3 93.24,81.02 L93.24,81.02 Z M83.11,98.03 C87.63,87.03 85.69,73.81 82.4,63.27 C78.77,51.65 73.32,41.71 65.62,32.31 C62.83,28.91 59.84,25.76 56.54,22.86 C55.07,21.57 53.57,20.34 52,19.18 C51.95,19.15 51.58,18.84 51.5,18.89 C51.42,18.95 51.33,18.99 51.25,19.04 C51.09,19.15 50.91,19.26 50.74,19.36 C50.41,19.57 50.07,19.78 49.74,19.99 C49.06,20.4 48.39,20.83 47.71,21.24 C47.38,21.46 47.05,21.67 46.71,21.87 C46.43,22.05 46.28,21.36 46.21,21.22 C46.03,20.92 45.87,20.61 45.7,20.32 C44.35,17.93 43.01,15.54 41.66,13.15 C30.14,8.19 17.4,9.08 11.04,21.52 C5.65,32.04 7.25,45.74 10.18,56.14 C15.86,76.25 32.34,101.43 53.63,109.24 C65.85,113.72 77.81,110.92 83.11,98.03 L83.11,98.03 Z" id="bezier80" fill="#282746"></path>
                <path d="M82.4,63.27 C85.69,73.81 87.63,87.03 83.11,98.03 C77.81,110.92 65.85,113.72 53.63,109.24 C32.34,101.43 15.87,76.25 10.19,56.14 C7.25,45.74 5.65,32.04 11.04,21.52 C17.41,9.08 30.14,8.19 41.67,13.15 C43.02,15.54 44.35,17.93 45.7,20.32 C45.87,20.62 46.03,20.92 46.21,21.22 C46.28,21.36 46.44,22.05 46.71,21.87 C47.05,21.67 47.38,21.46 47.71,21.24 C48.39,20.83 49.06,20.4 49.74,19.99 C50.07,19.78 50.41,19.58 50.74,19.36 C50.91,19.26 51.09,19.15 51.25,19.04 C51.34,19 51.42,18.95 51.5,18.89 C51.59,18.84 51.95,19.15 52,19.19 C53.57,20.35 55.08,21.58 56.54,22.87 C59.84,25.77 62.83,28.91 65.62,32.31 C73.32,41.71 78.77,51.65 82.4,63.27 L82.4,63.27 Z M73.77,75.85 C73.89,75.92 73.84,75.74 73.84,75.67 C73.83,75.02 73.8,74.38 73.75,73.73 C73.55,70.91 73.07,68.17 72.38,65.43 C71.62,62.47 70.64,59.61 69.44,56.79 C68.84,55.37 68.17,53.97 67.47,52.59 C67.12,51.91 66.76,51.23 66.39,50.56 C66.32,50.43 66.25,50.31 66.08,50.4 C66.01,50.44 65.94,50.49 65.87,50.52 C65.56,50.7 65.25,50.88 64.94,51.07 C64.83,51.13 64.86,50.95 64.83,50.89 C64.79,50.82 64.76,50.76 64.72,50.69 C64.64,50.56 64.57,50.42 64.48,50.29 C64.44,50.22 64.13,49.8 64.27,49.72 C64.42,49.64 64.58,49.54 64.73,49.46 C64.9,49.36 65.05,49.28 65.21,49.19 C65.74,48.88 65.21,48.53 65.02,48.22 C64.13,46.77 63.19,45.35 62.2,43.98 C58.35,38.67 54.08,34.18 48.55,30.52 C48.3,30.37 48.06,30.2 47.81,30.05 C47.38,29.78 47.67,30.69 47.67,30.95 L47.67,33.45 L47.67,34.69 L47.67,35.32 C47.67,35.41 47.81,35.68 47.64,35.59 C47.55,35.54 47.47,35.49 47.37,35.43 C47.02,35.23 46.65,35.02 46.29,34.81 C46.12,34.71 45.94,34.6 45.75,34.5 C45.54,34.37 45.56,34.19 45.56,33.99 L45.56,28.99 C45.56,28.59 45.24,28.57 44.98,28.44 C44.73,28.31 44.48,28.19 44.23,28.07 C43.75,27.84 43.25,27.62 42.76,27.41 C39.04,25.88 35.61,25.1 31.52,25.88 C30.26,26.12 29.09,26.51 27.94,27.1 C27.5,27.32 28.12,27.87 28.23,28.1 C28.44,28.44 28.64,28.78 28.83,29.13 C28.92,29.28 29.1,29.45 28.86,29.58 C28.76,29.64 28.66,29.69 28.57,29.75 C28.47,29.8 28.38,30.07 28.28,29.88 C28.08,29.55 27.88,29.21 27.69,28.86 C27.49,28.52 27.29,28.19 27.1,27.85 C26.91,27.53 26.71,27.81 26.52,27.94 C26.26,28.12 26.01,28.3 25.76,28.5 C20.91,32.36 19.47,38.83 19.37,44.45 C19.82,44.7 20.27,44.96 20.72,45.22 C20.84,45.29 20.94,45.35 21.06,45.42 C21.26,45.54 21.23,45.72 21.23,45.91 L21.23,46.69 C21.23,46.9 21.02,46.62 20.91,46.56 C20.46,46.3 20.01,46.04 19.56,45.78 C19.51,45.74 19.45,45.72 19.39,45.68 C19.15,45.53 19.38,45.98 19.38,46.12 C19.39,46.49 19.41,46.84 19.43,47.21 C19.48,47.95 19.54,48.7 19.62,49.43 C20.38,56.3 22.46,62.43 25.53,68.55 C25.92,69.32 26.33,70.09 26.74,70.84 C26.84,71.01 26.86,71.33 27.13,71.16 C27.2,71.13 27.29,71.08 27.37,71.03 C27.52,70.94 27.69,70.84 27.84,70.75 C28.01,70.65 28.19,70.33 28.36,70.63 C28.46,70.79 29.23,71.68 28.9,71.87 C28.73,71.97 28.58,72.06 28.41,72.14 C28.26,72.24 28.09,72.33 27.94,72.43 C27.83,72.49 27.71,72.52 27.8,72.66 C28.02,73.04 28.25,73.41 28.47,73.78 C32.13,79.66 36.33,84.69 41.82,88.98 C42.54,89.55 43.28,90.09 44.03,90.61 C44.39,90.85 44.76,91.1 45.12,91.34 C45.31,91.45 45.49,91.57 45.68,91.68 C45.81,91.77 46.08,92.17 46.08,91.87 L46.08,90.01 C46.08,89.94 45.99,89.73 46.1,89.8 C46.23,89.88 46.38,89.96 46.51,90.04 C46.59,90.09 47.13,90.36 47.13,90.5 L47.13,91.43 L47.13,92.36 C47.13,92.83 47.55,92.77 47.82,92.9 C48.17,93.09 48.54,93.28 48.92,93.46 C53.74,95.77 59.73,97.15 65.03,94.59 C65.17,94.52 65.32,94.45 65.47,94.37 C65.64,94.28 65.39,94.19 65.35,94.11 C65.24,93.92 65.13,93.74 65.03,93.55 C64.83,93.18 64.61,92.82 64.4,92.46 C64.29,92.29 64.14,92.11 64.39,91.97 C64.51,91.91 64.85,91.52 64.98,91.73 C65.19,92.1 65.41,92.46 65.61,92.83 C65.71,93.02 65.82,93.2 65.93,93.38 C65.98,93.47 66.03,93.56 66.09,93.66 C66.14,93.74 66.07,94.04 66.25,93.92 C66.81,93.56 67.35,93.17 67.86,92.74 C68.94,91.8 69.83,90.75 70.6,89.54 C72.44,86.66 73.24,83.7 73.63,80.37 C73.74,79.47 73.81,78.57 73.83,77.67 C73.84,77.39 73.88,77.14 73.58,76.96 C73.43,76.88 73.28,76.79 73.13,76.7 C72.83,76.53 72.53,76.36 72.23,76.19 C71.97,76.04 72,75.81 72,75.57 C72,75.33 71.72,74.68 72.13,74.9 C72.52,75.13 72.92,75.36 73.32,75.59 C73.42,75.65 73.52,75.71 73.62,75.77 C73.67,75.8 73.72,75.82 73.77,75.85 L73.77,75.85 Z" id="bezier81" fill="#F6F6F6"></path>
                <path d="M73.84,75.67 C73.84,75.74 73.89,75.92 73.77,75.85 C73.72,75.82 73.67,75.8 73.62,75.77 C73.52,75.71 73.42,75.65 73.32,75.59 C72.92,75.36 72.52,75.13 72.13,74.9 C71.72,74.68 72,75.33 72,75.56 C72,75.81 71.97,76.04 72.23,76.19 C72.53,76.36 72.83,76.53 73.13,76.7 C73.28,76.79 73.43,76.88 73.58,76.96 C73.88,77.14 73.84,77.39 73.83,77.67 C73.81,78.57 73.74,79.47 73.63,80.37 C73.24,83.69 72.44,86.66 70.6,89.54 C69.83,90.75 68.95,91.8 67.86,92.73 C67.35,93.17 66.81,93.56 66.25,93.92 C66.07,94.04 66.14,93.74 66.09,93.66 C66.03,93.56 65.99,93.47 65.93,93.37 C65.82,93.2 65.71,93.02 65.61,92.83 C65.41,92.46 65.19,92.1 64.98,91.73 C64.85,91.52 64.51,91.91 64.39,91.97 C64.14,92.11 64.29,92.28 64.4,92.46 C64.61,92.82 64.83,93.18 65.03,93.55 C65.13,93.74 65.24,93.92 65.35,94.11 C65.39,94.19 65.64,94.28 65.47,94.37 C65.32,94.45 65.17,94.52 65.03,94.59 C59.72,97.15 53.74,95.76 48.92,93.46 C48.54,93.28 48.17,93.09 47.82,92.9 C47.55,92.77 47.13,92.83 47.13,92.36 L47.13,91.43 L47.13,90.5 C47.13,90.36 46.59,90.08 46.51,90.04 C46.38,89.95 46.23,89.88 46.1,89.8 C45.99,89.73 46.08,89.94 46.08,90.01 L46.08,91.87 C46.08,92.17 45.81,91.77 45.68,91.68 C45.49,91.56 45.31,91.45 45.12,91.34 C44.76,91.1 44.39,90.85 44.03,90.6 C43.28,90.08 42.54,89.55 41.82,88.98 C36.33,84.69 32.13,79.66 28.47,73.78 C28.25,73.41 28.02,73.04 27.8,72.66 C27.71,72.52 27.83,72.49 27.94,72.43 C28.09,72.33 28.26,72.24 28.41,72.14 C28.58,72.06 28.73,71.97 28.9,71.87 C29.23,71.68 28.46,70.79 28.36,70.63 C28.19,70.33 28.01,70.65 27.84,70.75 C27.69,70.84 27.52,70.94 27.37,71.03 C27.29,71.08 27.2,71.13 27.13,71.16 C26.86,71.33 26.84,71.01 26.74,70.84 C26.33,70.08 25.92,69.32 25.53,68.55 C22.46,62.43 20.38,56.3 19.62,49.43 C19.53,48.7 19.48,47.95 19.43,47.21 C19.41,46.84 19.39,46.49 19.38,46.12 C19.38,45.98 19.15,45.53 19.39,45.68 C19.45,45.72 19.51,45.74 19.56,45.78 C20.01,46.04 20.46,46.3 20.91,46.56 C21.02,46.62 21.23,46.9 21.23,46.69 L21.23,45.91 C21.23,45.72 21.26,45.54 21.06,45.42 C20.94,45.35 20.84,45.29 20.72,45.22 C20.27,44.96 19.82,44.7 19.37,44.45 C19.47,38.83 20.91,32.35 25.76,28.5 C26.01,28.3 26.26,28.12 26.52,27.94 C26.71,27.81 26.91,27.53 27.1,27.85 C27.29,28.19 27.49,28.52 27.69,28.86 C27.88,29.21 28.08,29.55 28.28,29.88 C28.38,30.07 28.47,29.8 28.57,29.75 C28.66,29.69 28.76,29.63 28.86,29.58 C29.1,29.45 28.92,29.28 28.83,29.12 C28.64,28.78 28.44,28.44 28.23,28.09 C28.12,27.87 27.5,27.31 27.94,27.1 C29.09,26.51 30.26,26.12 31.52,25.88 C35.61,25.1 39.04,25.88 42.76,27.41 C43.25,27.62 43.75,27.83 44.23,28.07 C44.48,28.19 44.73,28.31 44.98,28.44 C45.24,28.57 45.56,28.59 45.56,28.99 L45.56,33.99 C45.56,34.19 45.54,34.37 45.75,34.5 C45.94,34.6 46.12,34.71 46.29,34.8 C46.65,35.02 47.02,35.23 47.37,35.43 C47.47,35.49 47.55,35.54 47.64,35.59 C47.81,35.68 47.67,35.41 47.67,35.31 L47.67,34.69 L47.67,33.44 L47.67,30.95 C47.67,30.69 47.38,29.78 47.81,30.05 C48.06,30.2 48.3,30.37 48.55,30.52 C54.08,34.18 58.35,38.66 62.2,43.98 C63.19,45.35 64.13,46.77 65.02,48.22 C65.21,48.53 65.74,48.88 65.21,49.18 C65.05,49.28 64.9,49.36 64.73,49.46 C64.58,49.54 64.42,49.63 64.27,49.72 C64.13,49.8 64.44,50.21 64.48,50.28 C64.57,50.41 64.64,50.56 64.72,50.69 C64.76,50.76 64.79,50.82 64.83,50.89 C64.86,50.95 64.83,51.12 64.94,51.07 C65.25,50.88 65.56,50.7 65.87,50.52 C65.94,50.49 66.01,50.44 66.08,50.4 C66.25,50.31 66.32,50.43 66.39,50.56 C66.76,51.23 67.12,51.91 67.47,52.59 C68.17,53.97 68.84,55.37 69.44,56.79 C70.64,59.61 71.62,62.47 72.38,65.43 C73.07,68.17 73.55,70.91 73.75,73.73 C73.79,74.38 73.83,75.02 73.84,75.67 L73.84,75.67 Z M60.32,80 C64.34,78 65.63,73.09 65.63,68.91 C65.63,59.41 59.85,48.77 52.87,42.75 C49.5,39.84 44.28,36.69 39.3,37.8 C37.68,38.17 36.39,38.91 35.38,39.91 C31.18,41.81 29.84,46.85 29.84,51.1 C29.84,60.6 35.62,71.24 42.59,77.27 C45.96,80.18 51.18,83.33 56.17,82.21 C57.88,81.82 59.22,81.02 60.26,79.94 L60.32,80 L60.32,80 Z" id="bezier82" fill="#FFFFFF"></path>
                <path d="M65.63,68.91 C65.63,73.09 64.34,78 60.32,80 L60.26,79.94 C62.58,77.53 63.38,73.77 63.38,70.46 C63.38,60.96 57.61,50.32 50.62,44.3 C47.25,41.39 42.03,38.24 37.05,39.35 C36.45,39.48 35.89,39.67 35.38,39.91 C36.39,38.91 37.68,38.17 39.3,37.8 C44.28,36.69 49.5,39.84 52.87,42.75 C59.85,48.77 65.63,59.41 65.63,68.91 L65.63,68.91 Z" id="bezier83" fill="#FFFFFF"></path>
                <path d="M39.68,54.24 C39.44,54.94 39.32,55.74 39.32,56.63 L39.32,56.64 C39.32,57.48 39.44,58.39 39.66,59.35 L39.81,59.94 C39.58,60.46 39.56,61.09 39.62,61.61 C39.71,62.6 40.03,63.45 40.53,64.3 C41.02,65.14 41.58,65.85 42.39,66.43 C42.81,66.72 43.38,67.04 43.95,67.11 L44.38,67.52 C45.06,68.17 45.78,68.71 46.52,69.13 C47.25,69.56 48.01,69.86 48.73,70.01 C49.49,70.2 50.21,70.22 50.87,70.07 C51.5,69.93 52.07,69.64 52.54,69.17 C52.99,68.74 53.35,68.16 53.57,67.4 C53.8,66.74 53.91,65.93 53.91,65 C53.91,64.09 53.79,63.14 53.56,62.19 C53.32,61.2 52.97,60.2 52.52,59.23 C52.07,58.25 51.51,57.3 50.9,56.44 C50.28,55.57 49.59,54.76 48.85,54.07 C48.34,53.56 47.8,53.13 47.24,52.75 C47.03,52.6 46.81,52.47 46.61,52.36 C45.81,51.87 45.05,51.58 44.35,51.43 C43.6,51.27 42.91,51.28 42.31,51.46 C41.69,51.62 41.15,51.96 40.71,52.42 C40.26,52.9 39.91,53.52 39.68,54.24 L39.68,54.24 Z M63.38,70.46 C63.38,73.77 62.58,77.53 60.26,79.94 C59.22,81.02 57.88,81.82 56.17,82.21 C51.18,83.33 45.96,80.18 42.59,77.27 C35.62,71.24 29.84,60.6 29.84,51.1 C29.84,46.85 31.18,41.81 35.38,39.91 C35.89,39.67 36.45,39.48 37.05,39.35 C42.03,38.24 47.25,41.39 50.62,44.3 C57.61,50.32 63.38,60.96 63.38,70.46 L63.38,70.46 Z" id="bezier84" fill="#FFFFFF"></path>
                <path d="M53.91,64.99 L48.15,64.62 C48.15,64.11 48.08,63.58 47.95,63.04 L53.56,62.19 C53.79,63.14 53.91,64.08 53.91,64.99 L53.91,64.99 Z" id="bezier85" fill="#FFFFFF"></path>
                <path d="M48.15,64.62 L53.91,64.99 C53.91,65.93 53.79,66.73 53.57,67.4 L53.56,67.4 L47.95,65.97 C48.08,65.58 48.15,65.12 48.15,64.62 L48.15,64.62 Z" id="bezier86" fill="#FFFFFF"></path>
                <path d="M53.56,67.4 L53.57,67.4 C53.35,68.16 52.99,68.73 52.54,69.17 L52.52,69.15 L47.37,66.95 C47.62,66.69 47.82,66.36 47.95,65.97 L53.56,67.4 L53.56,67.4 Z" id="bezier87" fill="#FFFFFF"></path>
                <path d="M53.56,62.19 L47.95,63.04 C47.82,62.49 47.62,61.92 47.37,61.39 L52.52,59.23 C52.97,60.2 53.32,61.2 53.56,62.19 L53.56,62.19 Z" id="bezier88" fill="#FFFFFF"></path>
                <path d="M52.52,69.15 L52.54,69.17 C52.07,69.63 51.5,69.93 50.87,70.07 L46.48,67.47 C46.83,67.37 47.13,67.2 47.37,66.95 L52.52,69.15 L52.52,69.15 Z" id="bezier89" fill="#FFFFFF"></path>
                <path d="M52.52,59.23 L47.37,61.39 C47.11,60.84 46.81,60.31 46.47,59.82 L50.9,56.44 C51.51,57.3 52.07,58.25 52.52,59.23 L52.52,59.23 Z" id="bezier90" fill="#FFFFFF"></path>
                <path d="M50.9,56.44 L46.47,59.82 C46.11,59.33 45.74,58.88 45.32,58.49 L48.85,54.07 C49.59,54.76 50.28,55.56 50.9,56.44 L50.9,56.44 Z" id="bezier91" fill="#FFFFFF"></path>
                <path d="M46.48,67.47 L50.87,70.07 C50.21,70.22 49.49,70.2 48.73,70.01 L45.34,67.49 C45.75,67.58 46.14,67.56 46.47,67.47 C46.48,67.48 46.48,67.47 46.48,67.47 L46.48,67.47 Z" id="bezier92" fill="#FFFFFF"></path>
                <path d="M48.85,54.07 L45.32,58.49 C45.26,58.43 45.2,58.37 45.15,58.32 C44.79,58 44.42,57.74 44.06,57.53 L46.61,52.36 C46.81,52.47 47.03,52.6 47.24,52.75 C47.79,53.12 48.34,53.56 48.85,54.07 L48.85,54.07 Z" id="bezier93" fill="#FFFFFF"></path>
                <path d="M40.16,58.5 C40.29,58.06 40.49,57.72 40.74,57.47 C41,57.21 41.31,57.04 41.66,56.97 C42.01,56.9 42.4,56.91 42.8,57.01 C43.2,57.1 43.63,57.28 44.05,57.53 C44.42,57.74 44.79,58 45.14,58.32 C45.2,58.37 45.26,58.43 45.32,58.49 C45.74,58.88 46.11,59.33 46.47,59.83 C46.81,60.31 47.11,60.84 47.37,61.39 C47.62,61.92 47.82,62.49 47.95,63.04 C48.08,63.58 48.15,64.11 48.15,64.62 C48.15,65.13 48.08,65.58 47.95,65.97 C47.82,66.36 47.62,66.69 47.37,66.95 C47.13,67.2 46.83,67.38 46.48,67.47 C46.48,67.47 46.48,67.48 46.47,67.47 C46.14,67.57 45.75,67.58 45.33,67.49 C45.33,67.49 45.33,67.49 45.32,67.48 C45,67.42 44.66,67.3 44.3,67.11 C44.55,67.1 44.8,67.03 45.04,66.9 C45.05,66.89 45.07,66.88 45.08,66.88 L46.32,66.17 C48.16,65.1 47.07,62.27 46.32,60.95 C45.56,59.64 43.65,57.28 41.79,58.34 L40.58,59.05 C40.56,59.05 40.54,59.07 40.53,59.08 C40.28,59.22 40.1,59.41 39.97,59.62 C40,59.18 40.06,58.82 40.16,58.5 L40.16,58.5 Z" id="bezier94" fill="#FFFFFF"></path>
                <path d="M46.61,52.36 L44.06,57.53 C43.63,57.28 43.2,57.1 42.8,57.01 L44.35,51.46 L44.35,51.43 C45.05,51.58 45.81,51.87 46.61,52.36 L46.61,52.36 Z" id="bezier95" fill="#FFFFFF"></path>
                <path d="M46.32,60.95 C47.07,62.27 48.16,65.1 46.32,66.17 L45.09,66.88 C45.94,66.33 46.03,65.22 45.95,64.37 C45.85,63.39 45.53,62.53 45.04,61.69 C44.55,60.84 43.98,60.14 43.18,59.56 C42.48,59.07 41.45,58.58 40.58,59.05 L41.79,58.34 C43.65,57.28 45.56,59.63 46.32,60.95 L46.32,60.95 Z" id="bezier96" fill="#FFFFFF"></path>
                <path d="M44.22,67.12 L46.52,69.12 C45.78,68.71 45.06,68.17 44.38,67.52 L43.95,67.11 C44.04,67.11 44.14,67.12 44.22,67.12 L44.22,67.12 Z" id="bezier97" fill="#FFFFFF"></path>
                <path d="M39.81,59.94 C39.83,59.86 39.88,59.78 39.93,59.69 C39.94,59.67 39.95,59.65 39.97,59.62 C40.1,59.41 40.28,59.22 40.53,59.08 C40.54,59.07 40.56,59.05 40.58,59.05 C41.45,58.58 42.48,59.07 43.18,59.56 C43.98,60.14 44.55,60.84 45.04,61.69 C45.53,62.53 45.85,63.39 45.95,64.37 C46.03,65.22 45.94,66.33 45.09,66.88 C45.07,66.88 45.05,66.89 45.04,66.9 C44.8,67.03 44.55,67.1 44.3,67.11 C44.28,67.13 44.24,67.13 44.22,67.13 C44.14,67.13 44.04,67.11 43.95,67.11 C43.38,67.04 42.81,66.72 42.39,66.43 C41.58,65.85 41.01,65.14 40.53,64.3 C40.03,63.45 39.71,62.61 39.62,61.61 C39.56,61.09 39.58,60.46 39.81,59.94 L39.81,59.94 Z" id="bezier98" fill="#FFFFFF"></path>
                <path d="M44.35,51.43 L44.35,51.46 L42.8,57.01 C42.4,56.91 42.01,56.9 41.67,56.97 L42.32,51.48 L42.3,51.46 C42.91,51.28 43.59,51.27 44.35,51.43 L44.35,51.43 Z" id="bezier99" fill="#FFFFFF"></path>
                <path d="M42.3,51.46 L42.32,51.48 L41.66,56.97 C41.31,57.04 41,57.21 40.74,57.47 L40.71,52.41 C41.15,51.95 41.69,51.62 42.3,51.46 L42.3,51.46 Z" id="bezier100" fill="#FFFFFF"></path>
                <path d="M40.71,52.42 L40.74,57.47 C40.49,57.72 40.29,58.06 40.16,58.5 L39.68,54.24 C39.91,53.52 40.26,52.9 40.71,52.42 L40.71,52.42 Z" id="bezier101" fill="#FFFFFF"></path>
                <path d="M39.68,54.24 L40.16,58.5 C40.06,58.82 40,59.18 39.97,59.62 C39.95,59.65 39.94,59.67 39.93,59.69 L39.32,56.64 L39.32,56.63 C39.32,55.74 39.44,54.94 39.68,54.24 L39.68,54.24 Z" id="bezier102" fill="#FFFFFF"></path>
                <path d="M19.37,44.45 C19.46,38.83 20.91,32.36 25.76,28.5 C26.01,28.3 26.26,28.12 26.52,27.94 C26.71,27.81 26.91,27.53 27.1,27.85 C27.29,28.19 27.49,28.52 27.69,28.86 C27.88,29.21 28.08,29.55 28.28,29.88 C28.38,30.07 28.47,29.8 28.57,29.75 C28.66,29.69 28.75,29.64 28.86,29.58 C29.1,29.45 28.92,29.28 28.83,29.13 C28.64,28.78 28.43,28.44 28.23,28.1 C28.11,27.87 27.5,27.32 27.94,27.1 C29.09,26.51 30.26,26.12 31.52,25.88 C35.61,25.1 39.04,25.88 42.75,27.41 C43.25,27.62 43.75,27.84 44.23,28.07 C44.48,28.19 44.73,28.31 44.98,28.44 C45.24,28.57 45.56,28.59 45.56,28.99 L45.56,33.99 C45.56,34.19 45.54,34.37 45.75,34.5 C45.94,34.6 46.11,34.71 46.29,34.81 C46.65,35.02 47.01,35.23 47.37,35.43 C47.46,35.49 47.55,35.54 47.64,35.59 C47.81,35.68 47.66,35.41 47.66,35.32 L47.66,34.69 L47.66,33.45 L47.66,30.95 C47.66,30.69 47.38,29.78 47.81,30.05 C48.06,30.2 48.3,30.37 48.55,30.52 C54.08,34.18 58.35,38.66 62.2,43.98 C63.19,45.35 64.13,46.77 65.02,48.22 C65.2,48.53 65.74,48.88 65.2,49.19 C65.05,49.28 64.9,49.36 64.73,49.46 C64.58,49.54 64.42,49.64 64.27,49.72 C64.13,49.8 64.43,50.22 64.48,50.29 C64.57,50.42 64.64,50.56 64.72,50.69 C64.76,50.76 64.79,50.82 64.83,50.89 C64.86,50.95 64.83,51.13 64.94,51.07 C65.25,50.88 65.56,50.7 65.87,50.52 C65.94,50.49 66.01,50.44 66.08,50.4 C66.24,50.31 66.32,50.43 66.39,50.56 C66.75,51.23 67.12,51.91 67.46,52.59 C68.17,53.97 68.84,55.37 69.44,56.79 C70.64,59.61 71.62,62.47 72.38,65.43 C73.07,68.17 73.55,70.91 73.75,73.73 C73.79,74.38 73.83,75.02 73.84,75.67 C73.84,75.74 73.89,75.92 73.77,75.85 C73.72,75.82 73.66,75.8 73.62,75.77 C73.52,75.71 73.42,75.65 73.32,75.59 C72.92,75.36 72.52,75.13 72.13,74.9 C71.72,74.68 72,75.33 72,75.56 C72,75.81 71.97,76.04 72.23,76.19 C72.53,76.36 72.83,76.53 73.13,76.7 C73.27,76.79 73.43,76.88 73.58,76.96 C73.88,77.14 73.84,77.39 73.83,77.67 C73.81,78.57 73.74,79.47 73.63,80.37 C73.24,83.69 72.43,86.66 70.6,89.54 C69.83,90.75 68.94,91.8 67.85,92.73 C67.35,93.17 66.81,93.56 66.24,93.92 C66.07,94.04 66.14,93.74 66.09,93.66 C66.03,93.56 65.98,93.47 65.92,93.37 C65.82,93.2 65.71,93.02 65.61,92.83 C65.41,92.46 65.19,92.1 64.98,91.73 C64.85,91.52 64.51,91.91 64.39,91.97 C64.14,92.11 64.29,92.28 64.4,92.46 C64.61,92.82 64.83,93.18 65.03,93.55 C65.13,93.74 65.24,93.92 65.34,94.11 C65.39,94.19 65.64,94.28 65.46,94.37 C65.32,94.45 65.17,94.52 65.03,94.59 C59.72,97.15 53.74,95.76 48.92,93.46 C48.54,93.28 48.17,93.09 47.82,92.9 C47.55,92.77 47.13,92.83 47.13,92.36 L47.13,91.43 L47.13,90.5 C47.13,90.36 46.59,90.08 46.51,90.04 C46.38,89.95 46.23,89.88 46.1,89.8 C45.98,89.73 46.08,89.94 46.08,90.01 L46.08,91.87 C46.08,92.17 45.81,91.77 45.68,91.68 C45.49,91.56 45.31,91.45 45.12,91.34 C44.76,91.1 44.39,90.85 44.03,90.6 C43.28,90.08 42.54,89.55 41.82,88.98 C36.33,84.69 32.13,79.66 28.47,73.78 C28.24,73.41 28.02,73.04 27.8,72.66 C27.71,72.52 27.83,72.49 27.94,72.43 C28.09,72.33 28.26,72.24 28.41,72.14 C28.58,72.06 28.73,71.97 28.9,71.87 C29.23,71.68 28.46,70.79 28.36,70.63 C28.19,70.33 28.01,70.65 27.84,70.75 C27.69,70.84 27.52,70.94 27.37,71.03 C27.28,71.08 27.2,71.13 27.13,71.16 C26.86,71.33 26.84,71.01 26.74,70.84 C26.33,70.08 25.92,69.32 25.53,68.55 C22.46,62.43 20.37,56.3 19.62,49.43 C19.53,48.7 19.47,47.95 19.43,47.21 C19.41,46.84 19.39,46.49 19.38,46.12 C19.38,45.98 19.15,45.53 19.39,45.68 C19.45,45.72 19.51,45.74 19.56,45.78 C20.01,46.04 20.46,46.3 20.91,46.56 C21.01,46.62 21.23,46.9 21.23,46.69 L21.23,45.91 C21.23,45.72 21.26,45.54 21.06,45.42 C20.94,45.35 20.84,45.29 20.72,45.22 C20.27,44.96 19.82,44.7 19.37,44.45 L19.37,44.45 Z" id="bezier103" stroke="#282746"></path>
                <path id="bezier104" stroke="#000000" d="M39.81,59.95 L39.81,59.94 L39.66,59.35"></path>
                <path id="bezier105" stroke="#000000" d="M44.38,67.52 L43.95,67.11 L43.93,67.09"></path>
                <path d="M40.58,59.05 L41.79,58.34" id="bezier106" stroke="#000000"></path>
                <path d="M45.32,58.49 L48.85,54.07 L48.86,54.06" id="bezier107" stroke="#000000" stroke-width="0.5"></path>
                <path d="M46.47,59.82 L50.9,56.44" id="bezier108" stroke="#000000" stroke-width="0.5"></path>
                <path d="M47.37,61.39 L52.52,59.23" id="bezier109" stroke="#000000" stroke-width="0.5"></path>
                <path d="M47.95,63.04 L53.56,62.19" id="bezier110" stroke="#000000" stroke-width="0.5"></path>
                <path d="M48.15,64.62 L53.91,64.99" id="bezier111" stroke="#000000" stroke-width="0.5"></path>
                <path d="M47.95,65.97 L53.56,67.4" id="bezier112" stroke="#000000" stroke-width="0.5"></path>
                <path d="M47.37,66.95 L52.52,69.15" id="bezier113" stroke="#000000" stroke-width="0.5"></path>
                <path d="M46.48,67.47 L50.87,70.07 L50.9,70.08" id="bezier114" stroke="#000000" stroke-width="0.5"></path>
                <path d="M45.33,67.49 L48.73,70.01 L48.86,70.11" id="bezier115" stroke="#000000" stroke-width="0.5"></path>
                <path d="M44.21,67.11 L44.22,67.12 L46.52,69.12 L46.61,69.21" id="bezier116" stroke="#000000"></path>
                <path d="M39.32,56.63 L39.31,56.57" id="bezier117" stroke="#000000"></path>
                <path d="M39.93,59.69 L39.32,56.64" id="bezier118" stroke="#000000"></path>
                <path d="M40.16,58.54 L40.16,58.5 L39.68,54.24 L39.66,54.17" id="bezier119" stroke="#000000" stroke-width="0.5"></path>
                <path id="bezier120" stroke="#000000" stroke-width="0.5" d="M40.74,57.56 L40.74,57.47 L40.71,52.42"></path>
                <path d="M41.65,57.04 L41.66,56.97 L42.32,51.48" id="bezier121" stroke="#000000" stroke-width="0.5"></path>
                <path d="M42.79,57.03 L42.8,57.01 L44.35,51.46" id="bezier122" stroke="#000000" stroke-width="0.5"></path>
                <path d="M44.06,57.53 L46.61,52.36" id="bezier123" stroke="#000000" stroke-width="0.5"></path>
                <path d="M39.66,59.35 C39.44,58.39 39.32,57.48 39.32,56.64 L39.32,56.63 C39.32,55.74 39.44,54.94 39.68,54.24 C39.91,53.52 40.26,52.9 40.71,52.42 C41.14,51.95 41.69,51.62 42.3,51.46 C42.91,51.28 43.59,51.27 44.35,51.43 C45.05,51.58 45.81,51.87 46.61,52.36 C46.81,52.47 47.03,52.61 47.24,52.75 C47.79,53.13 48.34,53.56 48.85,54.07 C49.59,54.76 50.28,55.56 50.89,56.44 C51.51,57.3 52.07,58.25 52.52,59.23 C52.97,60.2 53.32,61.2 53.56,62.19 C53.79,63.14 53.91,64.09 53.91,65" id="bezier124" stroke="#000000"></path>
                <path d="M53.91,64.99 C53.91,65.93 53.79,66.73 53.57,67.4 C53.35,68.16 52.99,68.73 52.54,69.17 C52.07,69.63 51.5,69.93 50.87,70.07 C50.21,70.21 49.49,70.2 48.73,70.01 C48.01,69.86 47.25,69.56 46.52,69.12 C45.78,68.71 45.06,68.17 44.38,67.52" id="bezier125" stroke="#000000"></path>
                <path d="M46.48,67.47 C46.83,67.37 47.13,67.2 47.37,66.95 C47.62,66.69 47.82,66.36 47.95,65.97 C48.08,65.58 48.15,65.13 48.15,64.62" id="bezier126" stroke="#000000"></path>
                <path id="bezier127" stroke="#000000" stroke-width="0.5" d="M46.47,67.47 C46.48,67.48 46.48,67.47 46.48,67.47"></path>
                <path id="bezier128" stroke="#000000" d="M45.33,67.49 C45.75,67.58 46.14,67.56 46.47,67.47"></path>
                <path id="bezier129" stroke="#000000" stroke-width="0.5" d="M45.32,67.48 L45.33,67.49"></path>
                <path id="bezier130" stroke="#000000" d="M44.29,67.11 L44.3,67.11 C44.66,67.3 45,67.42 45.32,67.48"></path>
                <path d="M48.15,64.62 C48.15,64.11 48.08,63.58 47.95,63.04 C47.82,62.49 47.62,61.92 47.37,61.39 C47.11,60.84 46.81,60.31 46.47,59.82 C46.11,59.33 45.74,58.88 45.32,58.49 C45.26,58.43 45.2,58.37 45.14,58.32 C44.79,58 44.42,57.74 44.05,57.53 C43.63,57.28 43.2,57.1 42.8,57.01 C42.4,56.91 42.01,56.9 41.66,56.97 C41.31,57.04 41,57.21 40.74,57.47 C40.49,57.72 40.29,58.06 40.16,58.5 C40.06,58.82 40,59.18 39.97,59.62" id="bezier131" stroke="#000000"></path>
                <path d="M41.79,58.34 C43.65,57.28 45.56,59.63 46.32,60.95 C47.07,62.27 48.16,65.1 46.32,66.17" id="bezier132" stroke="#000000"></path>
                <path d="M45.09,66.88 L46.32,66.17" id="bezier133" stroke="#000000"></path>
                <path d="M45.09,66.88 C45.07,66.88 45.05,66.89 45.04,66.9 C44.8,67.03 44.55,67.1 44.3,67.11 C44.28,67.13 44.24,67.13 44.22,67.13 C44.14,67.13 44.04,67.11 43.95,67.11 C43.38,67.04 42.81,66.72 42.39,66.43 C41.58,65.85 41.01,65.14 40.53,64.3 C40.03,63.44 39.71,62.6 39.62,61.61 C39.56,61.09 39.58,60.46 39.81,59.94 C39.83,59.86 39.88,59.78 39.92,59.69 C39.94,59.67 39.95,59.65 39.97,59.62 C40.1,59.41 40.28,59.22 40.53,59.08 C40.54,59.07 40.56,59.05 40.58,59.05 C41.45,58.58 42.48,59.07 43.18,59.56 C43.98,60.14 44.55,60.84 45.04,61.69 C45.53,62.53 45.85,63.39 45.95,64.37 C46.03,65.22 45.94,66.33 45.09,66.88 L45.09,66.88 Z" id="bezier134" stroke="#000000"></path>
                <path d="M35.38,39.91 C35.89,39.67 36.45,39.48 37.05,39.35 C42.03,38.24 47.25,41.39 50.62,44.3 C57.6,50.32 63.38,60.96 63.38,70.46 C63.38,73.77 62.58,77.53 60.26,79.94 C59.21,81.02 57.88,81.82 56.17,82.21 C51.18,83.33 45.96,80.18 42.59,77.27 C35.62,71.24 29.84,60.6 29.84,51.1 C29.84,46.85 31.18,41.81 35.38,39.91 L35.38,39.91 Z" id="bezier135" stroke="#282746"></path>
                <path d="M35.38,39.91 C36.39,38.91 37.68,38.17 39.3,37.8 C44.28,36.69 49.5,39.84 52.87,42.75 C59.85,48.77 65.63,59.41 65.63,68.91 C65.63,73.09 64.34,78 60.32,80" id="bezier136" stroke="#282746"></path>
            </g>
            <g id="vault_outer" transform="translate(1.000000, 71.000000)" stroke="#282746" stroke-width="2" sketch:type="MSShapeGroup">
                <path d="M120.87,70 L0.35,0.41" id="bezier137"></path>
                <path d="M120.87,70 L120.87,209.17" id="bezier138"></path>
                <path d="M241.4,0.41 L120.87,70" id="bezier139"></path>
            </g>
            <g id="hexagon" transform="translate(1.000000, 2.000000)" stroke="#282746" stroke-width="5" sketch:type="MSShapeGroup">
                <path d="M0.35,208.59 L120.87,278.17 L241.4,208.59 L241.4,69.41 L120.87,-0.17 L0.35,69.41 L0.35,208.59 L0.35,208.59 Z" id="bezier140"></path>
            </g>
        </g>
    </g>
</svg>