<?xml version="1.0" encoding="utf-8"?>
<!-- Generator: Adobe Illustrator 16.0.4, SVG Export Plug-In . SVG Version: 6.00 Build 0)  -->
<!DOCTYPE svg PUBLIC "-//W3C//DTD SVG 1.1//EN" "http://www.w3.org/Graphics/SVG/1.1/DTD/svg11.dtd">
<svg version="1.1" xmlns="http://www.w3.org/2000/svg" xmlns:xlink="http://www.w3.org/1999/xlink" x="0px" y="0px" width="100px"
	 height="100px" viewBox="0 0 100 100" enable-background="new 0 0 100 100" xml:space="preserve">
<g id="Layer_3">
	<circle fill="#353558" cx="50" cy="50" r="49.846"/>
</g>
<g id="Layer_2">
	<g>
		<g id="SPLINE_27_">
			<g id="XMLID_1_">
				<g>
					<path fill="#F8CF5E" d="M64.332,20.691c1.1,0.64,2.21,1.29,3.32,1.93c-0.101-0.05-0.21-0.07-0.33-0.06
						c-6.45,0.56-12.9,1.12-19.35,1.68c-0.34,0.03-0.57,0.21-0.69,0.55c-3.66,10.45-7.33,20.9-11,31.34
						c-0.07,0.22-0.05,0.41,0.07,0.59c-0.74-1.05-1.48-2.09-2.23-3.13c-0.12-0.17-0.14-0.359-0.07-0.57
						c3.51-10.1,7.02-20.209,10.52-30.319c0.12-0.32,0.34-0.5,0.66-0.53c6.25-0.52,12.5-1.04,18.75-1.56
						C64.102,20.601,64.222,20.631,64.332,20.691z"/>
					<path fill="#F8CF5E" d="M63.802,40.081c1.061,0.85,2.13,1.7,3.19,2.55c-0.11-0.08-0.25-0.12-0.41-0.1
						c-3.97,0.47-7.95,0.94-11.92,1.41c0.7-1.07,1.399-2.15,2.09-3.22c2.21-0.25,4.42-0.5,6.63-0.75
						C63.542,39.951,63.682,39.991,63.802,40.081z"/>
					<path fill="#F8CF5E" d="M47.562,55.541c-3.14,7.95-6.29,15.9-9.44,23.85c-0.73-1.25-1.46-2.5-2.19-3.75
						c2.55-6.52,5.11-13.04,7.66-19.56C44.912,55.901,46.242,55.721,47.562,55.541z"/>
				</g>
				<g>
					<path fill="none" stroke="#F8CF5E" stroke-linecap="round" stroke-linejoin="round" stroke-miterlimit="10" d="M67.652,22.621
						c-1.11-0.64-2.221-1.29-3.32-1.93c-0.11-0.06-0.23-0.09-0.35-0.08c-6.25,0.52-12.5,1.04-18.75,1.56
						c-0.32,0.03-0.54,0.21-0.66,0.53c-3.5,10.11-7.01,20.22-10.52,30.319c-0.07,0.211-0.05,0.4,0.07,0.57
						c0.75,1.04,1.49,2.08,2.23,3.13c0.01,0.011,0.02,0.021,0.03,0.03c0.15,0.18,0.34,0.25,0.59,0.21c2.21-0.29,4.41-0.59,6.62-0.88
						c-2.55,6.52-5.11,13.04-7.66,19.56c0.73,1.25,1.46,2.5,2.19,3.75c9.64-11.93,19.28-23.859,28.92-35.79
						c0.2-0.24,0.24-0.49,0.13-0.74c-0.04-0.09-0.1-0.17-0.18-0.23c-1.061-0.85-2.13-1.7-3.19-2.55c-0.12-0.09-0.26-0.13-0.42-0.11
						c-2.21,0.25-4.42,0.5-6.63,0.75c3.7-5.69,7.4-11.38,11.09-17.06c0.17-0.26,0.19-0.51,0.07-0.76
						C67.852,22.781,67.771,22.691,67.652,22.621z"/>
					<path fill="none" stroke="#F8CF5E" stroke-linecap="round" stroke-linejoin="round" stroke-miterlimit="10" d="M56.752,40.721
						c-0.69,1.07-1.39,2.15-2.09,3.22"/>
					
						<path fill="none" stroke="#F8CF5E" stroke-width="0.5" stroke-linecap="round" stroke-linejoin="round" stroke-miterlimit="10" d="
						M66.582,42.531c0.16-0.02,0.3,0.02,0.41,0.1"/>
					<path fill="none" stroke="#F8CF5E" stroke-linecap="round" stroke-linejoin="round" stroke-miterlimit="10" d="M47.562,55.541
						c-1.32,0.18-2.65,0.36-3.97,0.54"/>
					
						<path fill="none" stroke="#F8CF5E" stroke-width="0.5" stroke-linecap="round" stroke-linejoin="round" stroke-miterlimit="10" d="
						M36.352,56.721c-0.12-0.18-0.14-0.37-0.07-0.59"/>
					
						<path fill="none" stroke="#F8CF5E" stroke-width="0.5" stroke-linecap="round" stroke-linejoin="round" stroke-miterlimit="10" d="
						M67.322,22.561c0.12-0.01,0.229,0.01,0.33,0.06"/>
					<path fill="none" stroke="#F8CF5E" stroke-linecap="round" stroke-linejoin="round" stroke-miterlimit="10" d="M54.662,43.941
						c3.97-0.47,7.95-0.94,11.92-1.41"/>
					<path fill="none" stroke="#F8CF5E" stroke-linecap="round" stroke-linejoin="round" stroke-miterlimit="10" d="M38.122,79.391
						c3.15-7.949,6.3-15.899,9.44-23.85"/>
					
						<path fill="none" stroke="#F8CF5E" stroke-width="0.5" stroke-linecap="round" stroke-linejoin="round" stroke-miterlimit="10" d="
						M36.282,56.131c3.67-10.44,7.34-20.89,11-31.34"/>
					
						<path fill="none" stroke="#F8CF5E" stroke-width="0.5" stroke-linecap="round" stroke-linejoin="round" stroke-miterlimit="10" d="
						M47.282,24.791c0.12-0.34,0.35-0.52,0.69-0.55"/>
					
						<path fill="none" stroke="#F8CF5E" stroke-width="0.5" stroke-linecap="round" stroke-linejoin="round" stroke-miterlimit="10" d="
						M47.972,24.241c6.45-0.56,12.9-1.12,19.35-1.68"/>
				</g>
			</g>
		</g>
	</g>
</g>
<g id="Layer_1">
</g>
</svg>
