<?xml version="1.0" encoding="UTF-8" standalone="no"?>
<svg width="412px" height="256px" viewBox="0 0 412 256" version="1.1" xmlns="http://www.w3.org/2000/svg" xmlns:xlink="http://www.w3.org/1999/xlink" xmlns:sketch="http://www.bohemiancoding.com/sketch/ns">
    <!-- Generator: Sketch 3.1.1 (8761) - http://www.bohemiancoding.com/sketch -->
    <title>Slice 2</title>
    <desc>Created with Sketch.</desc>
    <defs></defs>
    <g id="Page-1" stroke="none" stroke-width="1" fill="none" fill-rule="evenodd" sketch:type="MSPage">
        <g id="plane" sketch:type="MSLayerGroup" transform="translate(7.000000, 7.000000)">
            <g id="plane_behind" sketch:type="MSShapeGroup">
                <path d="M391.2,74.22 L269.47,107.76 L0.48,-0.16 L391.2,74.22 L391.2,74.22 Z" id="bezier" fill="#FFFFFF"></path>
                <path d="M269.47,107.76 L236.83,241.19 L196.92,126.48 L0.48,-0.16 L269.47,107.76 L269.47,107.76 Z" id="bezier2" fill="#E0EAEF"></path>
                <path d="M269.47,107.76 L0.48,-0.16" id="bezier3" stroke="#82B8C8" stroke-width="2"></path>
                <path d="M236.83,241.19 L269.47,107.76 L391.2,74.22 L0.48,-0.16" id="bezier4" stroke="#82B8C8" stroke-width="5"></path>
            </g>
            <g id="cube" transform="translate(126.000000, 41.000000)" stroke-opacity="0.4" stroke="#282746" sketch:type="MSShapeGroup">
                <path d="M83.18,88.22 L97.51,63.4" id="bezier7"></path>
                <path d="M54.51,88.22 L83.18,88.22" id="bezier8"></path>
                <path d="M97.51,113.05 L83.18,88.23 L83.18,88.22" id="bezier9"></path>
                <path d="M101.36,56.74 L115.68,31.92 L115.69,31.92" id="bezier10"></path>
                <path d="M93.67,56.74 L101.36,56.74" id="bezier11"></path>
                <path d="M115.69,81.56 L101.36,56.74" id="bezier12"></path>
                <path id="bezier13" d="M36.33,56.74 L36.34,56.74 L65,56.74"></path>
                <path d="M50.67,31.92 L46.82,25.26" id="bezier14"></path>
                <path d="M83.18,25.26 L83.18,25.25 L97.51,0.43" id="bezier15"></path>
                <path id="bezier16" d="M54.51,25.26 L54.53,25.26 L83.18,25.26"></path>
                <path d="M97.51,50.07 L83.18,25.26" id="bezier17"></path>
                <path d="M65,56.74 L79.33,31.91" id="bezier18"></path>
                <path d="M46.82,25.26 L46.82,25.25 L52.07,16.17 L61.15,0.43" id="bezier19"></path>
                <path d="M18.16,25.25 L46.82,25.26" id="bezier20"></path>
                <path d="M79.33,81.56 L65,56.74" id="bezier21"></path>
                <path d="M28.64,56.74 L42.98,31.92" id="bezier22"></path>
                <path d="M-0.02,56.74 L28.64,56.74" id="bezier23"></path>
                <path d="M42.98,81.56 L37.73,72.48 L28.64,56.74" id="bezier24"></path>
                <path d="M46.82,88.22 L50.67,81.56" id="bezier25"></path>
                <path id="bezier26" d="M18.16,88.22 L18.17,88.22 L46.82,88.22"></path>
                <path d="M61.15,113.05 L46.82,88.22" id="bezier27"></path>
                <path d="M65,7.09 L61.16,0.44 L61.15,0.43 L32.49,0.43 L18.16,25.25 L22,31.92" id="bezier28" stroke-width="2"></path>
                <path d="M108,81.56 L115.69,81.56 L130.02,56.74 L115.69,31.92 L115.69,31.91 L108,31.92" id="bezier29" stroke-width="2"></path>
                <path d="M58.36,81.56 L54.51,88.22 L65,106.39 L68.85,113.05 L97.51,113.05 L108,94.88 L111.84,88.22 L108,81.56 L97.51,63.4 L89.82,63.4" id="bezier30" stroke-width="2"></path>
                <path d="M89.82,50.08 L97.51,50.08 L97.51,50.07 L111.84,25.25 L97.51,0.43 L68.85,0.43 L65,7.09 L54.52,25.25 L54.51,25.26 L58.35,31.91 L58.36,31.91 L58.36,31.92" id="bezier31" stroke-width="2"></path>
                <path d="M46.82,38.58 L46.82,38.57 L42.98,31.92 L22.01,31.92 L22,31.92 L14.31,31.92 L-0.02,56.74 L14.31,81.56 L22,81.56 L42.97,81.56 L42.98,81.56 L46.82,74.9" id="bezier32" stroke-width="2"></path>
                <path d="M50.67,81.56 L58.36,81.56 L79.33,81.56 L89.82,63.4 L93.67,56.74 L89.82,50.08 L79.33,31.91 L58.36,31.92 L50.67,31.92 L46.82,38.58 L42.2,46.59 L36.33,56.74 L46.82,74.9 L46.83,74.9 L46.83,74.91 L50.67,81.56 L50.67,81.56 Z" id="bezier33" stroke-width="2"></path>
                <path d="M22,81.56 L18.16,88.22 L18.16,88.23 L18.17,88.23 L24.59,99.36 L32.49,113.05 L61.15,113.05 L61.16,113.04 L65,106.39" id="bezier34" stroke-width="2"></path>
            </g>
            <g id="plane_front" sketch:type="MSShapeGroup">
                <g id="front_fill">
                    <path d="M196.92,126.48 L236.83,241.19 L140.31,142.62 L195.29,126.95 L195.98,125.87 L196.92,126.48 L196.92,126.48 Z" id="bezier35" fill="#82B8C8"></path>
                    <path d="M195.98,125.87 L195.29,126.95 L140.31,142.62 L65.44,163.98 L0.48,-0.16 L195.98,125.87 L195.98,125.87 Z" id="bezier36" fill="#FFFFFF"></path>
                </g>
                <g id="front_lines" stroke="#82B8C8">
                    <path d="M140.31,142.62 L195.29,126.95" id="bezier37" stroke-width="5"></path>
                    <path d="M65.44,163.98 L140.31,142.62" id="bezier38" stroke-width="5"></path>
                    <path d="M196.92,126.48 L236.83,241.19" id="bezier39" stroke-width="2"></path>
                    <path d="M0.48,-0.16 L195.98,125.87 L196.92,126.48" id="bezier40" stroke-width="2"></path>
                    <path d="M0.48,-0.16 L65.44,163.98" id="bezier41" stroke-width="5"></path>
                    <path d="M236.83,241.19 L140.31,142.62" id="bezier42" stroke-width="5"></path>
                </g>
            </g>
        </g>
    </g>
</svg>