<?xml version="1.0" encoding="utf-8"?>
<!-- Generator: Adobe Illustrator 16.0.4, SVG Export Plug-In . SVG Version: 6.00 Build 0)  -->
<!DOCTYPE svg PUBLIC "-//W3C//DTD SVG 1.1//EN" "http://www.w3.org/Graphics/SVG/1.1/DTD/svg11.dtd">
<svg version="1.1" xmlns="http://www.w3.org/2000/svg" xmlns:xlink="http://www.w3.org/1999/xlink" x="0px" y="0px" width="100px"
	 height="100px" viewBox="0 0 100 100" enable-background="new 0 0 100 100" xml:space="preserve">
<g id="Layer_3">
</g>
<g id="Layer_2">
	<circle fill="#353558" cx="50" cy="50" r="49.846"/>
</g>
<g id="Layer_1">
	<g>
		<path fill="#F8CF5E" d="M44.26,17.444c-6.114,0-11.09,4.973-11.09,11.089c0,4.683,2.921,8.686,7.032,10.311v-3.637
			c-2.252-1.375-3.763-3.849-3.763-6.675c0-4.312,3.508-7.823,7.821-7.823s7.822,3.511,7.822,7.823c0,2.806-1.489,5.263-3.716,6.645
			v3.648c4.088-1.638,6.984-5.631,6.984-10.293C55.351,22.417,50.374,17.444,44.26,17.444z"/>
		<path fill="#F8CF5E" d="M65.486,47.672c-0.764,0-1.488,0.174-2.136,0.48c-0.36-2.404-2.436-4.254-4.938-4.254
			c-0.774,0-1.509,0.177-2.165,0.493c-0.422-2.329-2.462-4.097-4.91-4.097c-0.743,0-1.446,0.165-2.078,0.455v-9.863
			c0-2.755-2.245-4.999-4.999-4.999c-2.755,0-4.997,2.243-4.997,4.999v17.821l-0.128-0.302c-0.773-1.881-2.586-3.097-4.622-3.097
			c-0.652,0-1.29,0.127-1.898,0.376c-2.549,1.046-3.768,3.974-2.72,6.519L37.131,69.8l0.039,0.081
			c2.965,6.084,9.01,9.865,15.774,9.865c9.67,0,17.538-7.867,17.538-17.541v-9.536C70.482,49.915,68.241,47.672,65.486,47.672z
			 M67.563,62.205c0,8.064-6.556,14.622-14.618,14.622c-5.625,0-10.652-3.134-13.132-8.183l-7.22-17.547
			c-0.211-0.517-0.209-1.082,0.004-1.595c0.213-0.511,0.615-0.911,1.128-1.121c0.254-0.105,0.52-0.16,0.789-0.16
			c0.848,0,1.602,0.508,1.93,1.306l5.739,13.543V30.885c0-1.148,0.933-2.081,2.078-2.081c1.146,0,2.081,0.932,2.081,2.081v21.867
			c0,0.804,0.652,1.457,1.458,1.457c0.806,0,1.46-0.653,1.46-1.457v-7.46c0-1.148,0.931-2.079,2.078-2.079
			c1.146,0,2.079,0.93,2.079,2.079v10.032l0,0l0,0c0,0.807,0.651,1.46,1.457,1.46c0.807,0,1.457-0.653,1.457-1.46l0,0l0,0v-6.431
			c0-1.145,0.936-2.079,2.082-2.079c1.145,0,2.077,0.933,2.077,2.079v9.002h0.003c0,0.003-0.001,0.009-0.001,0.013
			c0,0.804,0.65,1.457,1.458,1.457c0.805,0,1.459-0.653,1.459-1.457c0-0.004,0-0.01,0-0.013l0,0v-5.227
			c0-1.147,0.933-2.08,2.079-2.08c1.147,0,2.075,0.933,2.075,2.08V62.205L67.563,62.205z"/>
	</g>
</g>
</svg>
