<?xml version="1.0" encoding="utf-8"?>
<!-- Generator: Adobe Illustrator 16.0.4, SVG Export Plug-In . SVG Version: 6.00 Build 0)  -->
<!DOCTYPE svg PUBLIC "-//W3C//DTD SVG 1.1//EN" "http://www.w3.org/Graphics/SVG/1.1/DTD/svg11.dtd">
<svg version="1.1" xmlns="http://www.w3.org/2000/svg" xmlns:xlink="http://www.w3.org/1999/xlink" x="0px" y="0px" width="100px"
	 height="100px" viewBox="0 0 100 100" enable-background="new 0 0 100 100" xml:space="preserve">
<g id="Layer_3">
	<circle fill="#353558" cx="50" cy="50" r="49.846"/>
</g>
<g id="Layer_2">
	<g>
		<path fill="#F8CF5E" d="M73.415,21.774H26.583c-1.39,0-2.508,1.124-2.508,2.508v51.432c0,1.39,1.119,2.511,2.508,2.511h46.832
			c1.391,0,2.512-1.121,2.512-2.509V24.283C75.922,22.898,74.806,21.774,73.415,21.774z M73.415,75.715H26.583V24.283h46.832V75.715
			z"/>
		<path fill="#F8CF5E" d="M30.148,73.932h39.704c1.176,0,2.131-0.956,2.131-2.127V28.197c0-1.171-0.955-2.127-2.131-2.127H30.148
			c-1.176,0-2.131,0.953-2.131,2.126v4.661h2.471v5.854h-2.471v22.372h2.471v5.855h-2.471v4.866
			C28.017,72.976,28.972,73.932,30.148,73.932z M50,36.619c7.389,0,13.379,5.991,13.379,13.381c0,7.39-5.99,13.38-13.379,13.38
			c-7.39,0-13.38-5.99-13.38-13.38C36.619,42.609,42.609,36.619,50,36.619z"/>
		<path fill="#F8CF5E" d="M52.015,60.921c6.15-1.135,10.15-7.122,8.845-13.237c-0.624-2.933-2.41-5.488-4.949-7.084
			c-0.847-0.534-1.727-0.934-2.686-1.225c-0.449-0.137-0.9-0.243-1.363-0.322c-0.112-0.019-0.224-0.036-0.336-0.051
			c-0.027-0.004-0.056-0.008-0.084-0.012c-0.023-0.003-0.04,0-0.058,0.017c-0.026,0.026-0.052,0.053-0.076,0.078
			c-0.101,0.105-0.199,0.208-0.301,0.313c-0.202,0.209-0.402,0.418-0.603,0.627c-0.101,0.104-0.201,0.209-0.301,0.312
			c-0.026,0.026-0.05,0.053-0.076,0.079c-0.01,0.012-0.019,0.037-0.038,0.018c-0.012-0.014-0.025-0.026-0.038-0.039
			c-0.05-0.053-0.101-0.105-0.151-0.157c-0.401-0.417-0.804-0.835-1.206-1.253c-6.201,0.791-10.527,6.541-9.568,12.718
			C39.988,57.885,45.862,62.055,52.015,60.921z M42.263,49.85c0.038-1.948,0.808-3.811,2.16-5.214
			c0.124,0.124,0.248,0.248,0.372,0.372c0.071-0.07,0.142-0.141,0.212-0.212c-0.124-0.124-0.248-0.248-0.372-0.372
			c1.367-1.315,3.17-2.083,5.065-2.156c0,0.464,0,0.927,0,1.39c0.199,0,0.398,0,0.597,0c0-0.463,0-0.926,0-1.39
			c1.896,0.074,3.699,0.841,5.066,2.156c-0.125,0.124-0.248,0.248-0.372,0.372c0.071,0.071,0.142,0.142,0.213,0.212
			c0.124-0.124,0.247-0.248,0.372-0.372c1.351,1.404,2.122,3.266,2.159,5.214c-0.175,0-0.351,0-0.527,0c0,0.1,0,0.2,0,0.3
			c0.177,0,0.353,0,0.527,0c-0.037,1.948-0.809,3.811-2.159,5.214c-0.125-0.125-0.248-0.248-0.372-0.372
			c-0.071,0.071-0.142,0.142-0.213,0.213c0.124,0.124,0.247,0.247,0.372,0.371c-1.403,1.352-3.268,2.123-5.214,2.16
			c0-0.176,0-0.351,0-0.527c-0.1,0-0.2,0-0.3,0c0,0.177,0,0.352,0,0.527c-1.949-0.037-3.811-0.809-5.214-2.16
			c0.124-0.124,0.248-0.247,0.372-0.371c-0.071-0.071-0.141-0.142-0.212-0.213c-0.124,0.124-0.248,0.247-0.372,0.372
			c-1.352-1.403-2.123-3.267-2.16-5.214c0.175,0,0.351,0,0.526,0c0-0.1,0-0.2,0-0.3C42.614,49.85,42.438,49.85,42.263,49.85z"/>
		<path fill="#F8CF5E" d="M50,54.764c2.631,0,4.764-2.134,4.764-4.764c0-2.631-2.133-4.764-4.764-4.764
			c-2.631,0-4.764,2.133-4.764,4.764C45.236,52.63,47.369,54.764,50,54.764z M50,47.926c1.145,0,2.073,0.929,2.073,2.074
			S51.145,52.073,50,52.073c-1.146,0-2.074-0.928-2.074-2.073S48.854,47.926,50,47.926z"/>
		<path fill="#F8CF5E" d="M50,51.163c0.642,0,1.163-0.521,1.163-1.163c0-0.642-0.521-1.162-1.163-1.162
			c-0.642,0-1.163,0.52-1.163,1.162C48.837,50.642,49.358,51.163,50,51.163z M49.358,49.358c0.354-0.354,0.929-0.354,1.282,0
			c0.354,0.354,0.354,0.929,0,1.282s-0.928,0.354-1.282,0C49.005,50.287,49.005,49.713,49.358,49.358z"/>
	</g>
</g>
<g id="Layer_1">
</g>
</svg>
